<mxfile host="app.diagrams.net" agent="Mozilla/5.0 (Windows NT 10.0; Win64; x64) AppleWebKit/537.36 (KHTML, like Gecko) Chrome/141.0.0.0 Safari/537.36" version="28.2.8" pages="3">
  <diagram name="Page-1" id="OL75b3WOxQmslysb5HFL">
    <mxGraphModel dx="3214" dy="1828" grid="1" gridSize="10" guides="1" tooltips="1" connect="1" arrows="1" fold="1" page="1" pageScale="1" pageWidth="850" pageHeight="1100" math="0" shadow="0">
      <root>
        <mxCell id="0" />
        <mxCell id="1" parent="0" />
        <mxCell id="uP1VX3FrQpWZ977YDJ0q-1" value="&#xa;&#xa;  &#xa;    &#xa;      &#xa;&#xa;&#xa;    &#xa;  &#xa;&#xa;&#xa;  &#xa;    &#xa;      &#xa;&#xa;&#xa;    &#xa;  &#xa;&#xa;" style="text;whiteSpace=wrap;html=1;" vertex="1" parent="1">
          <mxGeometry x="130" y="600" width="30" height="300" as="geometry" />
        </mxCell>
        <UserObject label="" plantUmlData="{&#xa;  &quot;data&quot;: &quot;@startuml Checkers-HighLevel\nskinparam shadowing false\nskinparam componentStyle rectangle\nskinparam packageStyle rectangle\nskinparam arrowColor #666\nskinparam defaultTextAlignment left\n\npackage \&quot;Domain\&quot; #LightBlue {\n  [BoardState]\n  [Piece]\n  [Move]\n  [Coord]\n  interface IRules\n  [AmericanRules]\n  IRules &lt;|.. [AmericanRules]\n}\n\npackage \&quot;Application\&quot; #FFE5CC {\n  [MatchService]\n  interface ICommand\n  [MoveCommand]\n  interface IGameClock\n  interface IEventBus\n  [MatchService] --&gt; IRules\n  [MoveCommand] --&gt; [MatchService]\n}\n\npackage \&quot;Infrastructure\&quot; #EEEEEE {\n  interface ITweenService\n  [LeanTweenService]\n  ITweenService &lt;|.. [LeanTweenService]\n}\n\npackage \&quot;Presentation\&quot; #E3F8E0 {\n  [GameBootstrap &lt;&lt;MB&gt;&gt;]\n  [TileView &lt;&lt;MB&gt;&gt;]\n  [PieceView &lt;&lt;MB&gt;&gt;]\n  [StartScreen &lt;&lt;MB&gt;&gt;]\n  [InGameHUD &lt;&lt;MB&gt;&gt;]\n}\n\n[AmericanRules] --&gt; [BoardState]\n[MatchService] --&gt; [BoardState]\n[GameBootstrap &lt;&lt;MB&gt;&gt;] --&gt; [MatchService]\n[GameBootstrap &lt;&lt;MB&gt;&gt;] --&gt; ITweenService\n[GameBootstrap &lt;&lt;MB&gt;&gt;] --&gt; [TileView &lt;&lt;MB&gt;&gt;]\n[GameBootstrap &lt;&lt;MB&gt;&gt;] --&gt; [PieceView &lt;&lt;MB&gt;&gt;]\n[InGameHUD &lt;&lt;MB&gt;&gt;] --&gt; [MatchService]\n[StartScreen &lt;&lt;MB&gt;&gt;] --&gt; [MatchService]\n@enduml&quot;,&#xa;  &quot;format&quot;: &quot;svg&quot;&#xa;}" id="uP1VX3FrQpWZ977YDJ0q-2">
          <mxCell style="shape=image;noLabel=1;verticalAlign=top;aspect=fixed;imageAspect=0;image=data:image/svg+xml,PHN2ZyB4bWxucz0iaHR0cDovL3d3dy53My5vcmcvMjAwMC9zdmciIHhtbG5zOnhsaW5rPSJodHRwOi8vd3d3LnczLm9yZy8xOTk5L3hsaW5rIiBjb250ZW50U3R5bGVUeXBlPSJ0ZXh0L2NzcyIgZGF0YS1kaWFncmFtLXR5cGU9IkRFU0NSSVBUSU9OIiBoZWlnaHQ9IjU0N3B4IiBwcmVzZXJ2ZUFzcGVjdFJhdGlvPSJub25lIiBzdHlsZT0id2lkdGg6MTA4MXB4O2hlaWdodDo1NDdweDtiYWNrZ3JvdW5kOiNGRkZGRkY7IiB2ZXJzaW9uPSIxLjEiIHZpZXdCb3g9IjAgMCAxMDgxIDU0NyIgd2lkdGg9IjEwODFweCIgem9vbUFuZFBhbj0ibWFnbmlmeSI+PGRlZnMvPjxnPjwhLS1jbHVzdGVyIERvbWFpbi0tPjxnIGNsYXNzPSJjbHVzdGVyIiBkYXRhLWVudGl0eT0iRG9tYWluIiBkYXRhLXNvdXJjZS1saW5lPSI3IiBkYXRhLXVpZD0iZW50MDAwMiIgaWQ9ImNsdXN0ZXJfRG9tYWluIj48cmVjdCBmaWxsPSIjQUREOEU2IiBoZWlnaHQ9IjI5MyIgcng9IjIuNSIgcnk9IjIuNSIgc3R5bGU9InN0cm9rZTojMTgxODE4O3N0cm9rZS13aWR0aDoxOyIgd2lkdGg9IjI2NCIgeD0iMTI3IiB5PSIyNDgiLz48dGV4dCBmaWxsPSIjMDAwMDAwIiBmb250LWZhbWlseT0ic2Fucy1zZXJpZiIgZm9udC1zaXplPSIxNCIgZm9udC13ZWlnaHQ9ImJvbGQiIGxlbmd0aEFkanVzdD0ic3BhY2luZyIgdGV4dExlbmd0aD0iNDIiIHg9IjEzMCIgeT0iMjYzLjIzNDQiPkRvbWFpbjwvdGV4dD48L2c+PCEtLWNsdXN0ZXIgQXBwbGljYXRpb24tLT48ZyBjbGFzcz0iY2x1c3RlciIgZGF0YS1lbnRpdHk9IkFwcGxpY2F0aW9uIiBkYXRhLXNvdXJjZS1saW5lPSIxNyIgZGF0YS11aWQ9ImVudDAwMTAiIGlkPSJjbHVzdGVyX0FwcGxpY2F0aW9uIj48cmVjdCBmaWxsPSIjRkZFNUNDIiBoZWlnaHQ9IjIxNyIgcng9IjIuNSIgcnk9IjIuNSIgc3R5bGU9InN0cm9rZTojMTgxODE4O3N0cm9rZS13aWR0aDoxOyIgd2lkdGg9IjM1OCIgeD0iNyIgeT0iNyIvPjx0ZXh0IGZpbGw9IiMwMDAwMDAiIGZvbnQtZmFtaWx5PSJzYW5zLXNlcmlmIiBmb250LXNpemU9IjE0IiBmb250LXdlaWdodD0iYm9sZCIgbGVuZ3RoQWRqdXN0PSJzcGFjaW5nIiB0ZXh0TGVuZ3RoPSI3NyIgeD0iMTAiIHk9IjIyLjIzNDQiPkFwcGxpY2F0aW9uPC90ZXh0PjwvZz48IS0tY2x1c3RlciBJbmZyYXN0cnVjdHVyZS0tPjxnIGNsYXNzPSJjbHVzdGVyIiBkYXRhLWVudGl0eT0iSW5mcmFzdHJ1Y3R1cmUiIGRhdGEtc291cmNlLWxpbmU9IjI3IiBkYXRhLXVpZD0iZW50MDAxOCIgaWQ9ImNsdXN0ZXJfSW5mcmFzdHJ1Y3R1cmUiPjxyZWN0IGZpbGw9IiNFRUVFRUUiIGhlaWdodD0iMjIwLjUiIHJ4PSIyLjUiIHJ5PSIyLjUiIHN0eWxlPSJzdHJva2U6IzE4MTgxODtzdHJva2Utd2lkdGg6MTsiIHdpZHRoPSIxNjQiIHg9IjkxMSIgeT0iMTIxIi8+PHRleHQgZmlsbD0iIzAwMDAwMCIgZm9udC1mYW1pbHk9InNhbnMtc2VyaWYiIGZvbnQtc2l6ZT0iMTQiIGZvbnQtd2VpZ2h0PSJib2xkIiBsZW5ndGhBZGp1c3Q9InNwYWNpbmciIHRleHRMZW5ndGg9Ijk4IiB4PSI5MTQiIHk9IjEzNi4yMzQ0Ij5JbmZyYXN0cnVjdHVyZTwvdGV4dD48L2c+PCEtLWNsdXN0ZXIgUHJlc2VudGF0aW9uLS0+PGcgY2xhc3M9ImNsdXN0ZXIiIGRhdGEtZW50aXR5PSJQcmVzZW50YXRpb24iIGRhdGEtc291cmNlLWxpbmU9IjMzIiBkYXRhLXVpZD0iZW50MDAyMiIgaWQ9ImNsdXN0ZXJfUHJlc2VudGF0aW9uIj48cmVjdCBmaWxsPSIjRTNGOEUwIiBoZWlnaHQ9IjE5OCIgcng9IjIuNSIgcnk9IjIuNSIgc3R5bGU9InN0cm9rZTojMTgxODE4O3N0cm9rZS13aWR0aDoxOyIgd2lkdGg9IjQ5OCIgeD0iMzg5IiB5PSIxNi41Ii8+PHRleHQgZmlsbD0iIzAwMDAwMCIgZm9udC1mYW1pbHk9InNhbnMtc2VyaWYiIGZvbnQtc2l6ZT0iMTQiIGZvbnQtd2VpZ2h0PSJib2xkIiBsZW5ndGhBZGp1c3Q9InNwYWNpbmciIHRleHRMZW5ndGg9Ijg0IiB4PSIzOTIiIHk9IjMxLjczNDQiPlByZXNlbnRhdGlvbjwvdGV4dD48L2c+PCEtLWVudGl0eSBCb2FyZFN0YXRlLS0+PGcgY2xhc3M9ImVudGl0eSIgZGF0YS1lbnRpdHk9IkJvYXJkU3RhdGUiIGRhdGEtc291cmNlLWxpbmU9IjgiIGRhdGEtdWlkPSJlbnQwMDAzIiBpZD0iZW50aXR5X0JvYXJkU3RhdGUiPjxyZWN0IGZpbGw9IiNGMUYxRjEiIGhlaWdodD0iMzQuOTg0NCIgcng9IjIuNSIgcnk9IjIuNSIgc3R5bGU9InN0cm9rZTojMTgxODE4O3N0cm9rZS13aWR0aDowLjU7IiB3aWR0aD0iOTAiIHg9IjIxOSIgeT0iNDkwIi8+PHRleHQgZmlsbD0iIzAwMDAwMCIgZm9udC1mYW1pbHk9InNhbnMtc2VyaWYiIGZvbnQtc2l6ZT0iMTQiIGxlbmd0aEFkanVzdD0ic3BhY2luZyIgdGV4dExlbmd0aD0iNzAiIHg9IjIyOSIgeT0iNTEzLjIzNDQiPkJvYXJkU3RhdGU8L3RleHQ+PC9nPjwhLS1lbnRpdHkgUGllY2UtLT48ZyBjbGFzcz0iZW50aXR5IiBkYXRhLWVudGl0eT0iUGllY2UiIGRhdGEtc291cmNlLWxpbmU9IjkiIGRhdGEtdWlkPSJlbnQwMDA0IiBpZD0iZW50aXR5X1BpZWNlIj48cmVjdCBmaWxsPSIjRjFGMUYxIiBoZWlnaHQ9IjM0Ljk4NDQiIHJ4PSIyLjUiIHJ5PSIyLjUiIHN0eWxlPSJzdHJva2U6IzE4MTgxODtzdHJva2Utd2lkdGg6MC41OyIgd2lkdGg9IjU1IiB4PSIyMzYuNSIgeT0iMjkwLjUiLz48dGV4dCBmaWxsPSIjMDAwMDAwIiBmb250LWZhbWlseT0ic2Fucy1zZXJpZiIgZm9udC1zaXplPSIxNCIgbGVuZ3RoQWRqdXN0PSJzcGFjaW5nIiB0ZXh0TGVuZ3RoPSIzNSIgeD0iMjQ2LjUiIHk9IjMxMy43MzQ0Ij5QaWVjZTwvdGV4dD48L2c+PCEtLWVudGl0eSBNb3ZlLS0+PGcgY2xhc3M9ImVudGl0eSIgZGF0YS1lbnRpdHk9Ik1vdmUiIGRhdGEtc291cmNlLWxpbmU9IjEwIiBkYXRhLXVpZD0iZW50MDAwNSIgaWQ9ImVudGl0eV9Nb3ZlIj48cmVjdCBmaWxsPSIjRjFGMUYxIiBoZWlnaHQ9IjM0Ljk4NDQiIHJ4PSIyLjUiIHJ5PSIyLjUiIHN0eWxlPSJzdHJva2U6IzE4MTgxODtzdHJva2Utd2lkdGg6MC41OyIgd2lkdGg9IjQ4IiB4PSIzMjciIHk9IjI5MC41Ii8+PHRleHQgZmlsbD0iIzAwMDAwMCIgZm9udC1mYW1pbHk9InNhbnMtc2VyaWYiIGZvbnQtc2l6ZT0iMTQiIGxlbmd0aEFkanVzdD0ic3BhY2luZyIgdGV4dExlbmd0aD0iMjgiIHg9IjMzNyIgeT0iMzEzLjczNDQiPk1vdmU8L3RleHQ+PC9nPjwhLS1lbnRpdHkgQ29vcmQtLT48ZyBjbGFzcz0iZW50aXR5IiBkYXRhLWVudGl0eT0iQ29vcmQiIGRhdGEtc291cmNlLWxpbmU9IjExIiBkYXRhLXVpZD0iZW50MDAwNiIgaWQ9ImVudGl0eV9Db29yZCI+PHJlY3QgZmlsbD0iI0YxRjFGMSIgaGVpZ2h0PSIzNC45ODQ0IiByeD0iMi41IiByeT0iMi41IiBzdHlsZT0ic3Ryb2tlOiMxODE4MTg7c3Ryb2tlLXdpZHRoOjAuNTsiIHdpZHRoPSI1NSIgeD0iMjg4LjUiIHk9IjM5NSIvPjx0ZXh0IGZpbGw9IiMwMDAwMDAiIGZvbnQtZmFtaWx5PSJzYW5zLXNlcmlmIiBmb250LXNpemU9IjE0IiBsZW5ndGhBZGp1c3Q9InNwYWNpbmciIHRleHRMZW5ndGg9IjM1IiB4PSIyOTguNSIgeT0iNDE4LjIzNDQiPkNvb3JkPC90ZXh0PjwvZz48IS0tZW50aXR5IElSdWxlcy0tPjxnIGNsYXNzPSJlbnRpdHkiIGRhdGEtZW50aXR5PSJJUnVsZXMiIGRhdGEtc291cmNlLWxpbmU9IjEyIiBkYXRhLXVpZD0iZW50MDAwNyIgaWQ9ImVudGl0eV9JUnVsZXMiPjxlbGxpcHNlIGN4PSIxNzIiIGN5PSIzMDgiIGZpbGw9IiNGMUYxRjEiIHJ4PSI4IiByeT0iOCIgc3R5bGU9InN0cm9rZTojMTgxODE4O3N0cm9rZS13aWR0aDowLjU7Ii8+PHRleHQgZmlsbD0iIzAwMDAwMCIgZm9udC1mYW1pbHk9InNhbnMtc2VyaWYiIGZvbnQtc2l6ZT0iMTQiIGxlbmd0aEFkanVzdD0ic3BhY2luZyIgdGV4dExlbmd0aD0iNDIiIHg9IjE1MSIgeT0iMzM4LjIzNDQiPklSdWxlczwvdGV4dD48L2c+PCEtLWVudGl0eSBBbWVyaWNhblJ1bGVzLS0+PGcgY2xhc3M9ImVudGl0eSIgZGF0YS1lbnRpdHk9IkFtZXJpY2FuUnVsZXMiIGRhdGEtc291cmNlLWxpbmU9IjEzIiBkYXRhLXVpZD0iZW50MDAwOCIgaWQ9ImVudGl0eV9BbWVyaWNhblJ1bGVzIj48cmVjdCBmaWxsPSIjRjFGMUYxIiBoZWlnaHQ9IjM0Ljk4NDQiIHJ4PSIyLjUiIHJ5PSIyLjUiIHN0eWxlPSJzdHJva2U6IzE4MTgxODtzdHJva2Utd2lkdGg6MC41OyIgd2lkdGg9IjExMSIgeD0iMTQyLjUiIHk9IjM5NSIvPjx0ZXh0IGZpbGw9IiMwMDAwMDAiIGZvbnQtZmFtaWx5PSJzYW5zLXNlcmlmIiBmb250LXNpemU9IjE0IiBsZW5ndGhBZGp1c3Q9InNwYWNpbmciIHRleHRMZW5ndGg9IjkxIiB4PSIxNTIuNSIgeT0iNDE4LjIzNDQiPkFtZXJpY2FuUnVsZXM8L3RleHQ+PC9nPjwhLS1lbnRpdHkgTWF0Y2hTZXJ2aWNlLS0+PGcgY2xhc3M9ImVudGl0eSIgZGF0YS1lbnRpdHk9Ik1hdGNoU2VydmljZSIgZGF0YS1zb3VyY2UtbGluZT0iMTgiIGRhdGEtdWlkPSJlbnQwMDExIiBpZD0iZW50aXR5X01hdGNoU2VydmljZSI+PHJlY3QgZmlsbD0iI0YxRjFGMSIgaGVpZ2h0PSIzNC45ODQ0IiByeD0iMi41IiByeT0iMi41IiBzdHlsZT0ic3Ryb2tlOiMxODE4MTg7c3Ryb2tlLXdpZHRoOjAuNTsiIHdpZHRoPSIxMDQiIHg9IjI0NSIgeT0iMTYzLjUiLz48dGV4dCBmaWxsPSIjMDAwMDAwIiBmb250LWZhbWlseT0ic2Fucy1zZXJpZiIgZm9udC1zaXplPSIxNCIgbGVuZ3RoQWRqdXN0PSJzcGFjaW5nIiB0ZXh0TGVuZ3RoPSI4NCIgeD0iMjU1IiB5PSIxODYuNzM0NCI+TWF0Y2hTZXJ2aWNlPC90ZXh0PjwvZz48IS0tZW50aXR5IElDb21tYW5kLS0+PGcgY2xhc3M9ImVudGl0eSIgZGF0YS1lbnRpdHk9IklDb21tYW5kIiBkYXRhLXNvdXJjZS1saW5lPSIxOSIgZGF0YS11aWQ9ImVudDAwMTIiIGlkPSJlbnRpdHlfSUNvbW1hbmQiPjxlbGxpcHNlIGN4PSI1OSIgY3k9IjY3IiBmaWxsPSIjRjFGMUYxIiByeD0iOCIgcnk9IjgiIHN0eWxlPSJzdHJva2U6IzE4MTgxODtzdHJva2Utd2lkdGg6MC41OyIvPjx0ZXh0IGZpbGw9IiMwMDAwMDAiIGZvbnQtZmFtaWx5PSJzYW5zLXNlcmlmIiBmb250LXNpemU9IjE0IiBsZW5ndGhBZGp1c3Q9InNwYWNpbmciIHRleHRMZW5ndGg9IjU2IiB4PSIzMSIgeT0iOTcuMjM0NCI+SUNvbW1hbmQ8L3RleHQ+PC9nPjwhLS1lbnRpdHkgTW92ZUNvbW1hbmQtLT48ZyBjbGFzcz0iZW50aXR5IiBkYXRhLWVudGl0eT0iTW92ZUNvbW1hbmQiIGRhdGEtc291cmNlLWxpbmU9IjIwIiBkYXRhLXVpZD0iZW50MDAxMyIgaWQ9ImVudGl0eV9Nb3ZlQ29tbWFuZCI+PHJlY3QgZmlsbD0iI0YxRjFGMSIgaGVpZ2h0PSIzNC45ODQ0IiByeD0iMi41IiByeT0iMi41IiBzdHlsZT0ic3Ryb2tlOiMxODE4MTg7c3Ryb2tlLXdpZHRoOjAuNTsiIHdpZHRoPSI5NyIgeD0iMTMwLjUiIHk9IjQ5LjUiLz48dGV4dCBmaWxsPSIjMDAwMDAwIiBmb250LWZhbWlseT0ic2Fucy1zZXJpZiIgZm9udC1zaXplPSIxNCIgbGVuZ3RoQWRqdXN0PSJzcGFjaW5nIiB0ZXh0TGVuZ3RoPSI3NyIgeD0iMTQwLjUiIHk9IjcyLjczNDQiPk1vdmVDb21tYW5kPC90ZXh0PjwvZz48IS0tZW50aXR5IElHYW1lQ2xvY2stLT48ZyBjbGFzcz0iZW50aXR5IiBkYXRhLWVudGl0eT0iSUdhbWVDbG9jayIgZGF0YS1zb3VyY2UtbGluZT0iMjEiIGRhdGEtdWlkPSJlbnQwMDE0IiBpZD0iZW50aXR5X0lHYW1lQ2xvY2siPjxlbGxpcHNlIGN4PSIzMDYiIGN5PSI2NyIgZmlsbD0iI0YxRjFGMSIgcng9IjgiIHJ5PSI4IiBzdHlsZT0ic3Ryb2tlOiMxODE4MTg7c3Ryb2tlLXdpZHRoOjAuNTsiLz48dGV4dCBmaWxsPSIjMDAwMDAwIiBmb250LWZhbWlseT0ic2Fucy1zZXJpZiIgZm9udC1zaXplPSIxNCIgbGVuZ3RoQWRqdXN0PSJzcGFjaW5nIiB0ZXh0TGVuZ3RoPSI3MCIgeD0iMjcxIiB5PSI5Ny4yMzQ0Ij5JR2FtZUNsb2NrPC90ZXh0PjwvZz48IS0tZW50aXR5IElFdmVudEJ1cy0tPjxnIGNsYXNzPSJlbnRpdHkiIGRhdGEtZW50aXR5PSJJRXZlbnRCdXMiIGRhdGEtc291cmNlLWxpbmU9IjIyIiBkYXRhLXVpZD0iZW50MDAxNSIgaWQ9ImVudGl0eV9JRXZlbnRCdXMiPjxlbGxpcHNlIGN4PSI2MiIgY3k9IjE4MSIgZmlsbD0iI0YxRjFGMSIgcng9IjgiIHJ5PSI4IiBzdHlsZT0ic3Ryb2tlOiMxODE4MTg7c3Ryb2tlLXdpZHRoOjAuNTsiLz48dGV4dCBmaWxsPSIjMDAwMDAwIiBmb250LWZhbWlseT0ic2Fucy1zZXJpZiIgZm9udC1zaXplPSIxNCIgbGVuZ3RoQWRqdXN0PSJzcGFjaW5nIiB0ZXh0TGVuZ3RoPSI2MyIgeD0iMzAuNSIgeT0iMjExLjIzNDQiPklFdmVudEJ1czwvdGV4dD48L2c+PCEtLWVudGl0eSBJVHdlZW5TZXJ2aWNlLS0+PGcgY2xhc3M9ImVudGl0eSIgZGF0YS1lbnRpdHk9IklUd2VlblNlcnZpY2UiIGRhdGEtc291cmNlLWxpbmU9IjI4IiBkYXRhLXVpZD0iZW50MDAxOSIgaWQ9ImVudGl0eV9JVHdlZW5TZXJ2aWNlIj48ZWxsaXBzZSBjeD0iOTg2IiBjeT0iMTgxIiBmaWxsPSIjRjFGMUYxIiByeD0iOCIgcnk9IjgiIHN0eWxlPSJzdHJva2U6IzE4MTgxODtzdHJva2Utd2lkdGg6MC41OyIvPjx0ZXh0IGZpbGw9IiMwMDAwMDAiIGZvbnQtZmFtaWx5PSJzYW5zLXNlcmlmIiBmb250LXNpemU9IjE0IiBsZW5ndGhBZGp1c3Q9InNwYWNpbmciIHRleHRMZW5ndGg9IjkxIiB4PSI5NDAuNSIgeT0iMjExLjIzNDQiPklUd2VlblNlcnZpY2U8L3RleHQ+PC9nPjwhLS1lbnRpdHkgTGVhblR3ZWVuU2VydmljZS0tPjxnIGNsYXNzPSJlbnRpdHkiIGRhdGEtZW50aXR5PSJMZWFuVHdlZW5TZXJ2aWNlIiBkYXRhLXNvdXJjZS1saW5lPSIyOSIgZGF0YS11aWQ9ImVudDAwMjAiIGlkPSJlbnRpdHlfTGVhblR3ZWVuU2VydmljZSI+PHJlY3QgZmlsbD0iI0YxRjFGMSIgaGVpZ2h0PSIzNC45ODQ0IiByeD0iMi41IiByeT0iMi41IiBzdHlsZT0ic3Ryb2tlOiMxODE4MTg7c3Ryb2tlLXdpZHRoOjAuNTsiIHdpZHRoPSIxMzIiIHg9IjkyNyIgeT0iMjkwLjUiLz48dGV4dCBmaWxsPSIjMDAwMDAwIiBmb250LWZhbWlseT0ic2Fucy1zZXJpZiIgZm9udC1zaXplPSIxNCIgbGVuZ3RoQWRqdXN0PSJzcGFjaW5nIiB0ZXh0TGVuZ3RoPSIxMTIiIHg9IjkzNyIgeT0iMzEzLjczNDQiPkxlYW5Ud2VlblNlcnZpY2U8L3RleHQ+PC9nPjwhLS1lbnRpdHkgR2FtZUJvb3RzdHJhcCA8PE1CPj4tLT48ZyBjbGFzcz0iZW50aXR5IiBkYXRhLWVudGl0eT0iR2FtZUJvb3RzdHJhcCAmbHQ7Jmx0O01CJmd0OyZndDsiIGRhdGEtc291cmNlLWxpbmU9IjM0IiBkYXRhLXVpZD0iZW50MDAyMyIgaWQ9ImVudGl0eV9HYW1lQm9vdHN0cmFwICZsdDsmbHQ7TUImZ3Q7Jmd0OyI+PHJlY3QgZmlsbD0iI0YxRjFGMSIgaGVpZ2h0PSIzNC45ODQ0IiByeD0iMi41IiByeT0iMi41IiBzdHlsZT0ic3Ryb2tlOiMxODE4MTg7c3Ryb2tlLXdpZHRoOjAuNTsiIHdpZHRoPSIxNDYiIHg9IjcyNSIgeT0iNDkuNSIvPjx0ZXh0IGZpbGw9IiMwMDAwMDAiIGZvbnQtZmFtaWx5PSJzYW5zLXNlcmlmIiBmb250LXNpemU9IjE0IiBsZW5ndGhBZGp1c3Q9InNwYWNpbmciIHRleHRMZW5ndGg9IjEyNiIgeD0iNzM1IiB5PSI3Mi43MzQ0Ij5HYW1lQm9vdHN0cmFwICYjMTcxO01CJiMxODc7PC90ZXh0PjwvZz48IS0tZW50aXR5IFRpbGVWaWV3IDw8TUI+Pi0tPjxnIGNsYXNzPSJlbnRpdHkiIGRhdGEtZW50aXR5PSJUaWxlVmlldyAmbHQ7Jmx0O01CJmd0OyZndDsiIGRhdGEtc291cmNlLWxpbmU9IjM1IiBkYXRhLXVpZD0iZW50MDAyNCIgaWQ9ImVudGl0eV9UaWxlVmlldyAmbHQ7Jmx0O01CJmd0OyZndDsiPjxyZWN0IGZpbGw9IiNGMUYxRjEiIGhlaWdodD0iMzQuOTg0NCIgcng9IjIuNSIgcnk9IjIuNSIgc3R5bGU9InN0cm9rZTojMTgxODE4O3N0cm9rZS13aWR0aDowLjU7IiB3aWR0aD0iMTExIiB4PSI1OTkuNSIgeT0iMTYzLjUiLz48dGV4dCBmaWxsPSIjMDAwMDAwIiBmb250LWZhbWlseT0ic2Fucy1zZXJpZiIgZm9udC1zaXplPSIxNCIgbGVuZ3RoQWRqdXN0PSJzcGFjaW5nIiB0ZXh0TGVuZ3RoPSI5MSIgeD0iNjA5LjUiIHk9IjE4Ni43MzQ0Ij5UaWxlVmlldyAmIzE3MTtNQiYjMTg3OzwvdGV4dD48L2c+PCEtLWVudGl0eSBQaWVjZVZpZXcgPDxNQj4+LS0+PGcgY2xhc3M9ImVudGl0eSIgZGF0YS1lbnRpdHk9IlBpZWNlVmlldyAmbHQ7Jmx0O01CJmd0OyZndDsiIGRhdGEtc291cmNlLWxpbmU9IjM2IiBkYXRhLXVpZD0iZW50MDAyNSIgaWQ9ImVudGl0eV9QaWVjZVZpZXcgJmx0OyZsdDtNQiZndDsmZ3Q7Ij48cmVjdCBmaWxsPSIjRjFGMUYxIiBoZWlnaHQ9IjM0Ljk4NDQiIHJ4PSIyLjUiIHJ5PSIyLjUiIHN0eWxlPSJzdHJva2U6IzE4MTgxODtzdHJva2Utd2lkdGg6MC41OyIgd2lkdGg9IjExOCIgeD0iNzQ2IiB5PSIxNjMuNSIvPjx0ZXh0IGZpbGw9IiMwMDAwMDAiIGZvbnQtZmFtaWx5PSJzYW5zLXNlcmlmIiBmb250LXNpemU9IjE0IiBsZW5ndGhBZGp1c3Q9InNwYWNpbmciIHRleHRMZW5ndGg9Ijk4IiB4PSI3NTYiIHk9IjE4Ni43MzQ0Ij5QaWVjZVZpZXcgJiMxNzE7TUImIzE4Nzs8L3RleHQ+PC9nPjwhLS1lbnRpdHkgU3RhcnRTY3JlZW4gPDxNQj4+LS0+PGcgY2xhc3M9ImVudGl0eSIgZGF0YS1lbnRpdHk9IlN0YXJ0U2NyZWVuICZsdDsmbHQ7TUImZ3Q7Jmd0OyIgZGF0YS1zb3VyY2UtbGluZT0iMzciIGRhdGEtdWlkPSJlbnQwMDI2IiBpZD0iZW50aXR5X1N0YXJ0U2NyZWVuICZsdDsmbHQ7TUImZ3Q7Jmd0OyI+PHJlY3QgZmlsbD0iI0YxRjFGMSIgaGVpZ2h0PSIzNC45ODQ0IiByeD0iMi41IiByeT0iMi41IiBzdHlsZT0ic3Ryb2tlOiMxODE4MTg7c3Ryb2tlLXdpZHRoOjAuNTsiIHdpZHRoPSIxMzIiIHg9IjU1OCIgeT0iNDkuNSIvPjx0ZXh0IGZpbGw9IiMwMDAwMDAiIGZvbnQtZmFtaWx5PSJzYW5zLXNlcmlmIiBmb250LXNpemU9IjE0IiBsZW5ndGhBZGp1c3Q9InNwYWNpbmciIHRleHRMZW5ndGg9IjExMiIgeD0iNTY4IiB5PSI3Mi43MzQ0Ij5TdGFydFNjcmVlbiAmIzE3MTtNQiYjMTg3OzwvdGV4dD48L2c+PCEtLWVudGl0eSBJbkdhbWVIVUQgPDxNQj4+LS0+PGcgY2xhc3M9ImVudGl0eSIgZGF0YS1lbnRpdHk9IkluR2FtZUhVRCAmbHQ7Jmx0O01CJmd0OyZndDsiIGRhdGEtc291cmNlLWxpbmU9IjM4IiBkYXRhLXVpZD0iZW50MDAyNyIgaWQ9ImVudGl0eV9JbkdhbWVIVUQgJmx0OyZsdDtNQiZndDsmZ3Q7Ij48cmVjdCBmaWxsPSIjRjFGMUYxIiBoZWlnaHQ9IjM0Ljk4NDQiIHJ4PSIyLjUiIHJ5PSIyLjUiIHN0eWxlPSJzdHJva2U6IzE4MTgxODtzdHJva2Utd2lkdGg6MC41OyIgd2lkdGg9IjExOCIgeD0iNDA1IiB5PSI0OS41Ii8+PHRleHQgZmlsbD0iIzAwMDAwMCIgZm9udC1mYW1pbHk9InNhbnMtc2VyaWYiIGZvbnQtc2l6ZT0iMTQiIGxlbmd0aEFkanVzdD0ic3BhY2luZyIgdGV4dExlbmd0aD0iOTgiIHg9IjQxNSIgeT0iNzIuNzM0NCI+SW5HYW1lSFVEICYjMTcxO01CJiMxODc7PC90ZXh0PjwvZz48IS0tcmV2ZXJzZSBsaW5rIElSdWxlcyB0byBBbWVyaWNhblJ1bGVzLS0+PGcgY2xhc3M9ImxpbmsiIGRhdGEtZW50aXR5LTE9IklSdWxlcyIgZGF0YS1lbnRpdHktMj0iQW1lcmljYW5SdWxlcyIgZGF0YS1zb3VyY2UtbGluZT0iMTQiIGRhdGEtdWlkPSJsbms5IiBpZD0ibGlua19JUnVsZXNfQW1lcmljYW5SdWxlcyI+PHBhdGggZD0iTTE3OC40NjcsMzM0LjQ4NzEgQzE4Mi43MDcsMzUxLjE5NzEgMTg4LjExLDM3Mi41MSAxOTMuNzcsMzk0Ljg0IiBmaWxsPSJub25lIiBpZD0iSVJ1bGVzLWJhY2t0by1BbWVyaWNhblJ1bGVzIiBzdHlsZT0ic3Ryb2tlOiM2NjY2NjY7c3Ryb2tlLXdpZHRoOjE7c3Ryb2tlLWRhc2hhcnJheTo3LjAsNy4wOyIvPjxwb2x5Z29uIGZpbGw9Im5vbmUiIHBvaW50cz0iMTc0LjA0LDMxNy4wNCwxNzIuNjUxMywzMzUuOTYyOCwxODQuMjgyNywzMzMuMDExNCwxNzQuMDQsMzE3LjA0IiBzdHlsZT0ic3Ryb2tlOiM2NjY2NjY7c3Ryb2tlLXdpZHRoOjE7Ii8+PC9nPjwhLS1saW5rIE1hdGNoU2VydmljZSB0byBJUnVsZXMtLT48ZyBjbGFzcz0ibGluayIgZGF0YS1lbnRpdHktMT0iTWF0Y2hTZXJ2aWNlIiBkYXRhLWVudGl0eS0yPSJJUnVsZXMiIGRhdGEtc291cmNlLWxpbmU9IjIzIiBkYXRhLXVpZD0ibG5rMTYiIGlkPSJsaW5rX01hdGNoU2VydmljZV9JUnVsZXMiPjxwYXRoIGQ9Ik0yNzAuNCwxOTguNjUgQzI1NC40OCwyMDkuMzQgMjM0LjQxLDIyNC4xNSAyMTksMjQwIEMyMDAuNTcsMjU4Ljk0IDE4Ny4xMDQ2LDI4MC41MzA3IDE3OS40ODQ2LDI5My43NjA3IiBmaWxsPSJub25lIiBpZD0iTWF0Y2hTZXJ2aWNlLXRvLUlSdWxlcyIgc3R5bGU9InN0cm9rZTojNjY2NjY2O3N0cm9rZS13aWR0aDoxOyIvPjxwb2x5Z29uIGZpbGw9IiM2NjY2NjYiIHBvaW50cz0iMTc2LjQ5LDI5OC45NiwxODQuNDQ4MSwyOTMuMTU3NSwxNzguOTg1NSwyOTQuNjI3MywxNzcuNTE1NywyODkuMTY0NywxNzYuNDksMjk4Ljk2IiBzdHlsZT0ic3Ryb2tlOiM2NjY2NjY7c3Ryb2tlLXdpZHRoOjE7Ii8+PC9nPjwhLS1saW5rIE1vdmVDb21tYW5kIHRvIE1hdGNoU2VydmljZS0tPjxnIGNsYXNzPSJsaW5rIiBkYXRhLWVudGl0eS0xPSJNb3ZlQ29tbWFuZCIgZGF0YS1lbnRpdHktMj0iTWF0Y2hTZXJ2aWNlIiBkYXRhLXNvdXJjZS1saW5lPSIyNCIgZGF0YS11aWQ9ImxuazE3IiBpZD0ibGlua19Nb3ZlQ29tbWFuZF9NYXRjaFNlcnZpY2UiPjxwYXRoIGQ9Ik0xOTYuNDEsODQuNTMgQzIxOC43MiwxMDUuNyAyNTIuODE3OCwxMzguMDY5OCAyNzUuMTY3OCwxNTkuMjc5OCIgZmlsbD0ibm9uZSIgaWQ9Ik1vdmVDb21tYW5kLXRvLU1hdGNoU2VydmljZSIgc3R5bGU9InN0cm9rZTojNjY2NjY2O3N0cm9rZS13aWR0aDoxOyIvPjxwb2x5Z29uIGZpbGw9IiM2NjY2NjYiIHBvaW50cz0iMjc5LjUyLDE2My40MSwyNzUuNzQ1MiwxNTQuMzEzMywyNzUuODkzMiwxNTkuOTY4MiwyNzAuMjM4MywxNjAuMTE2MiwyNzkuNTIsMTYzLjQxIiBzdHlsZT0ic3Ryb2tlOiM2NjY2NjY7c3Ryb2tlLXdpZHRoOjE7Ii8+PC9nPjwhLS1yZXZlcnNlIGxpbmsgSVR3ZWVuU2VydmljZSB0byBMZWFuVHdlZW5TZXJ2aWNlLS0+PGcgY2xhc3M9ImxpbmsiIGRhdGEtZW50aXR5LTE9IklUd2VlblNlcnZpY2UiIGRhdGEtZW50aXR5LTI9IkxlYW5Ud2VlblNlcnZpY2UiIGRhdGEtc291cmNlLWxpbmU9IjMwIiBkYXRhLXVpZD0ibG5rMjEiIGlkPSJsaW5rX0lUd2VlblNlcnZpY2VfTGVhblR3ZWVuU2VydmljZSI+PHBhdGggZD0iTTk4Ny40NjQ5LDIwOC4xNzE5IEM5ODguNTk0OSwyMjguMzgxOSA5OTAuNTMsMjYyLjkxIDk5Mi4wNSwyOTAuMTEiIGZpbGw9Im5vbmUiIGlkPSJJVHdlZW5TZXJ2aWNlLWJhY2t0by1MZWFuVHdlZW5TZXJ2aWNlIiBzdHlsZT0ic3Ryb2tlOiM2NjY2NjY7c3Ryb2tlLXdpZHRoOjE7c3Ryb2tlLWRhc2hhcnJheTo3LjAsNy4wOyIvPjxwb2x5Z29uIGZpbGw9Im5vbmUiIHBvaW50cz0iOTg2LjQ2LDE5MC4yLDk4MS40NzQyLDIwOC41MDY5LDk5My40NTU1LDIwNy44MzcsOTg2LjQ2LDE5MC4yIiBzdHlsZT0ic3Ryb2tlOiM2NjY2NjY7c3Ryb2tlLXdpZHRoOjE7Ii8+PC9nPjwhLS1saW5rIEFtZXJpY2FuUnVsZXMgdG8gQm9hcmRTdGF0ZS0tPjxnIGNsYXNzPSJsaW5rIiBkYXRhLWVudGl0eS0xPSJBbWVyaWNhblJ1bGVzIiBkYXRhLWVudGl0eS0yPSJCb2FyZFN0YXRlIiBkYXRhLXNvdXJjZS1saW5lPSI0MSIgZGF0YS11aWQ9ImxuazI4IiBpZD0ibGlua19BbWVyaWNhblJ1bGVzX0JvYXJkU3RhdGUiPjxwYXRoIGQ9Ik0yMDkuOCw0MzAuMTMgQzIyMS43NCw0NDYuOTUgMjM2LjYyNzQsNDY3LjkyNyAyNDguNjA3NCw0ODQuODA3IiBmaWxsPSJub25lIiBpZD0iQW1lcmljYW5SdWxlcy10by1Cb2FyZFN0YXRlIiBzdHlsZT0ic3Ryb2tlOiM2NjY2NjY7c3Ryb2tlLXdpZHRoOjE7Ii8+PHBvbHlnb24gZmlsbD0iIzY2NjY2NiIgcG9pbnRzPSIyNTIuMDgsNDg5LjcsMjUwLjEzMzEsNDgwLjA0NTUsMjQ5LjE4NjIsNDg1LjYyMjUsMjQzLjYwOTEsNDg0LjY3NTYsMjUyLjA4LDQ4OS43IiBzdHlsZT0ic3Ryb2tlOiM2NjY2NjY7c3Ryb2tlLXdpZHRoOjE7Ii8+PC9nPjwhLS1saW5rIE1hdGNoU2VydmljZSB0byBCb2FyZFN0YXRlLS0+PGcgY2xhc3M9ImxpbmsiIGRhdGEtZW50aXR5LTE9Ik1hdGNoU2VydmljZSIgZGF0YS1lbnRpdHktMj0iQm9hcmRTdGF0ZSIgZGF0YS1zb3VyY2UtbGluZT0iNDIiIGRhdGEtdWlkPSJsbmsyOSIgaWQ9ImxpbmtfTWF0Y2hTZXJ2aWNlX0JvYXJkU3RhdGUiPjxwYXRoIGQ9Ik0zNDQuMDMsMTk4LjUgQzM2Mi43NSwyMDcuNjUgMzgyLjMzLDIyMS4wOSAzOTMsMjQwIEM0MTYuOTEsMjgyLjM5IDQwMi4xNSwzMDEuNyAzOTMsMzQ5LjUgQzM4NS43NiwzODcuMzEgMzg0LjAxLDM5OS4xMyAzNjEsNDMwIEMzNDIuNDEsNDU0LjkzIDMxOC44MDY1LDQ3Mi45MTQ2IDI5Ny40NTY1LDQ4Ni42NDQ2IiBmaWxsPSJub25lIiBpZD0iTWF0Y2hTZXJ2aWNlLXRvLUJvYXJkU3RhdGUiIHN0eWxlPSJzdHJva2U6IzY2NjY2NjtzdHJva2Utd2lkdGg6MTsiLz48cG9seWdvbiBmaWxsPSIjNjY2NjY2IiBwb2ludHM9IjI5Mi40MSw0ODkuODksMzAyLjE0MzQsNDg4LjM4NjMsMjk2LjYxNTQsNDg3LjE4NTUsMjk3LjgxNjIsNDgxLjY1NzYsMjkyLjQxLDQ4OS44OSIgc3R5bGU9InN0cm9rZTojNjY2NjY2O3N0cm9rZS13aWR0aDoxOyIvPjwvZz48IS0tbGluayBHYW1lQm9vdHN0cmFwIDw8TUI+PiB0byBNYXRjaFNlcnZpY2UtLT48ZyBjbGFzcz0ibGluayIgZGF0YS1lbnRpdHktMT0iR2FtZUJvb3RzdHJhcCAmbHQ7Jmx0O01CJmd0OyZndDsiIGRhdGEtZW50aXR5LTI9Ik1hdGNoU2VydmljZSIgZGF0YS1zb3VyY2UtbGluZT0iNDMiIGRhdGEtdWlkPSJsbmszMCIgaWQ9ImxpbmtfR2FtZUJvb3RzdHJhcCAmbHQ7Jmx0O01CJmd0OyZndDtfTWF0Y2hTZXJ2aWNlIj48cGF0aCBkPSJNNzQ4LDg0LjU3IEM3MzUuMSw4OC4yNiA3MjEuMTQsOTEuNzQgNzA4LDk0IEM2MzguMDEsMTA2LjA0IDQ1NS44NCw4OS4wMiAzODksMTEzIEMzNTkuMjQsMTIzLjY4IDMzNS4xMTU1LDE0My4wNzQ1IDMxNy45MzU1LDE1OS4xOTQ1IiBmaWxsPSJub25lIiBpZD0iR2FtZUJvb3RzdHJhcCAmbHQ7Jmx0O01CJmd0OyZndDstdG8tTWF0Y2hTZXJ2aWNlIiBzdHlsZT0ic3Ryb2tlOiM2NjY2NjY7c3Ryb2tlLXdpZHRoOjE7Ii8+PHBvbHlnb24gZmlsbD0iIzY2NjY2NiIgcG9pbnRzPSIzMTMuNTYsMTYzLjMsMzIyLjg2MDIsMTYwLjA1ODcsMzE3LjIwNjIsMTU5Ljg3ODcsMzE3LjM4NjIsMTU0LjIyNDgsMzEzLjU2LDE2My4zIiBzdHlsZT0ic3Ryb2tlOiM2NjY2NjY7c3Ryb2tlLXdpZHRoOjE7Ii8+PC9nPjwhLS1saW5rIEdhbWVCb290c3RyYXAgPDxNQj4+IHRvIElUd2VlblNlcnZpY2UtLT48ZyBjbGFzcz0ibGluayIgZGF0YS1lbnRpdHktMT0iR2FtZUJvb3RzdHJhcCAmbHQ7Jmx0O01CJmd0OyZndDsiIGRhdGEtZW50aXR5LTI9IklUd2VlblNlcnZpY2UiIGRhdGEtc291cmNlLWxpbmU9IjQ0IiBkYXRhLXVpZD0ibG5rMzEiIGlkPSJsaW5rX0dhbWVCb290c3RyYXAgJmx0OyZsdDtNQiZndDsmZ3Q7X0lUd2VlblNlcnZpY2UiPjxwYXRoIGQ9Ik04MzMuMjEsODQuNTIgQzg0OS43OSw5Mi42MyA4NjkuNjksMTAyLjgyIDg4NywxMTMgQzkyMS4zNSwxMzMuMiA5NTUuMDE5MiwxNTcuMjQ1IDk3Mi4xMjkyLDE2OS43NzUiIGZpbGw9Im5vbmUiIGlkPSJHYW1lQm9vdHN0cmFwICZsdDsmbHQ7TUImZ3Q7Jmd0Oy10by1JVHdlZW5TZXJ2aWNlIiBzdHlsZT0ic3Ryb2tlOiM2NjY2NjY7c3Ryb2tlLXdpZHRoOjE7Ii8+PHBvbHlnb24gZmlsbD0iIzY2NjY2NiIgcG9pbnRzPSI5NzYuOTcsMTczLjMyLDk3Mi4wNzIyLDE2NC43NzUzLDk3Mi45MzYsMTcwLjM2NTgsOTY3LjM0NTUsMTcxLjIyOTcsOTc2Ljk3LDE3My4zMiIgc3R5bGU9InN0cm9rZTojNjY2NjY2O3N0cm9rZS13aWR0aDoxOyIvPjwvZz48IS0tbGluayBHYW1lQm9vdHN0cmFwIDw8TUI+PiB0byBUaWxlVmlldyA8PE1CPj4tLT48ZyBjbGFzcz0ibGluayIgZGF0YS1lbnRpdHktMT0iR2FtZUJvb3RzdHJhcCAmbHQ7Jmx0O01CJmd0OyZndDsiIGRhdGEtZW50aXR5LTI9IlRpbGVWaWV3ICZsdDsmbHQ7TUImZ3Q7Jmd0OyIgZGF0YS1zb3VyY2UtbGluZT0iNDUiIGRhdGEtdWlkPSJsbmszMiIgaWQ9ImxpbmtfR2FtZUJvb3RzdHJhcCAmbHQ7Jmx0O01CJmd0OyZndDtfVGlsZVZpZXcgJmx0OyZsdDtNQiZndDsmZ3Q7Ij48cGF0aCBkPSJNNzcwLjQ1LDg0LjU3IEM3NTcuNTQsOTIuNjggNzQyLjE0LDEwMi44NyA3MjksMTEzIEM3MDguMjgsMTI4Ljk4IDY5MC41NjQ2LDE0NS4yNTA1IDY3NS45OTQ2LDE1OS4zMzA1IiBmaWxsPSJub25lIiBpZD0iR2FtZUJvb3RzdHJhcCAmbHQ7Jmx0O01CJmd0OyZndDstdG8tVGlsZVZpZXcgJmx0OyZsdDtNQiZndDsmZ3Q7IiBzdHlsZT0ic3Ryb2tlOiM2NjY2NjY7c3Ryb2tlLXdpZHRoOjE7Ii8+PHBvbHlnb24gZmlsbD0iIzY2NjY2NiIgcG9pbnRzPSI2NzEuNjgsMTYzLjUsNjgwLjkzMTUsMTYwLjEyMjIsNjc1LjI3NTUsMTYwLjAyNTQsNjc1LjM3MjIsMTU0LjM2OTQsNjcxLjY4LDE2My41IiBzdHlsZT0ic3Ryb2tlOiM2NjY2NjY7c3Ryb2tlLXdpZHRoOjE7Ii8+PC9nPjwhLS1saW5rIEdhbWVCb290c3RyYXAgPDxNQj4+IHRvIFBpZWNlVmlldyA8PE1CPj4tLT48ZyBjbGFzcz0ibGluayIgZGF0YS1lbnRpdHktMT0iR2FtZUJvb3RzdHJhcCAmbHQ7Jmx0O01CJmd0OyZndDsiIGRhdGEtZW50aXR5LTI9IlBpZWNlVmlldyAmbHQ7Jmx0O01CJmd0OyZndDsiIGRhdGEtc291cmNlLWxpbmU9IjQ2IiBkYXRhLXVpZD0ibG5rMzMiIGlkPSJsaW5rX0dhbWVCb290c3RyYXAgJmx0OyZsdDtNQiZndDsmZ3Q7X1BpZWNlVmlldyAmbHQ7Jmx0O01CJmd0OyZndDsiPjxwYXRoIGQ9Ik03OTkuMDMsODQuNTMgQzgwMC4zNiwxMDUuNyA4MDIuMjY3MywxMzYuMjExNiA4MDMuNTg3MywxNTcuNDIxNiIgZmlsbD0ibm9uZSIgaWQ9IkdhbWVCb290c3RyYXAgJmx0OyZsdDtNQiZndDsmZ3Q7LXRvLVBpZWNlVmlldyAmbHQ7Jmx0O01CJmd0OyZndDsiIHN0eWxlPSJzdHJva2U6IzY2NjY2NjtzdHJva2Utd2lkdGg6MTsiLz48cG9seWdvbiBmaWxsPSIjNjY2NjY2IiBwb2ludHM9IjgwMy45NiwxNjMuNDEsODA3LjM5MzIsMTU0LjE3ODksODAzLjY0OTQsMTU4LjQxOTcsNzk5LjQwODcsMTU0LjY3NTgsODAzLjk2LDE2My40MSIgc3R5bGU9InN0cm9rZTojNjY2NjY2O3N0cm9rZS13aWR0aDoxOyIvPjwvZz48IS0tbGluayBJbkdhbWVIVUQgPDxNQj4+IHRvIE1hdGNoU2VydmljZS0tPjxnIGNsYXNzPSJsaW5rIiBkYXRhLWVudGl0eS0xPSJJbkdhbWVIVUQgJmx0OyZsdDtNQiZndDsmZ3Q7IiBkYXRhLWVudGl0eS0yPSJNYXRjaFNlcnZpY2UiIGRhdGEtc291cmNlLWxpbmU9IjQ3IiBkYXRhLXVpZD0ibG5rMzQiIGlkPSJsaW5rX0luR2FtZUhVRCAmbHQ7Jmx0O01CJmd0OyZndDtfTWF0Y2hTZXJ2aWNlIj48cGF0aCBkPSJNNDM1LjE0LDg0LjUxIEM0MjEuMDQsOTIuNzcgNDAzLjk0LDEwMy4xMSAzODksMTEzIEMzNjQuMjksMTI5LjM2IDM0MS43MzUsMTQ1LjkzMDEgMzIzLjMzNSwxNTkuODUwMSIgZmlsbD0ibm9uZSIgaWQ9IkluR2FtZUhVRCAmbHQ7Jmx0O01CJmd0OyZndDstdG8tTWF0Y2hTZXJ2aWNlIiBzdHlsZT0ic3Ryb2tlOiM2NjY2NjY7c3Ryb2tlLXdpZHRoOjE7Ii8+PHBvbHlnb24gZmlsbD0iIzY2NjY2NiIgcG9pbnRzPSIzMTguNTUsMTYzLjQ3LDMyOC4xNDA4LDE2MS4yMzAxLDMyMi41Mzc1LDE2MC40NTM0LDMyMy4zMTQyLDE1NC44NTAxLDMxOC41NSwxNjMuNDciIHN0eWxlPSJzdHJva2U6IzY2NjY2NjtzdHJva2Utd2lkdGg6MTsiLz48L2c+PCEtLWxpbmsgU3RhcnRTY3JlZW4gPDxNQj4+IHRvIE1hdGNoU2VydmljZS0tPjxnIGNsYXNzPSJsaW5rIiBkYXRhLWVudGl0eS0xPSJTdGFydFNjcmVlbiAmbHQ7Jmx0O01CJmd0OyZndDsiIGRhdGEtZW50aXR5LTI9Ik1hdGNoU2VydmljZSIgZGF0YS1zb3VyY2UtbGluZT0iNDgiIGRhdGEtdWlkPSJsbmszNSIgaWQ9ImxpbmtfU3RhcnRTY3JlZW4gJmx0OyZsdDtNQiZndDsmZ3Q7X01hdGNoU2VydmljZSI+PHBhdGggZD0iTTU3Ni4xMSw4NC42IEM1NjQuNzEsODguMTEgNTUyLjUxLDkxLjUgNTQxLDk0IEM0NzQuNDcsMTA4LjQ2IDQ1Mi4zLDg3Ljk0IDM4OSwxMTMgQzM1OS43OSwxMjQuNTYgMzM1LjgwNSwxNDMuNTY4OSAzMTguNDY1LDE1OS4zNjg5IiBmaWxsPSJub25lIiBpZD0iU3RhcnRTY3JlZW4gJmx0OyZsdDtNQiZndDsmZ3Q7LXRvLU1hdGNoU2VydmljZSIgc3R5bGU9InN0cm9rZTojNjY2NjY2O3N0cm9rZS13aWR0aDoxOyIvPjxwb2x5Z29uIGZpbGw9IiM2NjY2NjYiIHBvaW50cz0iMzE0LjAzLDE2My40MSwzMjMuMzc2NiwxNjAuMzA1LDMxNy43MjU4LDE2MC4wNDI0LDMxNy45ODg0LDE1NC4zOTE2LDMxNC4wMywxNjMuNDEiIHN0eWxlPSJzdHJva2U6IzY2NjY2NjtzdHJva2Utd2lkdGg6MTsiLz48L2c+PCEtLVNSQz1bVkxCSFFpOG01N3RsTG1IekxXUFppV1NIUkFzUmUyMmhzeWxPbW9NemhTNHFBTWJnRHhSei12OU05UlFUVktoRkVUbnB4YWNBMG5DdkFDWDhpT1RPTGFvYTkwNVVlNVRTNjJncE4wZUtFajlWNzhiMmdhNmF0OU5hRzAtR3VseTJLNGZNV1VISWFVNWFDZDZPNjFDZWtUeFhmdnZwYmVoQzYxNkVZVlF5cXJHb01DV0NjMVlHdVBnYlUtdHA0aWN0SHlZeEJxNzVhR1FEN19QdG92MHNmdXF5RGVUMElYTlI0bkNRTEc4S29VZ2J2NVhPU2Z3WE9YSDQzTFhIR3Y3ZnB0WlNPTi1URkZDeXZ1UklKRGZHb3NOdTQwSERlV3Jla2V6RzdMY0puQjREUDlRMVlDX25KaHlqcUhEYTY3MTkzelRtVTNJai02TkhpSTJacVNwUG8xclNLd3IweFg4aGFJV2VqMmdmQlhNUUZTQndnX1RtaDdTTGVaV0RpMVBoMUU1WVRNeWtTQWdsZ3RGRGptZUJpekF2bWwxLSAtSFpVREhOUTJkbWZqT2E2RVBiRURfdmlMal9iWmQ1eU9yWXZNN3RiUlQyeTJBS1pnZW92MnctNDdWdHlraFkwOWI3aGNmbEl0N1ZMcV9TcnR2a3RoX21Sb2trTVJ1dGliNzFCdDZzZE1xOWxxZnU2VXRIX10tLT48L2c+PC9zdmc+;" vertex="1" parent="1">
            <mxGeometry x="-200" y="-790.36" width="1081" height="547" as="geometry" />
          </mxCell>
        </UserObject>
        <UserObject label="" plantUmlData="{&quot;data&quot;:&quot;@startuml Checkers-Domain\nskinparam classAttributeIconSize 0\nskinparam class {\n  BackgroundColor White\n  BorderColor #333\n}\nskinparam ArrowColor #666\n\nclass Coord {\n  +Row: int\n  +Col: int\n  +IsDarkSquare: bool\n}\n\nclass Piece {\n  +Owner: PlayerColor\n  +Kind: PieceKind\n  +Crown(): void\n}\n\nclass Move {\n  +From: Coord\n  +To: Coord\n  +Captured: IReadOnlyList&lt;Coord&gt;\n}\n\nclass BoardState {\n  -grid: Piece?[8,8]\n  +Size: int = 8\n  +Place(c: Coord, p: Piece): void\n  +Remove(c: Coord): Piece?\n  +Move(from: Coord, to: Coord): void\n  +InBounds(c: Coord): bool\n  +Clone(): BoardState\n}\n\ninterface IRules {\n  +LegalMoves(b: BoardState, side: PlayerColor): IReadOnlyList&lt;Move&gt;\n  +IsTerminal(b: BoardState, side: PlayerColor, out winner: PlayerColor?): bool\n}\n\nclass AmericanRules\nIRules &lt;|.. AmericanRules\n\nclass MatchService {\n  -_board: BoardState\n  -_turn: PlayerColor\n  -_history: Stack&lt;Move&gt;\n  +LegalMoves(): IReadOnlyList&lt;Move&gt;\n  +Apply(m: Move): void\n  ..events..\n  +OnPosition(b: BoardState, side: PlayerColor)\n  +OnMoveCommitted(side: PlayerColor, m: Move)\n  +OnGameOver(winner: PlayerColor?)\n}\n\ninterface ICommand {\n  +Execute(): void\n  +Undo(): void\n}\n\nclass MoveCommand {\n  -_match: MatchService\n  -_move: Move\n  -_before: BoardState\n  -_prevSide: PlayerColor\n  +Execute(): void\n  +Undo(): void\n}\nICommand &lt;|.. MoveCommand\n\ninterface IGameClock {\n  +StartTurn(side: PlayerColor, timeLeft: TimeSpan): void\n  +Stop(): void\n  +OnTick(side: PlayerColor, left: TimeSpan)\n  +OnFlag(side: PlayerColor)\n}\nclass UnityGameClock &lt;&lt;MonoBehaviour Adapter&gt;&gt; \nIGameClock &lt;|.. UnityGameClock\n\ninterface ITweenService {\n  + MovePiece(view: object, to: Vector3, time: float, onComplete?): int\n  + MoveCamera(t: Transform, to: Vector3, time: float): int\n}\nclass LeanTweenService\nITweenService &lt;|.. LeanTweenService\n\nAmericanRules --&gt; BoardState\nMatchService --&gt; IRules\nMatchService --&gt; BoardState\nMoveCommand --&gt; MatchService\nMove --&gt; Coord\nBoardState --&gt; Piece\n@enduml&quot;,&quot;format&quot;:&quot;svg&quot;}" id="uP1VX3FrQpWZ977YDJ0q-3">
          <mxCell style="shape=image;noLabel=1;verticalAlign=top;aspect=fixed;imageAspect=0;image=data:image/svg+xml,PHN2ZyB4bWxucz0iaHR0cDovL3d3dy53My5vcmcvMjAwMC9zdmciIHhtbG5zOnhsaW5rPSJodHRwOi8vd3d3LnczLm9yZy8xOTk5L3hsaW5rIiBjb250ZW50U3R5bGVUeXBlPSJ0ZXh0L2NzcyIgZGF0YS1kaWFncmFtLXR5cGU9IkNMQVNTIiBoZWlnaHQ9IjExNzBweCIgcHJlc2VydmVBc3BlY3RSYXRpbz0ibm9uZSIgc3R5bGU9IndpZHRoOjEzNThweDtoZWlnaHQ6MTE3MHB4O2JhY2tncm91bmQ6I0ZGRkZGRjsiIHZlcnNpb249IjEuMSIgdmlld0JveD0iMCAwIDEzNTggMTE3MCIgd2lkdGg9IjEzNThweCIgem9vbUFuZFBhbj0ibWFnbmlmeSI+PGRlZnMvPjxnPjwhLS1jbGFzcyBDb29yZC0tPjxnIGNsYXNzPSJlbnRpdHkiIGRhdGEtZW50aXR5PSJDb29yZCIgZGF0YS1zb3VyY2UtbGluZT0iOCIgZGF0YS11aWQ9ImVudDAwMDIiIGlkPSJlbnRpdHlfQ29vcmQiPjxyZWN0IGZpbGw9IiNGRkZGRkYiIGhlaWdodD0iOTIuOTUzMSIgcng9IjIuNSIgcnk9IjIuNSIgc3R5bGU9InN0cm9rZTojMzMzMzMzO3N0cm9rZS13aWR0aDowLjU7IiB3aWR0aD0iMTQ1IiB4PSI0OSIgeT0iMTk3LjUiLz48ZWxsaXBzZSBjeD0iOTkuNzUiIGN5PSIyMTMuNSIgZmlsbD0iI0FERDFCMiIgcng9IjExIiByeT0iMTEiIHN0eWxlPSJzdHJva2U6IzE4MTgxODtzdHJva2Utd2lkdGg6MTsiLz48cGF0aCBkPSJNOTcuMzc1LDIxNy43NSBMOTcuMzc1LDIxOS41IEwxMDIuMzEyNSwyMTkuNSBMMTAyLjMxMjUsMjE3Ljc1IEw5Ny4zNzUsMjE3Ljc1IFogTTk4LjA2MjUsMjE4LjQzNzUgUTk4LjA2MjUsMjE4LjQzNzUgOTguMDYyNSwyMDkuMjUgTDk2LjMxMjUsMjA5LjI1IFE5Ni4zMTI1LDIwOS4yNSA5Ni4zMTI1LDIxOC40Mzc1IEw5OC4wNjI1LDIxOC40Mzc1IFogTTEwMS42MjUsMjE4LjQzNzUgTDEwMy4zNzUsMjE4LjQzNzUgUTEwMy4zNzUsMjE4LjQzNzUgMTAzLjM3NSwyMTUuNjI1IEwxMDEuNjI1LDIxNS42MjUgUTEwMS42MjUsMjE1LjYyNSAxMDEuNjI1LDIxOC40Mzc1IFogTTEwMS42MjUsMjA5LjI1IFExMDEuNjI1LDIwOS4yNSAxMDEuNjI1LDIxMi4wNjI1IEwxMDMuMzc1LDIxMi4wNjI1IFExMDMuMzc1LDIxMi4wNjI1IDEwMy4zNzUsMjA5LjI1IEwxMDEuNjI1LDIwOS4yNSBaIE05Ny4zNzUsMjA5LjkzNzUgTDEwMi4zMTI1LDIwOS45Mzc1IEwxMDIuMzEyNSwyMDguMTg3NSBMOTcuMzc1LDIwOC4xODc1IEw5Ny4zNzUsMjA5LjkzNzUgWiAiIGZpbGw9IiMwMDAwMDAiLz48dGV4dCBmaWxsPSIjMDAwMDAwIiBmb250LWZhbWlseT0ic2Fucy1zZXJpZiIgZm9udC1zaXplPSIxNCIgbGVuZ3RoQWRqdXN0PSJzcGFjaW5nIiB0ZXh0TGVuZ3RoPSIzNSIgeD0iMTIwLjI1IiB5PSIyMTkuMjQyMiI+Q29vcmQ8L3RleHQ+PGxpbmUgc3R5bGU9InN0cm9rZTojMzMzMzMzO3N0cm9rZS13aWR0aDowLjU7IiB4MT0iNTAiIHgyPSIxOTMiIHkxPSIyMjkuNSIgeTI9IjIyOS41Ii8+PHRleHQgZmlsbD0iIzAwMDAwMCIgZm9udC1mYW1pbHk9InNhbnMtc2VyaWYiIGZvbnQtc2l6ZT0iMTQiIGxlbmd0aEFkanVzdD0ic3BhY2luZyIgdGV4dExlbmd0aD0iNjMiIHg9IjU1IiB5PSIyNDYuNzM0NCI+K1JvdzogaW50PC90ZXh0Pjx0ZXh0IGZpbGw9IiMwMDAwMDAiIGZvbnQtZmFtaWx5PSJzYW5zLXNlcmlmIiBmb250LXNpemU9IjE0IiBsZW5ndGhBZGp1c3Q9InNwYWNpbmciIHRleHRMZW5ndGg9IjYzIiB4PSI1NSIgeT0iMjYxLjcxODgiPitDb2w6IGludDwvdGV4dD48dGV4dCBmaWxsPSIjMDAwMDAwIiBmb250LWZhbWlseT0ic2Fucy1zZXJpZiIgZm9udC1zaXplPSIxNCIgbGVuZ3RoQWRqdXN0PSJzcGFjaW5nIiB0ZXh0TGVuZ3RoPSIxMzMiIHg9IjU1IiB5PSIyNzYuNzAzMSI+K0lzRGFya1NxdWFyZTogYm9vbDwvdGV4dD48bGluZSBzdHlsZT0ic3Ryb2tlOiMzMzMzMzM7c3Ryb2tlLXdpZHRoOjAuNTsiIHgxPSI1MCIgeDI9IjE5MyIgeTE9IjI4Mi40NTMxIiB5Mj0iMjgyLjQ1MzEiLz48L2c+PCEtLWNsYXNzIFBpZWNlLS0+PGcgY2xhc3M9ImVudGl0eSIgZGF0YS1lbnRpdHk9IlBpZWNlIiBkYXRhLXNvdXJjZS1saW5lPSIxNCIgZGF0YS11aWQ9ImVudDAwMDMiIGlkPSJlbnRpdHlfUGllY2UiPjxyZWN0IGZpbGw9IiNGRkZGRkYiIGhlaWdodD0iOTIuOTUzMSIgcng9IjIuNSIgcnk9IjIuNSIgc3R5bGU9InN0cm9rZTojMzMzMzMzO3N0cm9rZS13aWR0aDowLjU7IiB3aWR0aD0iMTQ1IiB4PSIxNTQiIHk9IjEwNzEiLz48ZWxsaXBzZSBjeD0iMjA0Ljc1IiBjeT0iMTA4NyIgZmlsbD0iI0FERDFCMiIgcng9IjExIiByeT0iMTEiIHN0eWxlPSJzdHJva2U6IzE4MTgxODtzdHJva2Utd2lkdGg6MTsiLz48cGF0aCBkPSJNMjAyLjM3NSwxMDkxLjI1IEwyMDIuMzc1LDEwOTMgTDIwNy4zMTI1LDEwOTMgTDIwNy4zMTI1LDEwOTEuMjUgTDIwMi4zNzUsMTA5MS4yNSBaIE0yMDMuMDYyNSwxMDkxLjkzNzUgUTIwMy4wNjI1LDEwOTEuOTM3NSAyMDMuMDYyNSwxMDgyLjc1IEwyMDEuMzEyNSwxMDgyLjc1IFEyMDEuMzEyNSwxMDgyLjc1IDIwMS4zMTI1LDEwOTEuOTM3NSBMMjAzLjA2MjUsMTA5MS45Mzc1IFogTTIwNi42MjUsMTA5MS45Mzc1IEwyMDguMzc1LDEwOTEuOTM3NSBRMjA4LjM3NSwxMDkxLjkzNzUgMjA4LjM3NSwxMDg5LjEyNSBMMjA2LjYyNSwxMDg5LjEyNSBRMjA2LjYyNSwxMDg5LjEyNSAyMDYuNjI1LDEwOTEuOTM3NSBaIE0yMDYuNjI1LDEwODIuNzUgUTIwNi42MjUsMTA4Mi43NSAyMDYuNjI1LDEwODUuNTYyNSBMMjA4LjM3NSwxMDg1LjU2MjUgUTIwOC4zNzUsMTA4NS41NjI1IDIwOC4zNzUsMTA4Mi43NSBMMjA2LjYyNSwxMDgyLjc1IFogTTIwMi4zNzUsMTA4My40Mzc1IEwyMDcuMzEyNSwxMDgzLjQzNzUgTDIwNy4zMTI1LDEwODEuNjg3NSBMMjAyLjM3NSwxMDgxLjY4NzUgTDIwMi4zNzUsMTA4My40Mzc1IFogIiBmaWxsPSIjMDAwMDAwIi8+PHRleHQgZmlsbD0iIzAwMDAwMCIgZm9udC1mYW1pbHk9InNhbnMtc2VyaWYiIGZvbnQtc2l6ZT0iMTQiIGxlbmd0aEFkanVzdD0ic3BhY2luZyIgdGV4dExlbmd0aD0iMzUiIHg9IjIyNS4yNSIgeT0iMTA5Mi43NDIyIj5QaWVjZTwvdGV4dD48bGluZSBzdHlsZT0ic3Ryb2tlOiMzMzMzMzM7c3Ryb2tlLXdpZHRoOjAuNTsiIHgxPSIxNTUiIHgyPSIyOTgiIHkxPSIxMTAzIiB5Mj0iMTEwMyIvPjx0ZXh0IGZpbGw9IiMwMDAwMDAiIGZvbnQtZmFtaWx5PSJzYW5zLXNlcmlmIiBmb250LXNpemU9IjE0IiBsZW5ndGhBZGp1c3Q9InNwYWNpbmciIHRleHRMZW5ndGg9IjEzMyIgeD0iMTYwIiB5PSIxMTIwLjIzNDQiPitPd25lcjogUGxheWVyQ29sb3I8L3RleHQ+PHRleHQgZmlsbD0iIzAwMDAwMCIgZm9udC1mYW1pbHk9InNhbnMtc2VyaWYiIGZvbnQtc2l6ZT0iMTQiIGxlbmd0aEFkanVzdD0ic3BhY2luZyIgdGV4dExlbmd0aD0iMTEyIiB4PSIxNjAiIHk9IjExMzUuMjE4OCI+K0tpbmQ6IFBpZWNlS2luZDwvdGV4dD48bGluZSBzdHlsZT0ic3Ryb2tlOiMzMzMzMzM7c3Ryb2tlLXdpZHRoOjAuNTsiIHgxPSIxNTUiIHgyPSIyOTgiIHkxPSIxMTQwLjk2ODgiIHkyPSIxMTQwLjk2ODgiLz48dGV4dCBmaWxsPSIjMDAwMDAwIiBmb250LWZhbWlseT0ic2Fucy1zZXJpZiIgZm9udC1zaXplPSIxNCIgbGVuZ3RoQWRqdXN0PSJzcGFjaW5nIiB0ZXh0TGVuZ3RoPSI5OCIgeD0iMTYwIiB5PSIxMTU4LjIwMzEiPitDcm93bigpOiB2b2lkPC90ZXh0PjwvZz48IS0tY2xhc3MgTW92ZS0tPjxnIGNsYXNzPSJlbnRpdHkiIGRhdGEtZW50aXR5PSJNb3ZlIiBkYXRhLXNvdXJjZS1saW5lPSIyMCIgZGF0YS11aWQ9ImVudDAwMDQiIGlkPSJlbnRpdHlfTW92ZSI+PHJlY3QgZmlsbD0iI0ZGRkZGRiIgaGVpZ2h0PSI5Mi45NTMxIiByeD0iMi41IiByeT0iMi41IiBzdHlsZT0ic3Ryb2tlOiMzMzMzMzM7c3Ryb2tlLXdpZHRoOjAuNTsiIHdpZHRoPSIyMjkiIHg9IjciIHk9IjE0LjUiLz48ZWxsaXBzZSBjeD0iMTAzLjI1IiBjeT0iMzAuNSIgZmlsbD0iI0FERDFCMiIgcng9IjExIiByeT0iMTEiIHN0eWxlPSJzdHJva2U6IzE4MTgxODtzdHJva2Utd2lkdGg6MTsiLz48cGF0aCBkPSJNMTAwLjg3NSwzNC43NSBMMTAwLjg3NSwzNi41IEwxMDUuODEyNSwzNi41IEwxMDUuODEyNSwzNC43NSBMMTAwLjg3NSwzNC43NSBaIE0xMDEuNTYyNSwzNS40Mzc1IFExMDEuNTYyNSwzNS40Mzc1IDEwMS41NjI1LDI2LjI1IEw5OS44MTI1LDI2LjI1IFE5OS44MTI1LDI2LjI1IDk5LjgxMjUsMzUuNDM3NSBMMTAxLjU2MjUsMzUuNDM3NSBaIE0xMDUuMTI1LDM1LjQzNzUgTDEwNi44NzUsMzUuNDM3NSBRMTA2Ljg3NSwzNS40Mzc1IDEwNi44NzUsMzIuNjI1IEwxMDUuMTI1LDMyLjYyNSBRMTA1LjEyNSwzMi42MjUgMTA1LjEyNSwzNS40Mzc1IFogTTEwNS4xMjUsMjYuMjUgUTEwNS4xMjUsMjYuMjUgMTA1LjEyNSwyOS4wNjI1IEwxMDYuODc1LDI5LjA2MjUgUTEwNi44NzUsMjkuMDYyNSAxMDYuODc1LDI2LjI1IEwxMDUuMTI1LDI2LjI1IFogTTEwMC44NzUsMjYuOTM3NSBMMTA1LjgxMjUsMjYuOTM3NSBMMTA1LjgxMjUsMjUuMTg3NSBMMTAwLjg3NSwyNS4xODc1IEwxMDAuODc1LDI2LjkzNzUgWiAiIGZpbGw9IiMwMDAwMDAiLz48dGV4dCBmaWxsPSIjMDAwMDAwIiBmb250LWZhbWlseT0ic2Fucy1zZXJpZiIgZm9udC1zaXplPSIxNCIgbGVuZ3RoQWRqdXN0PSJzcGFjaW5nIiB0ZXh0TGVuZ3RoPSIyOCIgeD0iMTIzLjc1IiB5PSIzNi4yNDIyIj5Nb3ZlPC90ZXh0PjxsaW5lIHN0eWxlPSJzdHJva2U6IzMzMzMzMztzdHJva2Utd2lkdGg6MC41OyIgeDE9IjgiIHgyPSIyMzUiIHkxPSI0Ni41IiB5Mj0iNDYuNSIvPjx0ZXh0IGZpbGw9IiMwMDAwMDAiIGZvbnQtZmFtaWx5PSJzYW5zLXNlcmlmIiBmb250LXNpemU9IjE0IiBsZW5ndGhBZGp1c3Q9InNwYWNpbmciIHRleHRMZW5ndGg9Ijg0IiB4PSIxMyIgeT0iNjMuNzM0NCI+K0Zyb206IENvb3JkPC90ZXh0Pjx0ZXh0IGZpbGw9IiMwMDAwMDAiIGZvbnQtZmFtaWx5PSJzYW5zLXNlcmlmIiBmb250LXNpemU9IjE0IiBsZW5ndGhBZGp1c3Q9InNwYWNpbmciIHRleHRMZW5ndGg9IjcwIiB4PSIxMyIgeT0iNzguNzE4OCI+K1RvOiBDb29yZDwvdGV4dD48dGV4dCBmaWxsPSIjMDAwMDAwIiBmb250LWZhbWlseT0ic2Fucy1zZXJpZiIgZm9udC1zaXplPSIxNCIgbGVuZ3RoQWRqdXN0PSJzcGFjaW5nIiB0ZXh0TGVuZ3RoPSIyMTciIHg9IjEzIiB5PSI5My43MDMxIj4rQ2FwdHVyZWQ6IElSZWFkT25seUxpc3QmbHQ7Q29vcmQmZ3Q7PC90ZXh0PjxsaW5lIHN0eWxlPSJzdHJva2U6IzMzMzMzMztzdHJva2Utd2lkdGg6MC41OyIgeDE9IjgiIHgyPSIyMzUiIHkxPSI5OS40NTMxIiB5Mj0iOTkuNDUzMSIvPjwvZz48IS0tY2xhc3MgQm9hcmRTdGF0ZS0tPjxnIGNsYXNzPSJlbnRpdHkiIGRhdGEtZW50aXR5PSJCb2FyZFN0YXRlIiBkYXRhLXNvdXJjZS1saW5lPSIyNiIgZGF0YS11aWQ9ImVudDAwMDUiIGlkPSJlbnRpdHlfQm9hcmRTdGF0ZSI+PHJlY3QgZmlsbD0iI0ZGRkZGRiIgaGVpZ2h0PSIxNTIuODkwNiIgcng9IjIuNSIgcnk9IjIuNSIgc3R5bGU9InN0cm9rZTojMzMzMzMzO3N0cm9rZS13aWR0aDowLjU7IiB3aWR0aD0iMjU3IiB4PSI5OCIgeT0iODU4Ii8+PGVsbGlwc2UgY3g9IjE4Ny4yNSIgY3k9Ijg3NCIgZmlsbD0iI0FERDFCMiIgcng9IjExIiByeT0iMTEiIHN0eWxlPSJzdHJva2U6IzE4MTgxODtzdHJva2Utd2lkdGg6MTsiLz48cGF0aCBkPSJNMTg0Ljg3NSw4NzguMjUgTDE4NC44NzUsODgwIEwxODkuODEyNSw4ODAgTDE4OS44MTI1LDg3OC4yNSBMMTg0Ljg3NSw4NzguMjUgWiBNMTg1LjU2MjUsODc4LjkzNzUgUTE4NS41NjI1LDg3OC45Mzc1IDE4NS41NjI1LDg2OS43NSBMMTgzLjgxMjUsODY5Ljc1IFExODMuODEyNSw4NjkuNzUgMTgzLjgxMjUsODc4LjkzNzUgTDE4NS41NjI1LDg3OC45Mzc1IFogTTE4OS4xMjUsODc4LjkzNzUgTDE5MC44NzUsODc4LjkzNzUgUTE5MC44NzUsODc4LjkzNzUgMTkwLjg3NSw4NzYuMTI1IEwxODkuMTI1LDg3Ni4xMjUgUTE4OS4xMjUsODc2LjEyNSAxODkuMTI1LDg3OC45Mzc1IFogTTE4OS4xMjUsODY5Ljc1IFExODkuMTI1LDg2OS43NSAxODkuMTI1LDg3Mi41NjI1IEwxOTAuODc1LDg3Mi41NjI1IFExOTAuODc1LDg3Mi41NjI1IDE5MC44NzUsODY5Ljc1IEwxODkuMTI1LDg2OS43NSBaIE0xODQuODc1LDg3MC40Mzc1IEwxODkuODEyNSw4NzAuNDM3NSBMMTg5LjgxMjUsODY4LjY4NzUgTDE4NC44NzUsODY4LjY4NzUgTDE4NC44NzUsODcwLjQzNzUgWiAiIGZpbGw9IiMwMDAwMDAiLz48dGV4dCBmaWxsPSIjMDAwMDAwIiBmb250LWZhbWlseT0ic2Fucy1zZXJpZiIgZm9udC1zaXplPSIxNCIgbGVuZ3RoQWRqdXN0PSJzcGFjaW5nIiB0ZXh0TGVuZ3RoPSI3MCIgeD0iMjA3Ljc1IiB5PSI4NzkuNzQyMiI+Qm9hcmRTdGF0ZTwvdGV4dD48bGluZSBzdHlsZT0ic3Ryb2tlOiMzMzMzMzM7c3Ryb2tlLXdpZHRoOjAuNTsiIHgxPSI5OSIgeDI9IjM1NCIgeTE9Ijg5MCIgeTI9Ijg5MCIvPjx0ZXh0IGZpbGw9IiMwMDAwMDAiIGZvbnQtZmFtaWx5PSJzYW5zLXNlcmlmIiBmb250LXNpemU9IjE0IiBsZW5ndGhBZGp1c3Q9InNwYWNpbmciIHRleHRMZW5ndGg9IjEyNiIgeD0iMTA0IiB5PSI5MDcuMjM0NCI+LWdyaWQ6IFBpZWNlP1s4LDhdPC90ZXh0Pjx0ZXh0IGZpbGw9IiMwMDAwMDAiIGZvbnQtZmFtaWx5PSJzYW5zLXNlcmlmIiBmb250LXNpemU9IjE0IiBsZW5ndGhBZGp1c3Q9InNwYWNpbmciIHRleHRMZW5ndGg9Ijk4IiB4PSIxMDQiIHk9IjkyMi4yMTg4Ij4rU2l6ZTogaW50ID0gODwvdGV4dD48bGluZSBzdHlsZT0ic3Ryb2tlOiMzMzMzMzM7c3Ryb2tlLXdpZHRoOjAuNTsiIHgxPSI5OSIgeDI9IjM1NCIgeTE9IjkyNy45Njg4IiB5Mj0iOTI3Ljk2ODgiLz48dGV4dCBmaWxsPSIjMDAwMDAwIiBmb250LWZhbWlseT0ic2Fucy1zZXJpZiIgZm9udC1zaXplPSIxNCIgbGVuZ3RoQWRqdXN0PSJzcGFjaW5nIiB0ZXh0TGVuZ3RoPSIyMjQiIHg9IjEwNCIgeT0iOTQ1LjIwMzEiPitQbGFjZShjOiBDb29yZCwgcDogUGllY2UpOiB2b2lkPC90ZXh0Pjx0ZXh0IGZpbGw9IiMwMDAwMDAiIGZvbnQtZmFtaWx5PSJzYW5zLXNlcmlmIiBmb250LXNpemU9IjE0IiBsZW5ndGhBZGp1c3Q9InNwYWNpbmciIHRleHRMZW5ndGg9IjE3NSIgeD0iMTA0IiB5PSI5NjAuMTg3NSI+K1JlbW92ZShjOiBDb29yZCk6IFBpZWNlPzwvdGV4dD48dGV4dCBmaWxsPSIjMDAwMDAwIiBmb250LWZhbWlseT0ic2Fucy1zZXJpZiIgZm9udC1zaXplPSIxNCIgbGVuZ3RoQWRqdXN0PSJzcGFjaW5nIiB0ZXh0TGVuZ3RoPSIyNDUiIHg9IjEwNCIgeT0iOTc1LjE3MTkiPitNb3ZlKGZyb206IENvb3JkLCB0bzogQ29vcmQpOiB2b2lkPC90ZXh0Pjx0ZXh0IGZpbGw9IiMwMDAwMDAiIGZvbnQtZmFtaWx5PSJzYW5zLXNlcmlmIiBmb250LXNpemU9IjE0IiBsZW5ndGhBZGp1c3Q9InNwYWNpbmciIHRleHRMZW5ndGg9IjE3NSIgeD0iMTA0IiB5PSI5OTAuMTU2MyI+K0luQm91bmRzKGM6IENvb3JkKTogYm9vbDwvdGV4dD48dGV4dCBmaWxsPSIjMDAwMDAwIiBmb250LWZhbWlseT0ic2Fucy1zZXJpZiIgZm9udC1zaXplPSIxNCIgbGVuZ3RoQWRqdXN0PSJzcGFjaW5nIiB0ZXh0TGVuZ3RoPSIxNDAiIHg9IjEwNCIgeT0iMTAwNS4xNDA2Ij4rQ2xvbmUoKTogQm9hcmRTdGF0ZTwvdGV4dD48L2c+PCEtLWNsYXNzIElSdWxlcy0tPjxnIGNsYXNzPSJlbnRpdHkiIGRhdGEtZW50aXR5PSJJUnVsZXMiIGRhdGEtc291cmNlLWxpbmU9IjM2IiBkYXRhLXVpZD0iZW50MDAwNiIgaWQ9ImVudGl0eV9JUnVsZXMiPjxyZWN0IGZpbGw9IiNGRkZGRkYiIGhlaWdodD0iNzcuOTY4OCIgcng9IjIuNSIgcnk9IjIuNSIgc3R5bGU9InN0cm9rZTojMzMzMzMzO3N0cm9rZS13aWR0aDowLjU7IiB3aWR0aD0iNTUxIiB4PSIyMjMiIHk9IjYxMiIvPjxlbGxpcHNlIGN4PSI0NzMuMjUiIGN5PSI2MjgiIGZpbGw9IiNCNEE3RTUiIHJ4PSIxMSIgcnk9IjExIiBzdHlsZT0ic3Ryb2tlOiMxODE4MTg7c3Ryb2tlLXdpZHRoOjE7Ii8+PHBhdGggZD0iTTQ3Ni4zNzUsNjM0IEw0NzYuMzc1LDYzMi4yNSBMNDc0LjI1LDYzMi4yNSBRNDc0LjI1LDYzMi4yNSA0NzQuMjUsNjI0LjQzNzUgTDQ3Ni4zNzUsNjI0LjQzNzUgTDQ3Ni4zNzUsNjIyLjY4NzUgTDQ3MC4zNzUsNjIyLjY4NzUgTDQ3MC4zNzUsNjI0LjQzNzUgTDQ3Mi41LDYyNC40Mzc1IFE0NzIuNSw2MjQuNDM3NSA0NzIuNSw2MzIuMjUgTDQ3MC4zNzUsNjMyLjI1IEw0NzAuMzc1LDYzNCBMNDc2LjM3NSw2MzQgWiAiIGZpbGw9IiMwMDAwMDAiLz48dGV4dCBmaWxsPSIjMDAwMDAwIiBmb250LWZhbWlseT0ic2Fucy1zZXJpZiIgZm9udC1zaXplPSIxNCIgZm9udC1zdHlsZT0iaXRhbGljIiBsZW5ndGhBZGp1c3Q9InNwYWNpbmciIHRleHRMZW5ndGg9IjQyIiB4PSI0OTMuNzUiIHk9IjYzMy43NDIyIj5JUnVsZXM8L3RleHQ+PGxpbmUgc3R5bGU9InN0cm9rZTojMzMzMzMzO3N0cm9rZS13aWR0aDowLjU7IiB4MT0iMjI0IiB4Mj0iNzczIiB5MT0iNjQ0IiB5Mj0iNjQ0Ii8+PGxpbmUgc3R5bGU9InN0cm9rZTojMzMzMzMzO3N0cm9rZS13aWR0aDowLjU7IiB4MT0iMjI0IiB4Mj0iNzczIiB5MT0iNjUyIiB5Mj0iNjUyIi8+PHRleHQgZmlsbD0iIzAwMDAwMCIgZm9udC1mYW1pbHk9InNhbnMtc2VyaWYiIGZvbnQtc2l6ZT0iMTQiIGxlbmd0aEFkanVzdD0ic3BhY2luZyIgdGV4dExlbmd0aD0iNDYyIiB4PSIyMjkiIHk9IjY2OS4yMzQ0Ij4rTGVnYWxNb3ZlcyhiOiBCb2FyZFN0YXRlLCBzaWRlOiBQbGF5ZXJDb2xvcik6IElSZWFkT25seUxpc3QmbHQ7TW92ZSZndDs8L3RleHQ+PHRleHQgZmlsbD0iIzAwMDAwMCIgZm9udC1mYW1pbHk9InNhbnMtc2VyaWYiIGZvbnQtc2l6ZT0iMTQiIGxlbmd0aEFkanVzdD0ic3BhY2luZyIgdGV4dExlbmd0aD0iNTM5IiB4PSIyMjkiIHk9IjY4NC4yMTg4Ij4rSXNUZXJtaW5hbChiOiBCb2FyZFN0YXRlLCBzaWRlOiBQbGF5ZXJDb2xvciwgb3V0IHdpbm5lcjogUGxheWVyQ29sb3I/KTogYm9vbDwvdGV4dD48L2c+PCEtLWNsYXNzIEFtZXJpY2FuUnVsZXMtLT48ZyBjbGFzcz0iZW50aXR5IiBkYXRhLWVudGl0eT0iQW1lcmljYW5SdWxlcyIgZGF0YS1zb3VyY2UtbGluZT0iNDEiIGRhdGEtdWlkPSJlbnQwMDA3IiBpZD0iZW50aXR5X0FtZXJpY2FuUnVsZXMiPjxyZWN0IGZpbGw9IiNGRkZGRkYiIGhlaWdodD0iNDgiIHJ4PSIyLjUiIHJ5PSIyLjUiIHN0eWxlPSJzdHJva2U6IzMzMzMzMztzdHJva2Utd2lkdGg6MC41OyIgd2lkdGg9IjEyMyIgeD0iMzMwIiB5PSI3NTAiLz48ZWxsaXBzZSBjeD0iMzQ1IiBjeT0iNzY2IiBmaWxsPSIjQUREMUIyIiByeD0iMTEiIHJ5PSIxMSIgc3R5bGU9InN0cm9rZTojMTgxODE4O3N0cm9rZS13aWR0aDoxOyIvPjxwYXRoIGQ9Ik0zNDIuNjI1LDc3MC4yNSBMMzQyLjYyNSw3NzIgTDM0Ny41NjI1LDc3MiBMMzQ3LjU2MjUsNzcwLjI1IEwzNDIuNjI1LDc3MC4yNSBaIE0zNDMuMzEyNSw3NzAuOTM3NSBRMzQzLjMxMjUsNzcwLjkzNzUgMzQzLjMxMjUsNzYxLjc1IEwzNDEuNTYyNSw3NjEuNzUgUTM0MS41NjI1LDc2MS43NSAzNDEuNTYyNSw3NzAuOTM3NSBMMzQzLjMxMjUsNzcwLjkzNzUgWiBNMzQ2Ljg3NSw3NzAuOTM3NSBMMzQ4LjYyNSw3NzAuOTM3NSBRMzQ4LjYyNSw3NzAuOTM3NSAzNDguNjI1LDc2OC4xMjUgTDM0Ni44NzUsNzY4LjEyNSBRMzQ2Ljg3NSw3NjguMTI1IDM0Ni44NzUsNzcwLjkzNzUgWiBNMzQ2Ljg3NSw3NjEuNzUgUTM0Ni44NzUsNzYxLjc1IDM0Ni44NzUsNzY0LjU2MjUgTDM0OC42MjUsNzY0LjU2MjUgUTM0OC42MjUsNzY0LjU2MjUgMzQ4LjYyNSw3NjEuNzUgTDM0Ni44NzUsNzYxLjc1IFogTTM0Mi42MjUsNzYyLjQzNzUgTDM0Ny41NjI1LDc2Mi40Mzc1IEwzNDcuNTYyNSw3NjAuNjg3NSBMMzQyLjYyNSw3NjAuNjg3NSBMMzQyLjYyNSw3NjIuNDM3NSBaICIgZmlsbD0iIzAwMDAwMCIvPjx0ZXh0IGZpbGw9IiMwMDAwMDAiIGZvbnQtZmFtaWx5PSJzYW5zLXNlcmlmIiBmb250LXNpemU9IjE0IiBsZW5ndGhBZGp1c3Q9InNwYWNpbmciIHRleHRMZW5ndGg9IjkxIiB4PSIzNTkiIHk9Ijc3MS43NDIyIj5BbWVyaWNhblJ1bGVzPC90ZXh0PjxsaW5lIHN0eWxlPSJzdHJva2U6IzMzMzMzMztzdHJva2Utd2lkdGg6MC41OyIgeDE9IjMzMSIgeDI9IjQ1MiIgeTE9Ijc4MiIgeTI9Ijc4MiIvPjxsaW5lIHN0eWxlPSJzdHJva2U6IzMzMzMzMztzdHJva2Utd2lkdGg6MC41OyIgeDE9IjMzMSIgeDI9IjQ1MiIgeTE9Ijc5MCIgeTI9Ijc5MCIvPjwvZz48IS0tY2xhc3MgTWF0Y2hTZXJ2aWNlLS0+PGcgY2xhc3M9ImVudGl0eSIgZGF0YS1lbnRpdHk9Ik1hdGNoU2VydmljZSIgZGF0YS1zb3VyY2UtbGluZT0iNDQiIGRhdGEtdWlkPSJlbnQwMDA5IiBpZD0iZW50aXR5X01hdGNoU2VydmljZSI+PHJlY3QgZmlsbD0iI0ZGRkZGRiIgaGVpZ2h0PSIxNzguODU5NCIgcng9IjIuNSIgcnk9IjIuNSIgc3R5bGU9InN0cm9rZTojMzMzMzMzO3N0cm9rZS13aWR0aDowLjU7IiB3aWR0aD0iMzI3IiB4PSIxNzAiIHk9IjM3MyIvPjxlbGxpcHNlIGN4PSIyODcuMjUiIGN5PSIzODkiIGZpbGw9IiNBREQxQjIiIHJ4PSIxMSIgcnk9IjExIiBzdHlsZT0ic3Ryb2tlOiMxODE4MTg7c3Ryb2tlLXdpZHRoOjE7Ii8+PHBhdGggZD0iTTI4NC44NzUsMzkzLjI1IEwyODQuODc1LDM5NSBMMjg5LjgxMjUsMzk1IEwyODkuODEyNSwzOTMuMjUgTDI4NC44NzUsMzkzLjI1IFogTTI4NS41NjI1LDM5My45Mzc1IFEyODUuNTYyNSwzOTMuOTM3NSAyODUuNTYyNSwzODQuNzUgTDI4My44MTI1LDM4NC43NSBRMjgzLjgxMjUsMzg0Ljc1IDI4My44MTI1LDM5My45Mzc1IEwyODUuNTYyNSwzOTMuOTM3NSBaIE0yODkuMTI1LDM5My45Mzc1IEwyOTAuODc1LDM5My45Mzc1IFEyOTAuODc1LDM5My45Mzc1IDI5MC44NzUsMzkxLjEyNSBMMjg5LjEyNSwzOTEuMTI1IFEyODkuMTI1LDM5MS4xMjUgMjg5LjEyNSwzOTMuOTM3NSBaIE0yODkuMTI1LDM4NC43NSBRMjg5LjEyNSwzODQuNzUgMjg5LjEyNSwzODcuNTYyNSBMMjkwLjg3NSwzODcuNTYyNSBRMjkwLjg3NSwzODcuNTYyNSAyOTAuODc1LDM4NC43NSBMMjg5LjEyNSwzODQuNzUgWiBNMjg0Ljg3NSwzODUuNDM3NSBMMjg5LjgxMjUsMzg1LjQzNzUgTDI4OS44MTI1LDM4My42ODc1IEwyODQuODc1LDM4My42ODc1IEwyODQuODc1LDM4NS40Mzc1IFogIiBmaWxsPSIjMDAwMDAwIi8+PHRleHQgZmlsbD0iIzAwMDAwMCIgZm9udC1mYW1pbHk9InNhbnMtc2VyaWYiIGZvbnQtc2l6ZT0iMTQiIGxlbmd0aEFkanVzdD0ic3BhY2luZyIgdGV4dExlbmd0aD0iODQiIHg9IjMwNy43NSIgeT0iMzk0Ljc0MjIiPk1hdGNoU2VydmljZTwvdGV4dD48bGluZSBzdHlsZT0ic3Ryb2tlOiMzMzMzMzM7c3Ryb2tlLXdpZHRoOjAuNTsiIHgxPSIxNzEiIHgyPSI0OTYiIHkxPSI0MDUiIHkyPSI0MDUiLz48dGV4dCBmaWxsPSIjMDAwMDAwIiBmb250LWZhbWlseT0ic2Fucy1zZXJpZiIgZm9udC1zaXplPSIxNCIgbGVuZ3RoQWRqdXN0PSJzcGFjaW5nIiB0ZXh0TGVuZ3RoPSIxMzMiIHg9IjE3NiIgeT0iNDIyLjIzNDQiPi1fYm9hcmQ6IEJvYXJkU3RhdGU8L3RleHQ+PHRleHQgZmlsbD0iIzAwMDAwMCIgZm9udC1mYW1pbHk9InNhbnMtc2VyaWYiIGZvbnQtc2l6ZT0iMTQiIGxlbmd0aEFkanVzdD0ic3BhY2luZyIgdGV4dExlbmd0aD0iMTMzIiB4PSIxNzYiIHk9IjQzNy4yMTg4Ij4tX3R1cm46IFBsYXllckNvbG9yPC90ZXh0Pjx0ZXh0IGZpbGw9IiMwMDAwMDAiIGZvbnQtZmFtaWx5PSJzYW5zLXNlcmlmIiBmb250LXNpemU9IjE0IiBsZW5ndGhBZGp1c3Q9InNwYWNpbmciIHRleHRMZW5ndGg9IjE1NCIgeD0iMTc2IiB5PSI0NTIuMjAzMSI+LV9oaXN0b3J5OiBTdGFjayZsdDtNb3ZlJmd0OzwvdGV4dD48dGV4dCBmaWxsPSIjMDAwMDAwIiBmb250LWZhbWlseT0ic2Fucy1zZXJpZiIgZm9udC1zaXplPSIxNCIgbGVuZ3RoQWRqdXN0PSJzcGFjaW5nIiB0ZXh0TGVuZ3RoPSIyMzgiIHg9IjE3NiIgeT0iNDY3LjE4NzUiPitMZWdhbE1vdmVzKCk6IElSZWFkT25seUxpc3QmbHQ7TW92ZSZndDs8L3RleHQ+PHRleHQgZmlsbD0iIzAwMDAwMCIgZm9udC1mYW1pbHk9InNhbnMtc2VyaWYiIGZvbnQtc2l6ZT0iMTQiIGxlbmd0aEFkanVzdD0ic3BhY2luZyIgdGV4dExlbmd0aD0iMTQ3IiB4PSIxNzYiIHk9IjQ4Mi4xNzE5Ij4rQXBwbHkobTogTW92ZSk6IHZvaWQ8L3RleHQ+PHRleHQgZmlsbD0iIzAwMDAwMCIgZm9udC1mYW1pbHk9InNhbnMtc2VyaWYiIGZvbnQtc2l6ZT0iMTQiIGxlbmd0aEFkanVzdD0ic3BhY2luZyIgdGV4dExlbmd0aD0iMzE1IiB4PSIxNzYiIHk9IjUxNi4xNDA2Ij4rT25Qb3NpdGlvbihiOiBCb2FyZFN0YXRlLCBzaWRlOiBQbGF5ZXJDb2xvcik8L3RleHQ+PHRleHQgZmlsbD0iIzAwMDAwMCIgZm9udC1mYW1pbHk9InNhbnMtc2VyaWYiIGZvbnQtc2l6ZT0iMTQiIGxlbmd0aEFkanVzdD0ic3BhY2luZyIgdGV4dExlbmd0aD0iMzA4IiB4PSIxNzYiIHk9IjUzMS4xMjUiPitPbk1vdmVDb21taXR0ZWQoc2lkZTogUGxheWVyQ29sb3IsIG06IE1vdmUpPC90ZXh0Pjx0ZXh0IGZpbGw9IiMwMDAwMDAiIGZvbnQtZmFtaWx5PSJzYW5zLXNlcmlmIiBmb250LXNpemU9IjE0IiBsZW5ndGhBZGp1c3Q9InNwYWNpbmciIHRleHRMZW5ndGg9IjIzMSIgeD0iMTc2IiB5PSI1NDYuMTA5NCI+K09uR2FtZU92ZXIod2lubmVyOiBQbGF5ZXJDb2xvcj8pPC90ZXh0PjxsaW5lIHN0eWxlPSJzdHJva2U6IzMzMzMzMztzdHJva2Utd2lkdGg6MTtzdHJva2UtZGFzaGFycmF5OjEuMCwyLjA7IiB4MT0iMTcxIiB4Mj0iMzEyLjUiIHkxPSI0OTUuNDE0MSIgeTI9IjQ5NS40MTQxIi8+PHRleHQgZmlsbD0iIzAwMDAwMCIgZm9udC1mYW1pbHk9InNhbnMtc2VyaWYiIGZvbnQtc2l6ZT0iMTQiIGxlbmd0aEFkanVzdD0ic3BhY2luZyIgdGV4dExlbmd0aD0iNDIiIHg9IjMxMi41IiB5PSI1MDAuNjU2MyI+ZXZlbnRzPC90ZXh0PjxsaW5lIHN0eWxlPSJzdHJva2U6IzMzMzMzMztzdHJva2Utd2lkdGg6MTtzdHJva2UtZGFzaGFycmF5OjEuMCwyLjA7IiB4MT0iMzU0LjUiIHgyPSI0OTYiIHkxPSI0OTUuNDE0MSIgeTI9IjQ5NS40MTQxIi8+PC9nPjwhLS1jbGFzcyBJQ29tbWFuZC0tPjxnIGNsYXNzPSJlbnRpdHkiIGRhdGEtZW50aXR5PSJJQ29tbWFuZCIgZGF0YS1zb3VyY2UtbGluZT0iNTYiIGRhdGEtdWlkPSJlbnQwMDEwIiBpZD0iZW50aXR5X0lDb21tYW5kIj48cmVjdCBmaWxsPSIjRkZGRkZGIiBoZWlnaHQ9Ijc3Ljk2ODgiIHJ4PSIyLjUiIHJ5PSIyLjUiIHN0eWxlPSJzdHJva2U6IzMzMzMzMztzdHJva2Utd2lkdGg6MC41OyIgd2lkdGg9IjEyNCIgeD0iMjcxLjUiIHk9IjIyIi8+PGVsbGlwc2UgY3g9IjMwMi43IiBjeT0iMzgiIGZpbGw9IiNCNEE3RTUiIHJ4PSIxMSIgcnk9IjExIiBzdHlsZT0ic3Ryb2tlOiMxODE4MTg7c3Ryb2tlLXdpZHRoOjE7Ii8+PHBhdGggZD0iTTMwNS44MjUsNDQgTDMwNS44MjUsNDIuMjUgTDMwMy43LDQyLjI1IFEzMDMuNyw0Mi4yNSAzMDMuNywzNC40Mzc1IEwzMDUuODI1LDM0LjQzNzUgTDMwNS44MjUsMzIuNjg3NSBMMjk5LjgyNSwzMi42ODc1IEwyOTkuODI1LDM0LjQzNzUgTDMwMS45NSwzNC40Mzc1IFEzMDEuOTUsMzQuNDM3NSAzMDEuOTUsNDIuMjUgTDI5OS44MjUsNDIuMjUgTDI5OS44MjUsNDQgTDMwNS44MjUsNDQgWiAiIGZpbGw9IiMwMDAwMDAiLz48dGV4dCBmaWxsPSIjMDAwMDAwIiBmb250LWZhbWlseT0ic2Fucy1zZXJpZiIgZm9udC1zaXplPSIxNCIgZm9udC1zdHlsZT0iaXRhbGljIiBsZW5ndGhBZGp1c3Q9InNwYWNpbmciIHRleHRMZW5ndGg9IjU2IiB4PSIzMjAuMyIgeT0iNDMuNzQyMiI+SUNvbW1hbmQ8L3RleHQ+PGxpbmUgc3R5bGU9InN0cm9rZTojMzMzMzMzO3N0cm9rZS13aWR0aDowLjU7IiB4MT0iMjcyLjUiIHgyPSIzOTQuNSIgeTE9IjU0IiB5Mj0iNTQiLz48bGluZSBzdHlsZT0ic3Ryb2tlOiMzMzMzMzM7c3Ryb2tlLXdpZHRoOjAuNTsiIHgxPSIyNzIuNSIgeDI9IjM5NC41IiB5MT0iNjIiIHkyPSI2MiIvPjx0ZXh0IGZpbGw9IiMwMDAwMDAiIGZvbnQtZmFtaWx5PSJzYW5zLXNlcmlmIiBmb250LXNpemU9IjE0IiBsZW5ndGhBZGp1c3Q9InNwYWNpbmciIHRleHRMZW5ndGg9IjExMiIgeD0iMjc3LjUiIHk9Ijc5LjIzNDQiPitFeGVjdXRlKCk6IHZvaWQ8L3RleHQ+PHRleHQgZmlsbD0iIzAwMDAwMCIgZm9udC1mYW1pbHk9InNhbnMtc2VyaWYiIGZvbnQtc2l6ZT0iMTQiIGxlbmd0aEFkanVzdD0ic3BhY2luZyIgdGV4dExlbmd0aD0iOTEiIHg9IjI3Ny41IiB5PSI5NC4yMTg4Ij4rVW5kbygpOiB2b2lkPC90ZXh0PjwvZz48IS0tY2xhc3MgTW92ZUNvbW1hbmQtLT48ZyBjbGFzcz0iZW50aXR5IiBkYXRhLWVudGl0eT0iTW92ZUNvbW1hbmQiIGRhdGEtc291cmNlLWxpbmU9IjYxIiBkYXRhLXVpZD0iZW50MDAxMSIgaWQ9ImVudGl0eV9Nb3ZlQ29tbWFuZCI+PHJlY3QgZmlsbD0iI0ZGRkZGRiIgaGVpZ2h0PSIxMzcuOTA2MyIgcng9IjIuNSIgcnk9IjIuNSIgc3R5bGU9InN0cm9rZTojMzMzMzMzO3N0cm9rZS13aWR0aDowLjU7IiB3aWR0aD0iMTczIiB4PSIyNDciIHk9IjE3NSIvPjxlbGxpcHNlIGN4PSIyOTAuOCIgY3k9IjE5MSIgZmlsbD0iI0FERDFCMiIgcng9IjExIiByeT0iMTEiIHN0eWxlPSJzdHJva2U6IzE4MTgxODtzdHJva2Utd2lkdGg6MTsiLz48cGF0aCBkPSJNMjg4LjQyNSwxOTUuMjUgTDI4OC40MjUsMTk3IEwyOTMuMzYyNSwxOTcgTDI5My4zNjI1LDE5NS4yNSBMMjg4LjQyNSwxOTUuMjUgWiBNMjg5LjExMjUsMTk1LjkzNzUgUTI4OS4xMTI1LDE5NS45Mzc1IDI4OS4xMTI1LDE4Ni43NSBMMjg3LjM2MjUsMTg2Ljc1IFEyODcuMzYyNSwxODYuNzUgMjg3LjM2MjUsMTk1LjkzNzUgTDI4OS4xMTI1LDE5NS45Mzc1IFogTTI5Mi42NzUsMTk1LjkzNzUgTDI5NC40MjUsMTk1LjkzNzUgUTI5NC40MjUsMTk1LjkzNzUgMjk0LjQyNSwxOTMuMTI1IEwyOTIuNjc1LDE5My4xMjUgUTI5Mi42NzUsMTkzLjEyNSAyOTIuNjc1LDE5NS45Mzc1IFogTTI5Mi42NzUsMTg2Ljc1IFEyOTIuNjc1LDE4Ni43NSAyOTIuNjc1LDE4OS41NjI1IEwyOTQuNDI1LDE4OS41NjI1IFEyOTQuNDI1LDE4OS41NjI1IDI5NC40MjUsMTg2Ljc1IEwyOTIuNjc1LDE4Ni43NSBaIE0yODguNDI1LDE4Ny40Mzc1IEwyOTMuMzYyNSwxODcuNDM3NSBMMjkzLjM2MjUsMTg1LjY4NzUgTDI4OC40MjUsMTg1LjY4NzUgTDI4OC40MjUsMTg3LjQzNzUgWiAiIGZpbGw9IiMwMDAwMDAiLz48dGV4dCBmaWxsPSIjMDAwMDAwIiBmb250LWZhbWlseT0ic2Fucy1zZXJpZiIgZm9udC1zaXplPSIxNCIgbGVuZ3RoQWRqdXN0PSJzcGFjaW5nIiB0ZXh0TGVuZ3RoPSI3NyIgeD0iMzExLjIiIHk9IjE5Ni43NDIyIj5Nb3ZlQ29tbWFuZDwvdGV4dD48bGluZSBzdHlsZT0ic3Ryb2tlOiMzMzMzMzM7c3Ryb2tlLXdpZHRoOjAuNTsiIHgxPSIyNDgiIHgyPSI0MTkiIHkxPSIyMDciIHkyPSIyMDciLz48dGV4dCBmaWxsPSIjMDAwMDAwIiBmb250LWZhbWlseT0ic2Fucy1zZXJpZiIgZm9udC1zaXplPSIxNCIgbGVuZ3RoQWRqdXN0PSJzcGFjaW5nIiB0ZXh0TGVuZ3RoPSIxNDciIHg9IjI1MyIgeT0iMjI0LjIzNDQiPi1fbWF0Y2g6IE1hdGNoU2VydmljZTwvdGV4dD48dGV4dCBmaWxsPSIjMDAwMDAwIiBmb250LWZhbWlseT0ic2Fucy1zZXJpZiIgZm9udC1zaXplPSIxNCIgbGVuZ3RoQWRqdXN0PSJzcGFjaW5nIiB0ZXh0TGVuZ3RoPSI4NCIgeD0iMjUzIiB5PSIyMzkuMjE4OCI+LV9tb3ZlOiBNb3ZlPC90ZXh0Pjx0ZXh0IGZpbGw9IiMwMDAwMDAiIGZvbnQtZmFtaWx5PSJzYW5zLXNlcmlmIiBmb250LXNpemU9IjE0IiBsZW5ndGhBZGp1c3Q9InNwYWNpbmciIHRleHRMZW5ndGg9IjE0MCIgeD0iMjUzIiB5PSIyNTQuMjAzMSI+LV9iZWZvcmU6IEJvYXJkU3RhdGU8L3RleHQ+PHRleHQgZmlsbD0iIzAwMDAwMCIgZm9udC1mYW1pbHk9InNhbnMtc2VyaWYiIGZvbnQtc2l6ZT0iMTQiIGxlbmd0aEFkanVzdD0ic3BhY2luZyIgdGV4dExlbmd0aD0iMTYxIiB4PSIyNTMiIHk9IjI2OS4xODc1Ij4tX3ByZXZTaWRlOiBQbGF5ZXJDb2xvcjwvdGV4dD48bGluZSBzdHlsZT0ic3Ryb2tlOiMzMzMzMzM7c3Ryb2tlLXdpZHRoOjAuNTsiIHgxPSIyNDgiIHgyPSI0MTkiIHkxPSIyNzQuOTM3NSIgeTI9IjI3NC45Mzc1Ii8+PHRleHQgZmlsbD0iIzAwMDAwMCIgZm9udC1mYW1pbHk9InNhbnMtc2VyaWYiIGZvbnQtc2l6ZT0iMTQiIGxlbmd0aEFkanVzdD0ic3BhY2luZyIgdGV4dExlbmd0aD0iMTEyIiB4PSIyNTMiIHk9IjI5Mi4xNzE5Ij4rRXhlY3V0ZSgpOiB2b2lkPC90ZXh0Pjx0ZXh0IGZpbGw9IiMwMDAwMDAiIGZvbnQtZmFtaWx5PSJzYW5zLXNlcmlmIiBmb250LXNpemU9IjE0IiBsZW5ndGhBZGp1c3Q9InNwYWNpbmciIHRleHRMZW5ndGg9IjkxIiB4PSIyNTMiIHk9IjMwNy4xNTYzIj4rVW5kbygpOiB2b2lkPC90ZXh0PjwvZz48IS0tY2xhc3MgSUdhbWVDbG9jay0tPjxnIGNsYXNzPSJlbnRpdHkiIGRhdGEtZW50aXR5PSJJR2FtZUNsb2NrIiBkYXRhLXNvdXJjZS1saW5lPSI3MSIgZGF0YS11aWQ9ImVudDAwMTMiIGlkPSJlbnRpdHlfSUdhbWVDbG9jayI+PHJlY3QgZmlsbD0iI0ZGRkZGRiIgaGVpZ2h0PSIxMDcuOTM3NSIgcng9IjIuNSIgcnk9IjIuNSIgc3R5bGU9InN0cm9rZTojMzMzMzMzO3N0cm9rZS13aWR0aDowLjU7IiB3aWR0aD0iMzk3IiB4PSI0MzEiIHk9IjciLz48ZWxsaXBzZSBjeD0iNTkwLjI1IiBjeT0iMjMiIGZpbGw9IiNCNEE3RTUiIHJ4PSIxMSIgcnk9IjExIiBzdHlsZT0ic3Ryb2tlOiMxODE4MTg7c3Ryb2tlLXdpZHRoOjE7Ii8+PHBhdGggZD0iTTU5My4zNzUsMjkgTDU5My4zNzUsMjcuMjUgTDU5MS4yNSwyNy4yNSBRNTkxLjI1LDI3LjI1IDU5MS4yNSwxOS40Mzc1IEw1OTMuMzc1LDE5LjQzNzUgTDU5My4zNzUsMTcuNjg3NSBMNTg3LjM3NSwxNy42ODc1IEw1ODcuMzc1LDE5LjQzNzUgTDU4OS41LDE5LjQzNzUgUTU4OS41LDE5LjQzNzUgNTg5LjUsMjcuMjUgTDU4Ny4zNzUsMjcuMjUgTDU4Ny4zNzUsMjkgTDU5My4zNzUsMjkgWiAiIGZpbGw9IiMwMDAwMDAiLz48dGV4dCBmaWxsPSIjMDAwMDAwIiBmb250LWZhbWlseT0ic2Fucy1zZXJpZiIgZm9udC1zaXplPSIxNCIgZm9udC1zdHlsZT0iaXRhbGljIiBsZW5ndGhBZGp1c3Q9InNwYWNpbmciIHRleHRMZW5ndGg9IjcwIiB4PSI2MTAuNzUiIHk9IjI4Ljc0MjIiPklHYW1lQ2xvY2s8L3RleHQ+PGxpbmUgc3R5bGU9InN0cm9rZTojMzMzMzMzO3N0cm9rZS13aWR0aDowLjU7IiB4MT0iNDMyIiB4Mj0iODI3IiB5MT0iMzkiIHkyPSIzOSIvPjxsaW5lIHN0eWxlPSJzdHJva2U6IzMzMzMzMztzdHJva2Utd2lkdGg6MC41OyIgeDE9IjQzMiIgeDI9IjgyNyIgeTE9IjQ3IiB5Mj0iNDciLz48dGV4dCBmaWxsPSIjMDAwMDAwIiBmb250LWZhbWlseT0ic2Fucy1zZXJpZiIgZm9udC1zaXplPSIxNCIgbGVuZ3RoQWRqdXN0PSJzcGFjaW5nIiB0ZXh0TGVuZ3RoPSIzODUiIHg9IjQzNyIgeT0iNjQuMjM0NCI+K1N0YXJ0VHVybihzaWRlOiBQbGF5ZXJDb2xvciwgdGltZUxlZnQ6IFRpbWVTcGFuKTogdm9pZDwvdGV4dD48dGV4dCBmaWxsPSIjMDAwMDAwIiBmb250LWZhbWlseT0ic2Fucy1zZXJpZiIgZm9udC1zaXplPSIxNCIgbGVuZ3RoQWRqdXN0PSJzcGFjaW5nIiB0ZXh0TGVuZ3RoPSI5MSIgeD0iNDM3IiB5PSI3OS4yMTg4Ij4rU3RvcCgpOiB2b2lkPC90ZXh0Pjx0ZXh0IGZpbGw9IiMwMDAwMDAiIGZvbnQtZmFtaWx5PSJzYW5zLXNlcmlmIiBmb250LXNpemU9IjE0IiBsZW5ndGhBZGp1c3Q9InNwYWNpbmciIHRleHRMZW5ndGg9IjI5NCIgeD0iNDM3IiB5PSI5NC4yMDMxIj4rT25UaWNrKHNpZGU6IFBsYXllckNvbG9yLCBsZWZ0OiBUaW1lU3Bhbik8L3RleHQ+PHRleHQgZmlsbD0iIzAwMDAwMCIgZm9udC1mYW1pbHk9InNhbnMtc2VyaWYiIGZvbnQtc2l6ZT0iMTQiIGxlbmd0aEFkanVzdD0ic3BhY2luZyIgdGV4dExlbmd0aD0iMTgyIiB4PSI0MzciIHk9IjEwOS4xODc1Ij4rT25GbGFnKHNpZGU6IFBsYXllckNvbG9yKTwvdGV4dD48L2c+PCEtLWNsYXNzIFVuaXR5R2FtZUNsb2NrLS0+PGcgY2xhc3M9ImVudGl0eSIgZGF0YS1lbnRpdHk9IlVuaXR5R2FtZUNsb2NrIiBkYXRhLXNvdXJjZS1saW5lPSI3NyIgZGF0YS11aWQ9ImVudDAwMTQiIGlkPSJlbnRpdHlfVW5pdHlHYW1lQ2xvY2siPjxyZWN0IGZpbGw9IiNGRkZGRkYiIGhlaWdodD0iNTMuODI4MSIgcng9IjIuNSIgcnk9IjIuNSIgc3R5bGU9InN0cm9rZTojMzMzMzMzO3N0cm9rZS13aWR0aDowLjU7IiB3aWR0aD0iMTY2IiB4PSI1NDYuNSIgeT0iMjE3Ii8+PGVsbGlwc2UgY3g9IjU2MS41IiBjeT0iMjM1LjkxNDEiIGZpbGw9IiNBREQxQjIiIHJ4PSIxMSIgcnk9IjExIiBzdHlsZT0ic3Ryb2tlOiMxODE4MTg7c3Ryb2tlLXdpZHRoOjE7Ii8+PHBhdGggZD0iTTU1OS4xMjUsMjQwLjE2NDEgTDU1OS4xMjUsMjQxLjkxNDEgTDU2NC4wNjI1LDI0MS45MTQxIEw1NjQuMDYyNSwyNDAuMTY0MSBMNTU5LjEyNSwyNDAuMTY0MSBaIE01NTkuODEyNSwyNDAuODUxNiBRNTU5LjgxMjUsMjQwLjg1MTYgNTU5LjgxMjUsMjMxLjY2NDEgTDU1OC4wNjI1LDIzMS42NjQxIFE1NTguMDYyNSwyMzEuNjY0MSA1NTguMDYyNSwyNDAuODUxNiBMNTU5LjgxMjUsMjQwLjg1MTYgWiBNNTYzLjM3NSwyNDAuODUxNiBMNTY1LjEyNSwyNDAuODUxNiBRNTY1LjEyNSwyNDAuODUxNiA1NjUuMTI1LDIzOC4wMzkxIEw1NjMuMzc1LDIzOC4wMzkxIFE1NjMuMzc1LDIzOC4wMzkxIDU2My4zNzUsMjQwLjg1MTYgWiBNNTYzLjM3NSwyMzEuNjY0MSBRNTYzLjM3NSwyMzEuNjY0MSA1NjMuMzc1LDIzNC40NzY2IEw1NjUuMTI1LDIzNC40NzY2IFE1NjUuMTI1LDIzNC40NzY2IDU2NS4xMjUsMjMxLjY2NDEgTDU2My4zNzUsMjMxLjY2NDEgWiBNNTU5LjEyNSwyMzIuMzUxNiBMNTY0LjA2MjUsMjMyLjM1MTYgTDU2NC4wNjI1LDIzMC42MDE2IEw1NTkuMTI1LDIzMC42MDE2IEw1NTkuMTI1LDIzMi4zNTE2IFogIiBmaWxsPSIjMDAwMDAwIi8+PHRleHQgZmlsbD0iIzAwMDAwMCIgZm9udC1mYW1pbHk9InNhbnMtc2VyaWYiIGZvbnQtc2l6ZT0iMTIiIGZvbnQtc3R5bGU9Iml0YWxpYyIgbGVuZ3RoQWRqdXN0PSJzcGFjaW5nIiB0ZXh0TGVuZ3RoPSIxMzgiIHg9IjU3My41IiB5PSIyMzMuMzQzOCI+JiMxNzE7TW9ub0JlaGF2aW91ciBBZGFwdGVyJiMxODc7PC90ZXh0Pjx0ZXh0IGZpbGw9IiMwMDAwMDAiIGZvbnQtZmFtaWx5PSJzYW5zLXNlcmlmIiBmb250LXNpemU9IjE0IiBsZW5ndGhBZGp1c3Q9InNwYWNpbmciIHRleHRMZW5ndGg9Ijk4IiB4PSI1OTMuNSIgeT0iMjQ4LjA3ODEiPlVuaXR5R2FtZUNsb2NrPC90ZXh0PjxsaW5lIHN0eWxlPSJzdHJva2U6IzMzMzMzMztzdHJva2Utd2lkdGg6MC41OyIgeDE9IjU0Ny41IiB4Mj0iNzExLjUiIHkxPSIyNTQuODI4MSIgeTI9IjI1NC44MjgxIi8+PGxpbmUgc3R5bGU9InN0cm9rZTojMzMzMzMzO3N0cm9rZS13aWR0aDowLjU7IiB4MT0iNTQ3LjUiIHgyPSI3MTEuNSIgeTE9IjI2Mi44MjgxIiB5Mj0iMjYyLjgyODEiLz48L2c+PCEtLWNsYXNzIElUd2VlblNlcnZpY2UtLT48ZyBjbGFzcz0iZW50aXR5IiBkYXRhLWVudGl0eT0iSVR3ZWVuU2VydmljZSIgZGF0YS1zb3VyY2UtbGluZT0iODAiIGRhdGEtdWlkPSJlbnQwMDE2IiBpZD0iZW50aXR5X0lUd2VlblNlcnZpY2UiPjxyZWN0IGZpbGw9IiNGRkZGRkYiIGhlaWdodD0iNzcuOTY4OCIgcng9IjIuNSIgcnk9IjIuNSIgc3R5bGU9InN0cm9rZTojMzMzMzMzO3N0cm9rZS13aWR0aDowLjU7IiB3aWR0aD0iNDg4IiB4PSI4NjMuNSIgeT0iMjIiLz48ZWxsaXBzZSBjeD0iMTA1Ny43NSIgY3k9IjM4IiBmaWxsPSIjQjRBN0U1IiByeD0iMTEiIHJ5PSIxMSIgc3R5bGU9InN0cm9rZTojMTgxODE4O3N0cm9rZS13aWR0aDoxOyIvPjxwYXRoIGQ9Ik0xMDYwLjg3NSw0NCBMMTA2MC44NzUsNDIuMjUgTDEwNTguNzUsNDIuMjUgUTEwNTguNzUsNDIuMjUgMTA1OC43NSwzNC40Mzc1IEwxMDYwLjg3NSwzNC40Mzc1IEwxMDYwLjg3NSwzMi42ODc1IEwxMDU0Ljg3NSwzMi42ODc1IEwxMDU0Ljg3NSwzNC40Mzc1IEwxMDU3LDM0LjQzNzUgUTEwNTcsMzQuNDM3NSAxMDU3LDQyLjI1IEwxMDU0Ljg3NSw0Mi4yNSBMMTA1NC44NzUsNDQgTDEwNjAuODc1LDQ0IFogIiBmaWxsPSIjMDAwMDAwIi8+PHRleHQgZmlsbD0iIzAwMDAwMCIgZm9udC1mYW1pbHk9InNhbnMtc2VyaWYiIGZvbnQtc2l6ZT0iMTQiIGZvbnQtc3R5bGU9Iml0YWxpYyIgbGVuZ3RoQWRqdXN0PSJzcGFjaW5nIiB0ZXh0TGVuZ3RoPSI5MSIgeD0iMTA3OC4yNSIgeT0iNDMuNzQyMiI+SVR3ZWVuU2VydmljZTwvdGV4dD48bGluZSBzdHlsZT0ic3Ryb2tlOiMzMzMzMzM7c3Ryb2tlLXdpZHRoOjAuNTsiIHgxPSI4NjQuNSIgeDI9IjEzNTAuNSIgeTE9IjU0IiB5Mj0iNTQiLz48bGluZSBzdHlsZT0ic3Ryb2tlOiMzMzMzMzM7c3Ryb2tlLXdpZHRoOjAuNTsiIHgxPSI4NjQuNSIgeDI9IjEzNTAuNSIgeTE9IjYyIiB5Mj0iNjIiLz48dGV4dCBmaWxsPSIjMDAwMDAwIiBmb250LWZhbWlseT0ic2Fucy1zZXJpZiIgZm9udC1zaXplPSIxNCIgbGVuZ3RoQWRqdXN0PSJzcGFjaW5nIiB0ZXh0TGVuZ3RoPSI0NzYiIHg9Ijg2OS41IiB5PSI3OS4yMzQ0Ij4rTW92ZVBpZWNlKHZpZXc6IG9iamVjdCwgdG86IFZlY3RvcjMsIHRpbWU6IGZsb2F0LCBvbkNvbXBsZXRlPyk6IGludDwvdGV4dD48dGV4dCBmaWxsPSIjMDAwMDAwIiBmb250LWZhbWlseT0ic2Fucy1zZXJpZiIgZm9udC1zaXplPSIxNCIgbGVuZ3RoQWRqdXN0PSJzcGFjaW5nIiB0ZXh0TGVuZ3RoPSIzOTIiIHg9Ijg2OS41IiB5PSI5NC4yMTg4Ij4rTW92ZUNhbWVyYSh0OiBUcmFuc2Zvcm0sIHRvOiBWZWN0b3IzLCB0aW1lOiBmbG9hdCk6IGludDwvdGV4dD48L2c+PCEtLWNsYXNzIExlYW5Ud2VlblNlcnZpY2UtLT48ZyBjbGFzcz0iZW50aXR5IiBkYXRhLWVudGl0eT0iTGVhblR3ZWVuU2VydmljZSIgZGF0YS1zb3VyY2UtbGluZT0iODQiIGRhdGEtdWlkPSJlbnQwMDE3IiBpZD0iZW50aXR5X0xlYW5Ud2VlblNlcnZpY2UiPjxyZWN0IGZpbGw9IiNGRkZGRkYiIGhlaWdodD0iNDgiIHJ4PSIyLjUiIHJ5PSIyLjUiIHN0eWxlPSJzdHJva2U6IzMzMzMzMztzdHJva2Utd2lkdGg6MC41OyIgd2lkdGg9IjE0NCIgeD0iMTAzNS41IiB5PSIyMjAiLz48ZWxsaXBzZSBjeD0iMTA1MC41IiBjeT0iMjM2IiBmaWxsPSIjQUREMUIyIiByeD0iMTEiIHJ5PSIxMSIgc3R5bGU9InN0cm9rZTojMTgxODE4O3N0cm9rZS13aWR0aDoxOyIvPjxwYXRoIGQ9Ik0xMDQ4LjEyNSwyNDAuMjUgTDEwNDguMTI1LDI0MiBMMTA1My4wNjI1LDI0MiBMMTA1My4wNjI1LDI0MC4yNSBMMTA0OC4xMjUsMjQwLjI1IFogTTEwNDguODEyNSwyNDAuOTM3NSBRMTA0OC44MTI1LDI0MC45Mzc1IDEwNDguODEyNSwyMzEuNzUgTDEwNDcuMDYyNSwyMzEuNzUgUTEwNDcuMDYyNSwyMzEuNzUgMTA0Ny4wNjI1LDI0MC45Mzc1IEwxMDQ4LjgxMjUsMjQwLjkzNzUgWiBNMTA1Mi4zNzUsMjQwLjkzNzUgTDEwNTQuMTI1LDI0MC45Mzc1IFExMDU0LjEyNSwyNDAuOTM3NSAxMDU0LjEyNSwyMzguMTI1IEwxMDUyLjM3NSwyMzguMTI1IFExMDUyLjM3NSwyMzguMTI1IDEwNTIuMzc1LDI0MC45Mzc1IFogTTEwNTIuMzc1LDIzMS43NSBRMTA1Mi4zNzUsMjMxLjc1IDEwNTIuMzc1LDIzNC41NjI1IEwxMDU0LjEyNSwyMzQuNTYyNSBRMTA1NC4xMjUsMjM0LjU2MjUgMTA1NC4xMjUsMjMxLjc1IEwxMDUyLjM3NSwyMzEuNzUgWiBNMTA0OC4xMjUsMjMyLjQzNzUgTDEwNTMuMDYyNSwyMzIuNDM3NSBMMTA1My4wNjI1LDIzMC42ODc1IEwxMDQ4LjEyNSwyMzAuNjg3NSBMMTA0OC4xMjUsMjMyLjQzNzUgWiAiIGZpbGw9IiMwMDAwMDAiLz48dGV4dCBmaWxsPSIjMDAwMDAwIiBmb250LWZhbWlseT0ic2Fucy1zZXJpZiIgZm9udC1zaXplPSIxNCIgbGVuZ3RoQWRqdXN0PSJzcGFjaW5nIiB0ZXh0TGVuZ3RoPSIxMTIiIHg9IjEwNjQuNSIgeT0iMjQxLjc0MjIiPkxlYW5Ud2VlblNlcnZpY2U8L3RleHQ+PGxpbmUgc3R5bGU9InN0cm9rZTojMzMzMzMzO3N0cm9rZS13aWR0aDowLjU7IiB4MT0iMTAzNi41IiB4Mj0iMTE3OC41IiB5MT0iMjUyIiB5Mj0iMjUyIi8+PGxpbmUgc3R5bGU9InN0cm9rZTojMzMzMzMzO3N0cm9rZS13aWR0aDowLjU7IiB4MT0iMTAzNi41IiB4Mj0iMTE3OC41IiB5MT0iMjYwIiB5Mj0iMjYwIi8+PC9nPjwhLS1yZXZlcnNlIGxpbmsgSVJ1bGVzIHRvIEFtZXJpY2FuUnVsZXMtLT48ZyBjbGFzcz0ibGluayIgZGF0YS1lbnRpdHktMT0iSVJ1bGVzIiBkYXRhLWVudGl0eS0yPSJBbWVyaWNhblJ1bGVzIiBkYXRhLXNvdXJjZS1saW5lPSI0MiIgZGF0YS11aWQ9ImxuazgiIGlkPSJsaW5rX0lSdWxlc19BbWVyaWNhblJ1bGVzIj48cGF0aCBjb2RlTGluZT0iNDIiIGQ9Ik00NTIuNzE2Nyw3MDMuNzc0NiBDNDM1LjQ1NjcsNzIzLjI5NDYgNDI2Ljk0LDczMi45MiA0MTIuMDcsNzQ5Ljc0IiBmaWxsPSJub25lIiBpZD0iSVJ1bGVzLWJhY2t0by1BbWVyaWNhblJ1bGVzIiBzdHlsZT0ic3Ryb2tlOiM2NjY2NjY7c3Ryb2tlLXdpZHRoOjE7c3Ryb2tlLWRhc2hhcnJheTo3LjAsNy4wOyIvPjxwb2x5Z29uIGZpbGw9Im5vbmUiIHBvaW50cz0iNDY0LjY0LDY5MC4yOSw0NDguMjIxOCw2OTkuODAwMSw0NTcuMjExNSw3MDcuNzQ5LDQ2NC42NCw2OTAuMjkiIHN0eWxlPSJzdHJva2U6IzY2NjY2NjtzdHJva2Utd2lkdGg6MTsiLz48L2c+PCEtLXJldmVyc2UgbGluayBJQ29tbWFuZCB0byBNb3ZlQ29tbWFuZC0tPjxnIGNsYXNzPSJsaW5rIiBkYXRhLWVudGl0eS0xPSJJQ29tbWFuZCIgZGF0YS1lbnRpdHktMj0iTW92ZUNvbW1hbmQiIGRhdGEtc291cmNlLWxpbmU9IjY5IiBkYXRhLXVpZD0ibG5rMTIiIGlkPSJsaW5rX0lDb21tYW5kX01vdmVDb21tYW5kIj48cGF0aCBjb2RlTGluZT0iNjkiIGQ9Ik0zMzMuNSwxMTguMzkgQzMzMy41LDEzOS45NyAzMzMuNSwxNDkuNTUgMzMzLjUsMTc0LjciIGZpbGw9Im5vbmUiIGlkPSJJQ29tbWFuZC1iYWNrdG8tTW92ZUNvbW1hbmQiIHN0eWxlPSJzdHJva2U6IzY2NjY2NjtzdHJva2Utd2lkdGg6MTtzdHJva2UtZGFzaGFycmF5OjcuMCw3LjA7Ii8+PHBvbHlnb24gZmlsbD0ibm9uZSIgcG9pbnRzPSIzMzMuNSwxMDAuMzksMzI3LjUsMTE4LjM5LDMzOS41LDExOC4zOSwzMzMuNSwxMDAuMzkiIHN0eWxlPSJzdHJva2U6IzY2NjY2NjtzdHJva2Utd2lkdGg6MTsiLz48L2c+PCEtLXJldmVyc2UgbGluayBJR2FtZUNsb2NrIHRvIFVuaXR5R2FtZUNsb2NrLS0+PGcgY2xhc3M9ImxpbmsiIGRhdGEtZW50aXR5LTE9IklHYW1lQ2xvY2siIGRhdGEtZW50aXR5LTI9IlVuaXR5R2FtZUNsb2NrIiBkYXRhLXNvdXJjZS1saW5lPSI3OCIgZGF0YS11aWQ9ImxuazE1IiBpZD0ibGlua19JR2FtZUNsb2NrX1VuaXR5R2FtZUNsb2NrIj48cGF0aCBjb2RlTGluZT0iNzgiIGQ9Ik02MjkuNSwxMzMuMzMgQzYyOS41LDE2Ni43IDYyOS41LDE5MC4yMyA2MjkuNSwyMTYuNjgiIGZpbGw9Im5vbmUiIGlkPSJJR2FtZUNsb2NrLWJhY2t0by1Vbml0eUdhbWVDbG9jayIgc3R5bGU9InN0cm9rZTojNjY2NjY2O3N0cm9rZS13aWR0aDoxO3N0cm9rZS1kYXNoYXJyYXk6Ny4wLDcuMDsiLz48cG9seWdvbiBmaWxsPSJub25lIiBwb2ludHM9IjYyOS41LDExNS4zMyw2MjMuNSwxMzMuMzMsNjM1LjUsMTMzLjMzLDYyOS41LDExNS4zMyIgc3R5bGU9InN0cm9rZTojNjY2NjY2O3N0cm9rZS13aWR0aDoxOyIvPjwvZz48IS0tcmV2ZXJzZSBsaW5rIElUd2VlblNlcnZpY2UgdG8gTGVhblR3ZWVuU2VydmljZS0tPjxnIGNsYXNzPSJsaW5rIiBkYXRhLWVudGl0eS0xPSJJVHdlZW5TZXJ2aWNlIiBkYXRhLWVudGl0eS0yPSJMZWFuVHdlZW5TZXJ2aWNlIiBkYXRhLXNvdXJjZS1saW5lPSI4NSIgZGF0YS11aWQ9ImxuazE4IiBpZD0ibGlua19JVHdlZW5TZXJ2aWNlX0xlYW5Ud2VlblNlcnZpY2UiPjxwYXRoIGNvZGVMaW5lPSI4NSIgZD0iTTExMDcuNSwxMTguMzkgQzExMDcuNSwxNTQuNiAxMTA3LjUsMTg5LjcxIDExMDcuNSwyMTkuODUiIGZpbGw9Im5vbmUiIGlkPSJJVHdlZW5TZXJ2aWNlLWJhY2t0by1MZWFuVHdlZW5TZXJ2aWNlIiBzdHlsZT0ic3Ryb2tlOiM2NjY2NjY7c3Ryb2tlLXdpZHRoOjE7c3Ryb2tlLWRhc2hhcnJheTo3LjAsNy4wOyIvPjxwb2x5Z29uIGZpbGw9Im5vbmUiIHBvaW50cz0iMTEwNy41LDEwMC4zOSwxMTAxLjUsMTE4LjM5LDExMTMuNSwxMTguMzksMTEwNy41LDEwMC4zOSIgc3R5bGU9InN0cm9rZTojNjY2NjY2O3N0cm9rZS13aWR0aDoxOyIvPjwvZz48IS0tbGluayBBbWVyaWNhblJ1bGVzIHRvIEJvYXJkU3RhdGUtLT48ZyBjbGFzcz0ibGluayIgZGF0YS1lbnRpdHktMT0iQW1lcmljYW5SdWxlcyIgZGF0YS1lbnRpdHktMj0iQm9hcmRTdGF0ZSIgZGF0YS1zb3VyY2UtbGluZT0iODciIGRhdGEtdWlkPSJsbmsxOSIgaWQ9ImxpbmtfQW1lcmljYW5SdWxlc19Cb2FyZFN0YXRlIj48cGF0aCBjb2RlTGluZT0iODciIGQ9Ik0zNjcuNTEsNzk4LjA1IEMzNTAuOTcsODEzLjkzIDMzMi4zMDY5LDgzMS44NjMzIDMwOS42NzY5LDg1My42MDMzIiBmaWxsPSJub25lIiBpZD0iQW1lcmljYW5SdWxlcy10by1Cb2FyZFN0YXRlIiBzdHlsZT0ic3Ryb2tlOiM2NjY2NjY7c3Ryb2tlLXdpZHRoOjE7Ii8+PHBvbHlnb24gZmlsbD0iIzY2NjY2NiIgcG9pbnRzPSIzMDUuMzUsODU3Ljc2LDMxNC42MTE0LDg1NC40MDk1LDMwOC45NTU3LDg1NC4yOTYxLDMwOS4wNjkyLDg0OC42NDA0LDMwNS4zNSw4NTcuNzYiIHN0eWxlPSJzdHJva2U6IzY2NjY2NjtzdHJva2Utd2lkdGg6MTsiLz48L2c+PCEtLWxpbmsgTWF0Y2hTZXJ2aWNlIHRvIElSdWxlcy0tPjxnIGNsYXNzPSJsaW5rIiBkYXRhLWVudGl0eS0xPSJNYXRjaFNlcnZpY2UiIGRhdGEtZW50aXR5LTI9IklSdWxlcyIgZGF0YS1zb3VyY2UtbGluZT0iODgiIGRhdGEtdWlkPSJsbmsyMCIgaWQ9ImxpbmtfTWF0Y2hTZXJ2aWNlX0lSdWxlcyI+PHBhdGggY29kZUxpbmU9Ijg4IiBkPSJNNDExLjg5LDU1Mi4xMSBDNDMwLjUyLDU3My4xNiA0NDUuNDQzOCw1OTAuMDM2NyA0NjAuODIzOCw2MDcuNDE2NyIgZmlsbD0ibm9uZSIgaWQ9Ik1hdGNoU2VydmljZS10by1JUnVsZXMiIHN0eWxlPSJzdHJva2U6IzY2NjY2NjtzdHJva2Utd2lkdGg6MTsiLz48cG9seWdvbiBmaWxsPSIjNjY2NjY2IiBwb2ludHM9IjQ2NC44LDYxMS45MSw0NjEuODMxMiw2MDIuNTE5Myw0NjEuNDg2NSw2MDguMTY1Niw0NTUuODQwMSw2MDcuODIwOSw0NjQuOCw2MTEuOTEiIHN0eWxlPSJzdHJva2U6IzY2NjY2NjtzdHJva2Utd2lkdGg6MTsiLz48L2c+PCEtLWxpbmsgTWF0Y2hTZXJ2aWNlIHRvIEJvYXJkU3RhdGUtLT48ZyBjbGFzcz0ibGluayIgZGF0YS1lbnRpdHktMT0iTWF0Y2hTZXJ2aWNlIiBkYXRhLWVudGl0eS0yPSJCb2FyZFN0YXRlIiBkYXRhLXNvdXJjZS1saW5lPSI4OSIgZGF0YS11aWQ9ImxuazIxIiBpZD0ibGlua19NYXRjaFNlcnZpY2VfQm9hcmRTdGF0ZSI+PHBhdGggY29kZUxpbmU9Ijg5IiBkPSJNMjM5Ljg4LDU1Mi4yNyBDMjI1LjgxLDU3MC41NyAyMTMuMzgsNTkwLjc4IDIwNS41LDYxMiBDMTc1Ljc1LDY5Mi4wOSAxODcuNjIzMiw3ODUuMjI1NCAyMDMuMTMzMiw4NTIuMDM1NCIgZmlsbD0ibm9uZSIgaWQ9Ik1hdGNoU2VydmljZS10by1Cb2FyZFN0YXRlIiBzdHlsZT0ic3Ryb2tlOiM2NjY2NjY7c3Ryb2tlLXdpZHRoOjE7Ii8+PHBvbHlnb24gZmlsbD0iIzY2NjY2NiIgcG9pbnRzPSIyMDQuNDksODU3Ljg4LDIwNi4zNTExLDg0OC4yMDg2LDIwMy4zNTkzLDg1My4wMDk1LDE5OC41NTg0LDg1MC4wMTc3LDIwNC40OSw4NTcuODgiIHN0eWxlPSJzdHJva2U6IzY2NjY2NjtzdHJva2Utd2lkdGg6MTsiLz48L2c+PCEtLWxpbmsgTW92ZUNvbW1hbmQgdG8gTWF0Y2hTZXJ2aWNlLS0+PGcgY2xhc3M9ImxpbmsiIGRhdGEtZW50aXR5LTE9Ik1vdmVDb21tYW5kIiBkYXRhLWVudGl0eS0yPSJNYXRjaFNlcnZpY2UiIGRhdGEtc291cmNlLWxpbmU9IjkwIiBkYXRhLXVpZD0ibG5rMjIiIGlkPSJsaW5rX01vdmVDb21tYW5kX01hdGNoU2VydmljZSI+PHBhdGggY29kZUxpbmU9IjkwIiBkPSJNMzMzLjUsMzEzLjIgQzMzMy41LDMzMi4xNyAzMzMuNSwzNDcuMDQgMzMzLjUsMzY2Ljk5IiBmaWxsPSJub25lIiBpZD0iTW92ZUNvbW1hbmQtdG8tTWF0Y2hTZXJ2aWNlIiBzdHlsZT0ic3Ryb2tlOiM2NjY2NjY7c3Ryb2tlLXdpZHRoOjE7Ii8+PHBvbHlnb24gZmlsbD0iIzY2NjY2NiIgcG9pbnRzPSIzMzMuNSwzNzIuOTksMzM3LjUsMzYzLjk5LDMzMy41LDM2Ny45OSwzMjkuNSwzNjMuOTksMzMzLjUsMzcyLjk5IiBzdHlsZT0ic3Ryb2tlOiM2NjY2NjY7c3Ryb2tlLXdpZHRoOjE7Ii8+PC9nPjwhLS1saW5rIE1vdmUgdG8gQ29vcmQtLT48ZyBjbGFzcz0ibGluayIgZGF0YS1lbnRpdHktMT0iTW92ZSIgZGF0YS1lbnRpdHktMj0iQ29vcmQiIGRhdGEtc291cmNlLWxpbmU9IjkxIiBkYXRhLXVpZD0ibG5rMjMiIGlkPSJsaW5rX01vdmVfQ29vcmQiPjxwYXRoIGNvZGVMaW5lPSI5MSIgZD0iTTEyMS41LDEwNy42NyBDMTIxLjUsMTM1LjExIDEyMS41LDE2My45MSAxMjEuNSwxOTEuMzQiIGZpbGw9Im5vbmUiIGlkPSJNb3ZlLXRvLUNvb3JkIiBzdHlsZT0ic3Ryb2tlOiM2NjY2NjY7c3Ryb2tlLXdpZHRoOjE7Ii8+PHBvbHlnb24gZmlsbD0iIzY2NjY2NiIgcG9pbnRzPSIxMjEuNSwxOTcuMzQsMTI1LjUsMTg4LjM0LDEyMS41LDE5Mi4zNCwxMTcuNSwxODguMzQsMTIxLjUsMTk3LjM0IiBzdHlsZT0ic3Ryb2tlOiM2NjY2NjY7c3Ryb2tlLXdpZHRoOjE7Ii8+PC9nPjwhLS1saW5rIEJvYXJkU3RhdGUgdG8gUGllY2UtLT48ZyBjbGFzcz0ibGluayIgZGF0YS1lbnRpdHktMT0iQm9hcmRTdGF0ZSIgZGF0YS1lbnRpdHktMj0iUGllY2UiIGRhdGEtc291cmNlLWxpbmU9IjkyIiBkYXRhLXVpZD0ibG5rMjQiIGlkPSJsaW5rX0JvYXJkU3RhdGVfUGllY2UiPjxwYXRoIGNvZGVMaW5lPSI5MiIgZD0iTTIyNi41LDEwMTEuMjEgQzIyNi41LDEwMzEuNDYgMjI2LjUsMTA0Ni43MiAyMjYuNSwxMDY0Ljc5IiBmaWxsPSJub25lIiBpZD0iQm9hcmRTdGF0ZS10by1QaWVjZSIgc3R5bGU9InN0cm9rZTojNjY2NjY2O3N0cm9rZS13aWR0aDoxOyIvPjxwb2x5Z29uIGZpbGw9IiM2NjY2NjYiIHBvaW50cz0iMjI2LjUsMTA3MC43OSwyMzAuNSwxMDYxLjc5LDIyNi41LDEwNjUuNzksMjIyLjUsMTA2MS43OSwyMjYuNSwxMDcwLjc5IiBzdHlsZT0ic3Ryb2tlOiM2NjY2NjY7c3Ryb2tlLXdpZHRoOjE7Ii8+PC9nPjwhLS1TUkM9W1pMTEhSemVtNDd4Rmh4MnFidzAyY2VIS0xMNTcxTW9UcTlZZTZoZXpKNURiYVdDeTRiX2NjMzJzelJfRjVtVllmNUpUY3RFLSAtX256dHZzVFYyamFuWExGTVBKbUYxemZoU0hvZnM0UWVHcDVSczFsbFJvUG1sdnVaOHJ2ajVxaHRDYnVXV2FnemRLWkQ1MFNMR3BBbmp1QzFXRmxvSWFWQU9OeFFrX295akJwQkR1NEpMNjlVZDZGLXUwOWdNYmo0YV9oUVZ3VWdzdHVTeVNMMTZvOWMxWldnbG5FRzBJc1ZCd05lMDlzYl8xM0hPQVlkdUlDMHZqNm9uQlI0OTUtOXMwNVloWTYtZW41WE5JaEMwcWlDX2ZTZUZDbnVQZFVBSjJPcXRsV3lMbWNYdmQ4ek5NUENBcEhuaVhMNzZna0JNUGxoU0lIbnlzdGcteExUbThaWnFrUHgxc3hlZTBYN3U0VkxVVHJNTFFMN0NjSUl2MFFlZ1VTcFg2S3phWTJsd2hQVHZkNkVrLThDOUxad2J0a09mSWthaG00OVAwdEROX0lQMlkyTVhia0hsS2swSmk2NXBET3l1SkVwRnNiTXo1YmtPWVhxT2ZFc295ZzZ6aGtCYTJiR2xCYUxQMGttdnJjVW83UlpSeGZqRVRZYjg4STRQU2JNd3lZVlZzdHRzX2o3N2xGVFJHOUdITVljZ1JVdXZBT0Q3b1dnRWN6UkN6T3h0NVo1QTR3MUNtYUhqalFjc0ZHb21RQ2lZbXYtQVBiNUFkUnJFejMwTEJkX051dnRGOEVTdzQ1b2pVampsYzREaTRxNUxmM3g5X255ZFlZSlZfOEt2V05lRm9wemhQY1c3MnZoQXhqWHJ5R2NKVjNUb1JpR1NQdV9lQXZiUnQ3YjZtRjZreFJrQ2NxeDZtaE84THF6TGt6bzFHS09MbE5fcDR3QUlYN21ZN01hNGNVYzBpSFJRckdTeEJJMnBDMHZ6cEs4ZUtQaDdKMDVjT0xQYm13ZnVTUUN2VkROMnY0ajNxN2FwR1hSRjlqbWpWLWNKdV9MU08tSUE0RkRUYmhDcmlJbngzWFhTMlRPZ0ZPbDVjV1hhRmNFUDlBdlN0QVhsWjU3YTJ3TC1BWXpBYnlSRm4yVzdjaFNWYTM4Y3FWY0l6Y1hNZldaR1pPQWE1a1RiMFFOeEM0REQwTGhUdnB3eFN2TDc2Vm4yZWtTekZXejZNV2dsUWVUbVBTa2xJeTlqYklzUkNTaHQ3bk1ReXRURVVmeUczR2RkcW9kaVZUNmNVVVFRaW5ua05WWEFCc3AtN3kzWVhPa2xXRl0tLT48L2c+PC9zdmc+;" vertex="1" parent="1">
            <mxGeometry x="-1000" y="260" width="1358" height="1170" as="geometry" />
          </mxCell>
        </UserObject>
        <UserObject label="" plantUmlData="{&#xa;  &quot;data&quot;: &quot;@startuml Move-Sequence\nskinparam monochrome true\nactor Player\nparticipant \&quot;TileView\&quot; as Tile\nparticipant \&quot;GameBootstrap\&quot; as GB\nparticipant \&quot;MatchService\&quot; as MS\nparticipant \&quot;ITweenService\&quot; as Tween\n\nPlayer -&gt; Tile: Click(from)\nTile -&gt; GB: OnTileClicked(from)\nPlayer -&gt; Tile: Click(to)\nTile -&gt; GB: OnTileClicked(to)\nGB -&gt; MS: LegalMoves()\\n(find move from-&gt;to)\nMS --&gt; GB: list&lt;Move&gt;\nGB -&gt; Tween: MovePiece(pieceView, to, 0.2, onComplete)\nTween --&gt; GB: onComplete()\nGB -&gt; MS: Apply(move)\nMS -&gt; GB: OnPosition(board, sideToMove)\nGB -&gt; Player: Update UI / camera tween\n@enduml&quot;,&#xa;  &quot;format&quot;: &quot;svg&quot;&#xa;}" id="uP1VX3FrQpWZ977YDJ0q-4">
          <mxCell style="shape=image;noLabel=1;verticalAlign=top;aspect=fixed;imageAspect=0;image=data:image/svg+xml,PHN2ZyB4bWxucz0iaHR0cDovL3d3dy53My5vcmcvMjAwMC9zdmciIHhtbG5zOnhsaW5rPSJodHRwOi8vd3d3LnczLm9yZy8xOTk5L3hsaW5rIiBjb250ZW50U3R5bGVUeXBlPSJ0ZXh0L2NzcyIgZGF0YS1kaWFncmFtLXR5cGU9IlNFUVVFTkNFIiBoZWlnaHQ9IjUwMHB4IiBwcmVzZXJ2ZUFzcGVjdFJhdGlvPSJub25lIiBzdHlsZT0id2lkdGg6NjU0cHg7aGVpZ2h0OjUwMHB4O2JhY2tncm91bmQ6I0ZGRkZGRjsiIHZlcnNpb249IjEuMSIgdmlld0JveD0iMCAwIDY1NCA1MDAiIHdpZHRoPSI2NTRweCIgem9vbUFuZFBhbj0ibWFnbmlmeSI+PGRlZnMvPjxnPjxnPjx0aXRsZT5QbGF5ZXI8L3RpdGxlPjxyZWN0IGZpbGw9IiMwMDAwMDAiIGZpbGwtb3BhY2l0eT0iMC4wMDAwMCIgaGVpZ2h0PSIzNDAuOTY4OCIgd2lkdGg9IjgiIHg9IjI1IiB5PSI3OS45ODQ0Ii8+PGxpbmUgc3R5bGU9InN0cm9rZTojMTgxODE4O3N0cm9rZS13aWR0aDowLjU7c3Ryb2tlLWRhc2hhcnJheTo1LjAsNS4wOyIgeDE9IjI5IiB4Mj0iMjkiIHkxPSI3OS45ODQ0IiB5Mj0iNDIwLjk1MzEiLz48L2c+PGc+PHRpdGxlPlRpbGVWaWV3PC90aXRsZT48cmVjdCBmaWxsPSIjMDAwMDAwIiBmaWxsLW9wYWNpdHk9IjAuMDAwMDAiIGhlaWdodD0iMzQwLjk2ODgiIHdpZHRoPSI4IiB4PSIxMjAuNSIgeT0iNzkuOTg0NCIvPjxsaW5lIHN0eWxlPSJzdHJva2U6IzE4MTgxODtzdHJva2Utd2lkdGg6MC41O3N0cm9rZS1kYXNoYXJyYXk6NS4wLDUuMDsiIHgxPSIxMjQuNSIgeDI9IjEyNC41IiB5MT0iNzkuOTg0NCIgeTI9IjQyMC45NTMxIi8+PC9nPjxnPjx0aXRsZT5HYW1lQm9vdHN0cmFwPC90aXRsZT48cmVjdCBmaWxsPSIjMDAwMDAwIiBmaWxsLW9wYWNpdHk9IjAuMDAwMDAiIGhlaWdodD0iMzQwLjk2ODgiIHdpZHRoPSI4IiB4PSIyNjgiIHk9Ijc5Ljk4NDQiLz48bGluZSBzdHlsZT0ic3Ryb2tlOiMxODE4MTg7c3Ryb2tlLXdpZHRoOjAuNTtzdHJva2UtZGFzaGFycmF5OjUuMCw1LjA7IiB4MT0iMjcxLjUiIHgyPSIyNzEuNSIgeTE9Ijc5Ljk4NDQiIHkyPSI0MjAuOTUzMSIvPjwvZz48Zz48dGl0bGU+TWF0Y2hTZXJ2aWNlPC90aXRsZT48cmVjdCBmaWxsPSIjMDAwMDAwIiBmaWxsLW9wYWNpdHk9IjAuMDAwMDAiIGhlaWdodD0iMzQwLjk2ODgiIHdpZHRoPSI4IiB4PSI0ODAuNSIgeT0iNzkuOTg0NCIvPjxsaW5lIHN0eWxlPSJzdHJva2U6IzE4MTgxODtzdHJva2Utd2lkdGg6MC41O3N0cm9rZS1kYXNoYXJyYXk6NS4wLDUuMDsiIHgxPSI0ODQuNSIgeDI9IjQ4NC41IiB5MT0iNzkuOTg0NCIgeTI9IjQyMC45NTMxIi8+PC9nPjxnPjx0aXRsZT5JVHdlZW5TZXJ2aWNlPC90aXRsZT48cmVjdCBmaWxsPSIjMDAwMDAwIiBmaWxsLW9wYWNpdHk9IjAuMDAwMDAiIGhlaWdodD0iMzQwLjk2ODgiIHdpZHRoPSI4IiB4PSI1OTIiIHk9Ijc5Ljk4NDQiLz48bGluZSBzdHlsZT0ic3Ryb2tlOiMxODE4MTg7c3Ryb2tlLXdpZHRoOjAuNTtzdHJva2UtZGFzaGFycmF5OjUuMCw1LjA7IiB4MT0iNTk1LjUiIHgyPSI1OTUuNSIgeTE9Ijc5Ljk4NDQiIHkyPSI0MjAuOTUzMSIvPjwvZz48ZyBjbGFzcz0icGFydGljaXBhbnQgcGFydGljaXBhbnQtaGVhZCIgZGF0YS1wYXJ0aWNpcGFudD0iUGxheWVyIj48dGV4dCBmaWxsPSIjMDAwMDAwIiBmb250LWZhbWlseT0ic2Fucy1zZXJpZiIgZm9udC1zaXplPSIxNCIgbGVuZ3RoQWRqdXN0PSJzcGFjaW5nIiB0ZXh0TGVuZ3RoPSI0MiIgeD0iNSIgeT0iNzguMjM0NCI+UGxheWVyPC90ZXh0PjxlbGxpcHNlIGN4PSIyOSIgY3k9IjEzLjUiIGZpbGw9IiNFM0UzRTMiIHJ4PSI4IiByeT0iOCIgc3R5bGU9InN0cm9rZTojMTgxODE4O3N0cm9rZS13aWR0aDowLjU7Ii8+PHBhdGggZD0iTTI5LDIxLjUgTDI5LDQ4LjUgTTE2LDI5LjUgTDQyLDI5LjUgTTI5LDQ4LjUgTDE2LDYzLjUgTTI5LDQ4LjUgTDQyLDYzLjUiIGZpbGw9Im5vbmUiIHN0eWxlPSJzdHJva2U6IzE4MTgxODtzdHJva2Utd2lkdGg6MC41OyIvPjwvZz48ZyBjbGFzcz0icGFydGljaXBhbnQgcGFydGljaXBhbnQtdGFpbCIgZGF0YS1wYXJ0aWNpcGFudD0iUGxheWVyIj48dGV4dCBmaWxsPSIjMDAwMDAwIiBmb250LWZhbWlseT0ic2Fucy1zZXJpZiIgZm9udC1zaXplPSIxNCIgbGVuZ3RoQWRqdXN0PSJzcGFjaW5nIiB0ZXh0TGVuZ3RoPSI0MiIgeD0iNSIgeT0iNDMzLjE4NzUiPlBsYXllcjwvdGV4dD48ZWxsaXBzZSBjeD0iMjkiIGN5PSI0NDMuNDM3NSIgZmlsbD0iI0UzRTNFMyIgcng9IjgiIHJ5PSI4IiBzdHlsZT0ic3Ryb2tlOiMxODE4MTg7c3Ryb2tlLXdpZHRoOjAuNTsiLz48cGF0aCBkPSJNMjksNDUxLjQzNzUgTDI5LDQ3OC40Mzc1IE0xNiw0NTkuNDM3NSBMNDIsNDU5LjQzNzUgTTI5LDQ3OC40Mzc1IEwxNiw0OTMuNDM3NSBNMjksNDc4LjQzNzUgTDQyLDQ5My40Mzc1IiBmaWxsPSJub25lIiBzdHlsZT0ic3Ryb2tlOiMxODE4MTg7c3Ryb2tlLXdpZHRoOjAuNTsiLz48L2c+PGcgY2xhc3M9InBhcnRpY2lwYW50IHBhcnRpY2lwYW50LWhlYWQiIGRhdGEtcGFydGljaXBhbnQ9IlRpbGUiPjxyZWN0IGZpbGw9IiNFM0UzRTMiIGhlaWdodD0iMjguOTg0NCIgcng9IjIuNSIgcnk9IjIuNSIgc3R5bGU9InN0cm9rZTojMTgxODE4O3N0cm9rZS13aWR0aDowLjU7IiB3aWR0aD0iNzAiIHg9Ijg5LjUiIHk9IjUwIi8+PHRleHQgZmlsbD0iIzAwMDAwMCIgZm9udC1mYW1pbHk9InNhbnMtc2VyaWYiIGZvbnQtc2l6ZT0iMTQiIGxlbmd0aEFkanVzdD0ic3BhY2luZyIgdGV4dExlbmd0aD0iNTYiIHg9Ijk2LjUiIHk9IjcwLjIzNDQiPlRpbGVWaWV3PC90ZXh0PjwvZz48ZyBjbGFzcz0icGFydGljaXBhbnQgcGFydGljaXBhbnQtdGFpbCIgZGF0YS1wYXJ0aWNpcGFudD0iVGlsZSI+PHJlY3QgZmlsbD0iI0UzRTNFMyIgaGVpZ2h0PSIyOC45ODQ0IiByeD0iMi41IiByeT0iMi41IiBzdHlsZT0ic3Ryb2tlOiMxODE4MTg7c3Ryb2tlLXdpZHRoOjAuNTsiIHdpZHRoPSI3MCIgeD0iODkuNSIgeT0iNDE5Ljk1MzEiLz48dGV4dCBmaWxsPSIjMDAwMDAwIiBmb250LWZhbWlseT0ic2Fucy1zZXJpZiIgZm9udC1zaXplPSIxNCIgbGVuZ3RoQWRqdXN0PSJzcGFjaW5nIiB0ZXh0TGVuZ3RoPSI1NiIgeD0iOTYuNSIgeT0iNDQwLjE4NzUiPlRpbGVWaWV3PC90ZXh0PjwvZz48ZyBjbGFzcz0icGFydGljaXBhbnQgcGFydGljaXBhbnQtaGVhZCIgZGF0YS1wYXJ0aWNpcGFudD0iR0IiPjxyZWN0IGZpbGw9IiNFM0UzRTMiIGhlaWdodD0iMjguOTg0NCIgcng9IjIuNSIgcnk9IjIuNSIgc3R5bGU9InN0cm9rZTojMTgxODE4O3N0cm9rZS13aWR0aDowLjU7IiB3aWR0aD0iMTA1IiB4PSIyMTkuNSIgeT0iNTAiLz48dGV4dCBmaWxsPSIjMDAwMDAwIiBmb250LWZhbWlseT0ic2Fucy1zZXJpZiIgZm9udC1zaXplPSIxNCIgbGVuZ3RoQWRqdXN0PSJzcGFjaW5nIiB0ZXh0TGVuZ3RoPSI5MSIgeD0iMjI2LjUiIHk9IjcwLjIzNDQiPkdhbWVCb290c3RyYXA8L3RleHQ+PC9nPjxnIGNsYXNzPSJwYXJ0aWNpcGFudCBwYXJ0aWNpcGFudC10YWlsIiBkYXRhLXBhcnRpY2lwYW50PSJHQiI+PHJlY3QgZmlsbD0iI0UzRTNFMyIgaGVpZ2h0PSIyOC45ODQ0IiByeD0iMi41IiByeT0iMi41IiBzdHlsZT0ic3Ryb2tlOiMxODE4MTg7c3Ryb2tlLXdpZHRoOjAuNTsiIHdpZHRoPSIxMDUiIHg9IjIxOS41IiB5PSI0MTkuOTUzMSIvPjx0ZXh0IGZpbGw9IiMwMDAwMDAiIGZvbnQtZmFtaWx5PSJzYW5zLXNlcmlmIiBmb250LXNpemU9IjE0IiBsZW5ndGhBZGp1c3Q9InNwYWNpbmciIHRleHRMZW5ndGg9IjkxIiB4PSIyMjYuNSIgeT0iNDQwLjE4NzUiPkdhbWVCb290c3RyYXA8L3RleHQ+PC9nPjxnIGNsYXNzPSJwYXJ0aWNpcGFudCBwYXJ0aWNpcGFudC1oZWFkIiBkYXRhLXBhcnRpY2lwYW50PSJNUyI+PHJlY3QgZmlsbD0iI0UzRTNFMyIgaGVpZ2h0PSIyOC45ODQ0IiByeD0iMi41IiByeT0iMi41IiBzdHlsZT0ic3Ryb2tlOiMxODE4MTg7c3Ryb2tlLXdpZHRoOjAuNTsiIHdpZHRoPSI5OCIgeD0iNDM1LjUiIHk9IjUwIi8+PHRleHQgZmlsbD0iIzAwMDAwMCIgZm9udC1mYW1pbHk9InNhbnMtc2VyaWYiIGZvbnQtc2l6ZT0iMTQiIGxlbmd0aEFkanVzdD0ic3BhY2luZyIgdGV4dExlbmd0aD0iODQiIHg9IjQ0Mi41IiB5PSI3MC4yMzQ0Ij5NYXRjaFNlcnZpY2U8L3RleHQ+PC9nPjxnIGNsYXNzPSJwYXJ0aWNpcGFudCBwYXJ0aWNpcGFudC10YWlsIiBkYXRhLXBhcnRpY2lwYW50PSJNUyI+PHJlY3QgZmlsbD0iI0UzRTNFMyIgaGVpZ2h0PSIyOC45ODQ0IiByeD0iMi41IiByeT0iMi41IiBzdHlsZT0ic3Ryb2tlOiMxODE4MTg7c3Ryb2tlLXdpZHRoOjAuNTsiIHdpZHRoPSI5OCIgeD0iNDM1LjUiIHk9IjQxOS45NTMxIi8+PHRleHQgZmlsbD0iIzAwMDAwMCIgZm9udC1mYW1pbHk9InNhbnMtc2VyaWYiIGZvbnQtc2l6ZT0iMTQiIGxlbmd0aEFkanVzdD0ic3BhY2luZyIgdGV4dExlbmd0aD0iODQiIHg9IjQ0Mi41IiB5PSI0NDAuMTg3NSI+TWF0Y2hTZXJ2aWNlPC90ZXh0PjwvZz48ZyBjbGFzcz0icGFydGljaXBhbnQgcGFydGljaXBhbnQtaGVhZCIgZGF0YS1wYXJ0aWNpcGFudD0iVHdlZW4iPjxyZWN0IGZpbGw9IiNFM0UzRTMiIGhlaWdodD0iMjguOTg0NCIgcng9IjIuNSIgcnk9IjIuNSIgc3R5bGU9InN0cm9rZTojMTgxODE4O3N0cm9rZS13aWR0aDowLjU7IiB3aWR0aD0iMTA1IiB4PSI1NDMuNSIgeT0iNTAiLz48dGV4dCBmaWxsPSIjMDAwMDAwIiBmb250LWZhbWlseT0ic2Fucy1zZXJpZiIgZm9udC1zaXplPSIxNCIgbGVuZ3RoQWRqdXN0PSJzcGFjaW5nIiB0ZXh0TGVuZ3RoPSI5MSIgeD0iNTUwLjUiIHk9IjcwLjIzNDQiPklUd2VlblNlcnZpY2U8L3RleHQ+PC9nPjxnIGNsYXNzPSJwYXJ0aWNpcGFudCBwYXJ0aWNpcGFudC10YWlsIiBkYXRhLXBhcnRpY2lwYW50PSJUd2VlbiI+PHJlY3QgZmlsbD0iI0UzRTNFMyIgaGVpZ2h0PSIyOC45ODQ0IiByeD0iMi41IiByeT0iMi41IiBzdHlsZT0ic3Ryb2tlOiMxODE4MTg7c3Ryb2tlLXdpZHRoOjAuNTsiIHdpZHRoPSIxMDUiIHg9IjU0My41IiB5PSI0MTkuOTUzMSIvPjx0ZXh0IGZpbGw9IiMwMDAwMDAiIGZvbnQtZmFtaWx5PSJzYW5zLXNlcmlmIiBmb250LXNpemU9IjE0IiBsZW5ndGhBZGp1c3Q9InNwYWNpbmciIHRleHRMZW5ndGg9IjkxIiB4PSI1NTAuNSIgeT0iNDQwLjE4NzUiPklUd2VlblNlcnZpY2U8L3RleHQ+PC9nPjxnIGNsYXNzPSJtZXNzYWdlIiBkYXRhLXBhcnRpY2lwYW50LTE9IlBsYXllciIgZGF0YS1wYXJ0aWNpcGFudC0yPSJUaWxlIj48cG9seWdvbiBmaWxsPSIjMTgxODE4IiBwb2ludHM9IjExMi41LDEwNS44OTg0LDEyMi41LDEwOS44OTg0LDExMi41LDExMy44OTg0LDExNi41LDEwOS44OTg0IiBzdHlsZT0ic3Ryb2tlOiMxODE4MTg7c3Ryb2tlLXdpZHRoOjE7Ii8+PGxpbmUgc3R5bGU9InN0cm9rZTojMTgxODE4O3N0cm9rZS13aWR0aDoxOyIgeDE9IjI5IiB4Mj0iMTE4LjUiIHkxPSIxMDkuODk4NCIgeTI9IjEwOS44OTg0Ii8+PHRleHQgZmlsbD0iIzAwMDAwMCIgZm9udC1mYW1pbHk9InNhbnMtc2VyaWYiIGZvbnQtc2l6ZT0iMTMiIGxlbmd0aEFkanVzdD0ic3BhY2luZyIgdGV4dExlbmd0aD0iNzEuNSIgeD0iMzYiIHk9IjEwNi4yNzM0Ij5DbGljayhmcm9tKTwvdGV4dD48L2c+PGcgY2xhc3M9Im1lc3NhZ2UiIGRhdGEtcGFydGljaXBhbnQtMT0iVGlsZSIgZGF0YS1wYXJ0aWNpcGFudC0yPSJHQiI+PHBvbHlnb24gZmlsbD0iIzE4MTgxOCIgcG9pbnRzPSIyNjAsMTMzLjgxMjUsMjcwLDEzNy44MTI1LDI2MCwxNDEuODEyNSwyNjQsMTM3LjgxMjUiIHN0eWxlPSJzdHJva2U6IzE4MTgxODtzdHJva2Utd2lkdGg6MTsiLz48bGluZSBzdHlsZT0ic3Ryb2tlOiMxODE4MTg7c3Ryb2tlLXdpZHRoOjE7IiB4MT0iMTI0LjUiIHgyPSIyNjYiIHkxPSIxMzcuODEyNSIgeTI9IjEzNy44MTI1Ii8+PHRleHQgZmlsbD0iIzAwMDAwMCIgZm9udC1mYW1pbHk9InNhbnMtc2VyaWYiIGZvbnQtc2l6ZT0iMTMiIGxlbmd0aEFkanVzdD0ic3BhY2luZyIgdGV4dExlbmd0aD0iMTIzLjUiIHg9IjEzMS41IiB5PSIxMzQuMTg3NSI+T25UaWxlQ2xpY2tlZChmcm9tKTwvdGV4dD48L2c+PGcgY2xhc3M9Im1lc3NhZ2UiIGRhdGEtcGFydGljaXBhbnQtMT0iUGxheWVyIiBkYXRhLXBhcnRpY2lwYW50LTI9IlRpbGUiPjxwb2x5Z29uIGZpbGw9IiMxODE4MTgiIHBvaW50cz0iMTEyLjUsMTYxLjcyNjYsMTIyLjUsMTY1LjcyNjYsMTEyLjUsMTY5LjcyNjYsMTE2LjUsMTY1LjcyNjYiIHN0eWxlPSJzdHJva2U6IzE4MTgxODtzdHJva2Utd2lkdGg6MTsiLz48bGluZSBzdHlsZT0ic3Ryb2tlOiMxODE4MTg7c3Ryb2tlLXdpZHRoOjE7IiB4MT0iMjkiIHgyPSIxMTguNSIgeTE9IjE2NS43MjY2IiB5Mj0iMTY1LjcyNjYiLz48dGV4dCBmaWxsPSIjMDAwMDAwIiBmb250LWZhbWlseT0ic2Fucy1zZXJpZiIgZm9udC1zaXplPSIxMyIgbGVuZ3RoQWRqdXN0PSJzcGFjaW5nIiB0ZXh0TGVuZ3RoPSI1OC41IiB4PSIzNiIgeT0iMTYyLjEwMTYiPkNsaWNrKHRvKTwvdGV4dD48L2c+PGcgY2xhc3M9Im1lc3NhZ2UiIGRhdGEtcGFydGljaXBhbnQtMT0iVGlsZSIgZGF0YS1wYXJ0aWNpcGFudC0yPSJHQiI+PHBvbHlnb24gZmlsbD0iIzE4MTgxOCIgcG9pbnRzPSIyNjAsMTg5LjY0MDYsMjcwLDE5My42NDA2LDI2MCwxOTcuNjQwNiwyNjQsMTkzLjY0MDYiIHN0eWxlPSJzdHJva2U6IzE4MTgxODtzdHJva2Utd2lkdGg6MTsiLz48bGluZSBzdHlsZT0ic3Ryb2tlOiMxODE4MTg7c3Ryb2tlLXdpZHRoOjE7IiB4MT0iMTI0LjUiIHgyPSIyNjYiIHkxPSIxOTMuNjQwNiIgeTI9IjE5My42NDA2Ii8+PHRleHQgZmlsbD0iIzAwMDAwMCIgZm9udC1mYW1pbHk9InNhbnMtc2VyaWYiIGZvbnQtc2l6ZT0iMTMiIGxlbmd0aEFkanVzdD0ic3BhY2luZyIgdGV4dExlbmd0aD0iMTEwLjUiIHg9IjEzMS41IiB5PSIxOTAuMDE1NiI+T25UaWxlQ2xpY2tlZCh0byk8L3RleHQ+PC9nPjxnIGNsYXNzPSJtZXNzYWdlIiBkYXRhLXBhcnRpY2lwYW50LTE9IkdCIiBkYXRhLXBhcnRpY2lwYW50LTI9Ik1TIj48cG9seWdvbiBmaWxsPSIjMTgxODE4IiBwb2ludHM9IjQ3Mi41LDIzMS40Njg4LDQ4Mi41LDIzNS40Njg4LDQ3Mi41LDIzOS40Njg4LDQ3Ni41LDIzNS40Njg4IiBzdHlsZT0ic3Ryb2tlOiMxODE4MTg7c3Ryb2tlLXdpZHRoOjE7Ii8+PGxpbmUgc3R5bGU9InN0cm9rZTojMTgxODE4O3N0cm9rZS13aWR0aDoxOyIgeDE9IjI3MiIgeDI9IjQ3OC41IiB5MT0iMjM1LjQ2ODgiIHkyPSIyMzUuNDY4OCIvPjx0ZXh0IGZpbGw9IiMwMDAwMDAiIGZvbnQtZmFtaWx5PSJzYW5zLXNlcmlmIiBmb250LXNpemU9IjEzIiBsZW5ndGhBZGp1c3Q9InNwYWNpbmciIHRleHRMZW5ndGg9Ijc4IiB4PSIyNzkiIHk9IjIxNy45Mjk3Ij5MZWdhbE1vdmVzKCk8L3RleHQ+PHRleHQgZmlsbD0iIzAwMDAwMCIgZm9udC1mYW1pbHk9InNhbnMtc2VyaWYiIGZvbnQtc2l6ZT0iMTMiIGxlbmd0aEFkanVzdD0ic3BhY2luZyIgdGV4dExlbmd0aD0iMTMwIiB4PSIyNzkiIHk9IjIzMS44NDM4Ij4oZmluZCBtb3ZlIGZyb20tJmd0O3RvKTwvdGV4dD48L2c+PGcgY2xhc3M9Im1lc3NhZ2UiIGRhdGEtcGFydGljaXBhbnQtMT0iTVMiIGRhdGEtcGFydGljaXBhbnQtMj0iR0IiPjxwb2x5Z29uIGZpbGw9IiMxODE4MTgiIHBvaW50cz0iMjgzLDI1OS4zODI4LDI3MywyNjMuMzgyOCwyODMsMjY3LjM4MjgsMjc5LDI2My4zODI4IiBzdHlsZT0ic3Ryb2tlOiMxODE4MTg7c3Ryb2tlLXdpZHRoOjE7Ii8+PGxpbmUgc3R5bGU9InN0cm9rZTojMTgxODE4O3N0cm9rZS13aWR0aDoxO3N0cm9rZS1kYXNoYXJyYXk6Mi4wLDIuMDsiIHgxPSIyNzciIHgyPSI0ODMuNSIgeTE9IjI2My4zODI4IiB5Mj0iMjYzLjM4MjgiLz48dGV4dCBmaWxsPSIjMDAwMDAwIiBmb250LWZhbWlseT0ic2Fucy1zZXJpZiIgZm9udC1zaXplPSIxMyIgbGVuZ3RoQWRqdXN0PSJzcGFjaW5nIiB0ZXh0TGVuZ3RoPSI2NSIgeD0iMjg5IiB5PSIyNTkuNzU3OCI+bGlzdCZsdDtNb3ZlJmd0OzwvdGV4dD48L2c+PGcgY2xhc3M9Im1lc3NhZ2UiIGRhdGEtcGFydGljaXBhbnQtMT0iR0IiIGRhdGEtcGFydGljaXBhbnQtMj0iVHdlZW4iPjxwb2x5Z29uIGZpbGw9IiMxODE4MTgiIHBvaW50cz0iNTg0LDI4Ny4yOTY5LDU5NCwyOTEuMjk2OSw1ODQsMjk1LjI5NjksNTg4LDI5MS4yOTY5IiBzdHlsZT0ic3Ryb2tlOiMxODE4MTg7c3Ryb2tlLXdpZHRoOjE7Ii8+PGxpbmUgc3R5bGU9InN0cm9rZTojMTgxODE4O3N0cm9rZS13aWR0aDoxOyIgeDE9IjI3MiIgeDI9IjU5MCIgeTE9IjI5MS4yOTY5IiB5Mj0iMjkxLjI5NjkiLz48dGV4dCBmaWxsPSIjMDAwMDAwIiBmb250LWZhbWlseT0ic2Fucy1zZXJpZiIgZm9udC1zaXplPSIxMyIgbGVuZ3RoQWRqdXN0PSJzcGFjaW5nIiB0ZXh0TGVuZ3RoPSIyNjYuNSIgeD0iMjc5IiB5PSIyODcuNjcxOSI+TW92ZVBpZWNlKHBpZWNlVmlldywgdG8sIDAuMiwgb25Db21wbGV0ZSk8L3RleHQ+PC9nPjxnIGNsYXNzPSJtZXNzYWdlIiBkYXRhLXBhcnRpY2lwYW50LTE9IlR3ZWVuIiBkYXRhLXBhcnRpY2lwYW50LTI9IkdCIj48cG9seWdvbiBmaWxsPSIjMTgxODE4IiBwb2ludHM9IjI4MywzMTUuMjEwOSwyNzMsMzE5LjIxMDksMjgzLDMyMy4yMTA5LDI3OSwzMTkuMjEwOSIgc3R5bGU9InN0cm9rZTojMTgxODE4O3N0cm9rZS13aWR0aDoxOyIvPjxsaW5lIHN0eWxlPSJzdHJva2U6IzE4MTgxODtzdHJva2Utd2lkdGg6MTtzdHJva2UtZGFzaGFycmF5OjIuMCwyLjA7IiB4MT0iMjc3IiB4Mj0iNTk1IiB5MT0iMzE5LjIxMDkiIHkyPSIzMTkuMjEwOSIvPjx0ZXh0IGZpbGw9IiMwMDAwMDAiIGZvbnQtZmFtaWx5PSJzYW5zLXNlcmlmIiBmb250LXNpemU9IjEzIiBsZW5ndGhBZGp1c3Q9InNwYWNpbmciIHRleHRMZW5ndGg9Ijc4IiB4PSIyODkiIHk9IjMxNS41ODU5Ij5vbkNvbXBsZXRlKCk8L3RleHQ+PC9nPjxnIGNsYXNzPSJtZXNzYWdlIiBkYXRhLXBhcnRpY2lwYW50LTE9IkdCIiBkYXRhLXBhcnRpY2lwYW50LTI9Ik1TIj48cG9seWdvbiBmaWxsPSIjMTgxODE4IiBwb2ludHM9IjQ3Mi41LDM0My4xMjUsNDgyLjUsMzQ3LjEyNSw0NzIuNSwzNTEuMTI1LDQ3Ni41LDM0Ny4xMjUiIHN0eWxlPSJzdHJva2U6IzE4MTgxODtzdHJva2Utd2lkdGg6MTsiLz48bGluZSBzdHlsZT0ic3Ryb2tlOiMxODE4MTg7c3Ryb2tlLXdpZHRoOjE7IiB4MT0iMjcyIiB4Mj0iNDc4LjUiIHkxPSIzNDcuMTI1IiB5Mj0iMzQ3LjEyNSIvPjx0ZXh0IGZpbGw9IiMwMDAwMDAiIGZvbnQtZmFtaWx5PSJzYW5zLXNlcmlmIiBmb250LXNpemU9IjEzIiBsZW5ndGhBZGp1c3Q9InNwYWNpbmciIHRleHRMZW5ndGg9IjcxLjUiIHg9IjI3OSIgeT0iMzQzLjUiPkFwcGx5KG1vdmUpPC90ZXh0PjwvZz48ZyBjbGFzcz0ibWVzc2FnZSIgZGF0YS1wYXJ0aWNpcGFudC0xPSJNUyIgZGF0YS1wYXJ0aWNpcGFudC0yPSJHQiI+PHBvbHlnb24gZmlsbD0iIzE4MTgxOCIgcG9pbnRzPSIyODMsMzcxLjAzOTEsMjczLDM3NS4wMzkxLDI4MywzNzkuMDM5MSwyNzksMzc1LjAzOTEiIHN0eWxlPSJzdHJva2U6IzE4MTgxODtzdHJva2Utd2lkdGg6MTsiLz48bGluZSBzdHlsZT0ic3Ryb2tlOiMxODE4MTg7c3Ryb2tlLXdpZHRoOjE7IiB4MT0iMjc3IiB4Mj0iNDgzLjUiIHkxPSIzNzUuMDM5MSIgeTI9IjM3NS4wMzkxIi8+PHRleHQgZmlsbD0iIzAwMDAwMCIgZm9udC1mYW1pbHk9InNhbnMtc2VyaWYiIGZvbnQtc2l6ZT0iMTMiIGxlbmd0aEFkanVzdD0ic3BhY2luZyIgdGV4dExlbmd0aD0iMTg4LjUiIHg9IjI4OSIgeT0iMzcxLjQxNDEiPk9uUG9zaXRpb24oYm9hcmQsIHNpZGVUb01vdmUpPC90ZXh0PjwvZz48ZyBjbGFzcz0ibWVzc2FnZSIgZGF0YS1wYXJ0aWNpcGFudC0xPSJHQiIgZGF0YS1wYXJ0aWNpcGFudC0yPSJQbGF5ZXIiPjxwb2x5Z29uIGZpbGw9IiMxODE4MTgiIHBvaW50cz0iNDAsMzk4Ljk1MzEsMzAsNDAyLjk1MzEsNDAsNDA2Ljk1MzEsMzYsNDAyLjk1MzEiIHN0eWxlPSJzdHJva2U6IzE4MTgxODtzdHJva2Utd2lkdGg6MTsiLz48bGluZSBzdHlsZT0ic3Ryb2tlOiMxODE4MTg7c3Ryb2tlLXdpZHRoOjE7IiB4MT0iMzQiIHgyPSIyNzEiIHkxPSI0MDIuOTUzMSIgeTI9IjQwMi45NTMxIi8+PHRleHQgZmlsbD0iIzAwMDAwMCIgZm9udC1mYW1pbHk9InNhbnMtc2VyaWYiIGZvbnQtc2l6ZT0iMTMiIGxlbmd0aEFkanVzdD0ic3BhY2luZyIgdGV4dExlbmd0aD0iMTU2IiB4PSI0NiIgeT0iMzk5LjMyODEiPlVwZGF0ZSBVSSAvIGNhbWVyYSB0d2VlbjwvdGV4dD48L2c+PCEtLVNSQz1bVlA3MVFpQ20zOFJsVUdoSGFtbGZEZE9DZXgzcTQwZUJBd0pUUUhWRktMakpucEFzcmpBdE52SHFNbWpaNXVGcVZ2OS1vVWJXVlQxSFR6Mkg5eEVGcjI1bV9DSEM2d084QXdWRjZCQ1VPTWppcTl2WGloT0V0b29VOWcwSkk3MGhMeGgzYWVXSkhucTZmWWZsWUxncHNKU09aelJXMERKREJSMVNkbjN6REo0YWljb3EweEZ2Q0JVMFhSRmNlQlF6d3NhYzZMNmdpZTFOQno2V09kbEhfd3ZiLWd6SXJBZUtoTXVBVUM2VFRaS1RDUWRma3JUUnd6bC1SNFM0NkoyUjJybXRDQmpxU1pSbmF6M3BJdWpYWG04YWpSOWVLMEx2dlA4dkNFTm1TRlVPMF9hNVRTNFhPLXpCMmR4d19JaGdzakhwMkV3aW5DT3VfTmtENUlOQmJocHc4MXRSNzk5alNLdHJtOHRMdXE0QXM4SE1DeTljMlZUVy1pLUI2YldjVm00MF0tLT48L2c+PC9zdmc+;" vertex="1" parent="1">
            <mxGeometry x="-1350" y="-790" width="715" height="546.64" as="geometry" />
          </mxCell>
        </UserObject>
        <UserObject label="" plantUmlData="{&quot;data&quot;:&quot;@startuml Unity-Checkers-FolderStructure\n&#39; Style\nskinparam packageStyle rectangle\nskinparam shadowing false\nskinparam defaultTextAlignment left\nskinparam ArrowColor #888\nskinparam package {\n  BackgroundColor White\n  BorderColor #333\n}\nskinparam note {\n  BorderColor #F6C453\n  BackgroundColor #FFFBEA\n}\n\npackage \&quot;Project Root\&quot; {\n  package \&quot;Assets\&quot; {\n    package \&quot;Checkers\&quot; #LightBlue {\n      package \&quot;Domain\&quot; #D6EAF8 {\n        note right\n        Pure C# logic (no Unity deps)\n        - BoardState, Piece, Move, Coord\n        - IRules, AmericanRules\n        end note\n      }\n      package \&quot;Application\&quot; #FFE5CC {\n        note right\n        Use-cases / orchestration\n        - MatchService (turns, history, game over)\n        - ICommand, MoveCommand (undo/redo ready)\n        - IGameClock, IEventBus (interfaces)\n        end note\n      }\n      package \&quot;Infrastructure\&quot; #EEEEEE {\n        note right\n        Adapters to tech/libs\n        - ITweenService -&gt; LeanTweenService\n        - Persistence / Audio (optional)\n        end note\n      }\n      package \&quot;Presentation\&quot; #E3F8E0 {\n        note right\n        Unity MonoBehaviours &amp; UI\n        - GameBootstrap, TileView, PieceView\n        - StartScreen, InGameHUD\n        end note\n      }\n      package \&quot;Resources\&quot; #FDF2E9 {\n        note right\n        Prefabs, Materials, ScriptableObjects,\n        Sprites, Audio\n        end note\n      }\n      package \&quot;Tests\&quot; #F9EBEA {\n        note right\n        PlayMode/EditMode tests, mocks\n        end note\n      }\n    }\n    package \&quot;(Other assets as needed: Art, Fonts, Shaders, etc.)\&quot; as OtherAssets #FFFFFF\n  }\n}\n\n@enduml&quot;,&quot;format&quot;:&quot;svg&quot;}" id="uP1VX3FrQpWZ977YDJ0q-5">
          <mxCell style="shape=image;noLabel=1;verticalAlign=top;aspect=fixed;imageAspect=0;image=data:image/svg+xml,PHN2ZyB4bWxucz0iaHR0cDovL3d3dy53My5vcmcvMjAwMC9zdmciIHhtbG5zOnhsaW5rPSJodHRwOi8vd3d3LnczLm9yZy8xOTk5L3hsaW5rIiBjb250ZW50U3R5bGVUeXBlPSJ0ZXh0L2NzcyIgZGF0YS1kaWFncmFtLXR5cGU9IkFDVElWSVRZIiBoZWlnaHQ9IjExODRweCIgcHJlc2VydmVBc3BlY3RSYXRpbz0ibm9uZSIgc3R5bGU9IndpZHRoOjY2NHB4O2hlaWdodDoxMTg0cHg7YmFja2dyb3VuZDojRkZGRkZGOyIgdmVyc2lvbj0iMS4xIiB2aWV3Qm94PSIwIDAgNjY0IDExODQiIHdpZHRoPSI2NjRweCIgem9vbUFuZFBhbj0ibWFnbmlmeSI+PGRlZnMvPjxnPjxwb2x5Z29uIGZpbGw9IiNGRkZGRkYiIHBvaW50cz0iMjAsMTAsMTEwLDEwLDExNywzMC45ODQ0LDY0MiwzMC45ODQ0LDY0MiwxMTcyLjQ2ODgsMjAsMTE3Mi40Njg4LDIwLDEwIiBzdHlsZT0ic3Ryb2tlOiMzMzMzMzM7c3Ryb2tlLXdpZHRoOjEuNTsiLz48bGluZSBzdHlsZT0ic3Ryb2tlOiMzMzMzMzM7c3Ryb2tlLXdpZHRoOjEuNTsiIHgxPSIyMCIgeDI9IjExNyIgeTE9IjMwLjk4NDQiIHkyPSIzMC45ODQ0Ii8+PHRleHQgZmlsbD0iIzAwMDAwMCIgZm9udC1mYW1pbHk9InNhbnMtc2VyaWYiIGZvbnQtc2l6ZT0iMTQiIGxlbmd0aEFkanVzdD0ic3BhY2luZyIgdGV4dExlbmd0aD0iODQiIHg9IjI0IiB5PSIyNS4yMzQ0Ij5Qcm9qZWN0IFJvb3Q8L3RleHQ+PHBvbHlnb24gZmlsbD0iI0ZGRkZGRiIgcG9pbnRzPSIzMCw0NC45ODQ0LDc4LDQ0Ljk4NDQsODUsNjUuOTY4OCw2MzIsNjUuOTY4OCw2MzIsMTE1Mi40Njg4LDMwLDExNTIuNDY4OCwzMCw0NC45ODQ0IiBzdHlsZT0ic3Ryb2tlOiMzMzMzMzM7c3Ryb2tlLXdpZHRoOjEuNTsiLz48bGluZSBzdHlsZT0ic3Ryb2tlOiMzMzMzMzM7c3Ryb2tlLXdpZHRoOjEuNTsiIHgxPSIzMCIgeDI9Ijg1IiB5MT0iNjUuOTY4OCIgeTI9IjY1Ljk2ODgiLz48dGV4dCBmaWxsPSIjMDAwMDAwIiBmb250LWZhbWlseT0ic2Fucy1zZXJpZiIgZm9udC1zaXplPSIxNCIgbGVuZ3RoQWRqdXN0PSJzcGFjaW5nIiB0ZXh0TGVuZ3RoPSI0MiIgeD0iMzQiIHk9IjYwLjIxODgiPkFzc2V0czwvdGV4dD48cG9seWdvbiBmaWxsPSIjQUREOEU2IiBwb2ludHM9IjI2OCw3OS45Njg4LDMzMCw3OS45Njg4LDMzNywxMDAuOTUzMSw2MjIsMTAwLjk1MzEsNjIyLDEwNDIuNDg0NCwyNjgsMTA0Mi40ODQ0LDI2OCw3OS45Njg4IiBzdHlsZT0ic3Ryb2tlOiMzMzMzMzM7c3Ryb2tlLXdpZHRoOjEuNTsiLz48bGluZSBzdHlsZT0ic3Ryb2tlOiMzMzMzMzM7c3Ryb2tlLXdpZHRoOjEuNTsiIHgxPSIyNjgiIHgyPSIzMzciIHkxPSIxMDAuOTUzMSIgeTI9IjEwMC45NTMxIi8+PHRleHQgZmlsbD0iIzAwMDAwMCIgZm9udC1mYW1pbHk9InNhbnMtc2VyaWYiIGZvbnQtc2l6ZT0iMTQiIGxlbmd0aEFkanVzdD0ic3BhY2luZyIgdGV4dExlbmd0aD0iNTYiIHg9IjI3MiIgeT0iOTUuMjAzMSI+Q2hlY2tlcnM8L3RleHQ+PHBvbHlnb24gZmlsbD0iI0Q2RUFGOCIgcG9pbnRzPSIyNzgsMTE0Ljk1MzEsMzI2LDExNC45NTMxLDMzMywxMzUuOTM3NSw1NDcsMTM1LjkzNzUsNTQ3LDI0MS42Nzk3LDI3OCwyNDEuNjc5NywyNzgsMTE0Ljk1MzEiIHN0eWxlPSJzdHJva2U6IzMzMzMzMztzdHJva2Utd2lkdGg6MS41OyIvPjxsaW5lIHN0eWxlPSJzdHJva2U6IzMzMzMzMztzdHJva2Utd2lkdGg6MS41OyIgeDE9IjI3OCIgeDI9IjMzMyIgeTE9IjEzNS45Mzc1IiB5Mj0iMTM1LjkzNzUiLz48dGV4dCBmaWxsPSIjMDAwMDAwIiBmb250LWZhbWlseT0ic2Fucy1zZXJpZiIgZm9udC1zaXplPSIxNCIgbGVuZ3RoQWRqdXN0PSJzcGFjaW5nIiB0ZXh0TGVuZ3RoPSI0MiIgeD0iMjgyIiB5PSIxMzAuMTg3NSI+RG9tYWluPC90ZXh0PjxwYXRoIGQ9Ik0yOTgsMTU5LjkzNzUgTDI5OCwyMTEuNjc5NyBMNTI3LDIxMS42Nzk3IEw1MjcsMTY5LjkzNzUgTDUxNywxNTkuOTM3NSBMMjk4LDE1OS45Mzc1IiBmaWxsPSIjRkZGQkVBIiBzdHlsZT0ic3Ryb2tlOiNGNkM0NTM7c3Ryb2tlLXdpZHRoOjAuNTsiLz48cGF0aCBkPSJNNTE3LDE1OS45Mzc1IEw1MTcsMTY5LjkzNzUgTDUyNywxNjkuOTM3NSBMNTE3LDE1OS45Mzc1IiBmaWxsPSIjRkZGQkVBIiBzdHlsZT0ic3Ryb2tlOiNGNkM0NTM7c3Ryb2tlLXdpZHRoOjAuNTsiLz48dGV4dCBmaWxsPSIjMDAwMDAwIiBmb250LWZhbWlseT0ic2Fucy1zZXJpZiIgZm9udC1zaXplPSIxMyIgbGVuZ3RoQWRqdXN0PSJzcGFjaW5nIiB0ZXh0TGVuZ3RoPSIxODguNSIgeD0iMzA0IiB5PSIxNzcuMjI2NiI+UHVyZSBDIyBsb2dpYyAobm8gVW5pdHkgZGVwcyk8L3RleHQ+PHRleHQgZmlsbD0iIzAwMDAwMCIgZm9udC1mYW1pbHk9InNhbnMtc2VyaWYiIGZvbnQtc2l6ZT0iMTMiIGxlbmd0aEFkanVzdD0ic3BhY2luZyIgdGV4dExlbmd0aD0iMjA4IiB4PSIzMDQiIHk9IjE5MS4xNDA2Ij4tIEJvYXJkU3RhdGUsIFBpZWNlLCBNb3ZlLCBDb29yZDwvdGV4dD48dGV4dCBmaWxsPSIjMDAwMDAwIiBmb250LWZhbWlseT0ic2Fucy1zZXJpZiIgZm9udC1zaXplPSIxMyIgbGVuZ3RoQWRqdXN0PSJzcGFjaW5nIiB0ZXh0TGVuZ3RoPSIxNDkuNSIgeD0iMzA0IiB5PSIyMDUuMDU0NyI+LSBJUnVsZXMsIEFtZXJpY2FuUnVsZXM8L3RleHQ+PHBvbHlnb24gZmlsbD0iI0ZGRTVDQyIgcG9pbnRzPSIyNzgsMjc2LjY3OTcsMzYxLDI3Ni42Nzk3LDM2OCwyOTcuNjY0MSw2MTIsMjk3LjY2NDEsNjEyLDQxNy4zMjAzLDI3OCw0MTcuMzIwMywyNzgsMjc2LjY3OTciIHN0eWxlPSJzdHJva2U6IzMzMzMzMztzdHJva2Utd2lkdGg6MS41OyIvPjxsaW5lIHN0eWxlPSJzdHJva2U6IzMzMzMzMztzdHJva2Utd2lkdGg6MS41OyIgeDE9IjI3OCIgeDI9IjM2OCIgeTE9IjI5Ny42NjQxIiB5Mj0iMjk3LjY2NDEiLz48dGV4dCBmaWxsPSIjMDAwMDAwIiBmb250LWZhbWlseT0ic2Fucy1zZXJpZiIgZm9udC1zaXplPSIxNCIgbGVuZ3RoQWRqdXN0PSJzcGFjaW5nIiB0ZXh0TGVuZ3RoPSI3NyIgeD0iMjgyIiB5PSIyOTEuOTE0MSI+QXBwbGljYXRpb248L3RleHQ+PHBhdGggZD0iTTI5OCwzMjEuNjY0MSBMMjk4LDM4Ny4zMjAzIEw1OTIsMzg3LjMyMDMgTDU5MiwzMzEuNjY0MSBMNTgyLDMyMS42NjQxIEwyOTgsMzIxLjY2NDEiIGZpbGw9IiNGRkZCRUEiIHN0eWxlPSJzdHJva2U6I0Y2QzQ1MztzdHJva2Utd2lkdGg6MC41OyIvPjxwYXRoIGQ9Ik01ODIsMzIxLjY2NDEgTDU4MiwzMzEuNjY0MSBMNTkyLDMzMS42NjQxIEw1ODIsMzIxLjY2NDEiIGZpbGw9IiNGRkZCRUEiIHN0eWxlPSJzdHJva2U6I0Y2QzQ1MztzdHJva2Utd2lkdGg6MC41OyIvPjx0ZXh0IGZpbGw9IiMwMDAwMDAiIGZvbnQtZmFtaWx5PSJzYW5zLXNlcmlmIiBmb250LXNpemU9IjEzIiBsZW5ndGhBZGp1c3Q9InNwYWNpbmciIHRleHRMZW5ndGg9IjE2Mi41IiB4PSIzMDQiIHk9IjMzOC45NTMxIj5Vc2UtY2FzZXMgLyBvcmNoZXN0cmF0aW9uPC90ZXh0Pjx0ZXh0IGZpbGw9IiMwMDAwMDAiIGZvbnQtZmFtaWx5PSJzYW5zLXNlcmlmIiBmb250LXNpemU9IjEzIiBsZW5ndGhBZGp1c3Q9InNwYWNpbmciIHRleHRMZW5ndGg9IjI3MyIgeD0iMzA0IiB5PSIzNTIuODY3MiI+LSBNYXRjaFNlcnZpY2UgKHR1cm5zLCBoaXN0b3J5LCBnYW1lIG92ZXIpPC90ZXh0Pjx0ZXh0IGZpbGw9IiMwMDAwMDAiIGZvbnQtZmFtaWx5PSJzYW5zLXNlcmlmIiBmb250LXNpemU9IjEzIiBsZW5ndGhBZGp1c3Q9InNwYWNpbmciIHRleHRMZW5ndGg9IjI2Ni41IiB4PSIzMDQiIHk9IjM2Ni43ODEzIj4tIElDb21tYW5kLCBNb3ZlQ29tbWFuZCAodW5kby9yZWRvIHJlYWR5KTwvdGV4dD48dGV4dCBmaWxsPSIjMDAwMDAwIiBmb250LWZhbWlseT0ic2Fucy1zZXJpZiIgZm9udC1zaXplPSIxMyIgbGVuZ3RoQWRqdXN0PSJzcGFjaW5nIiB0ZXh0TGVuZ3RoPSIyMzQiIHg9IjMwNCIgeT0iMzgwLjY5NTMiPi0gSUdhbWVDbG9jaywgSUV2ZW50QnVzIChpbnRlcmZhY2VzKTwvdGV4dD48cG9seWdvbiBmaWxsPSIjRUVFRUVFIiBwb2ludHM9IjI3OCw0NTIuMzIwMywzODIsNDUyLjMyMDMsMzg5LDQ3My4zMDQ3LDU2Ni41LDQ3My4zMDQ3LDU2Ni41LDU3OS4wNDY5LDI3OCw1NzkuMDQ2OSwyNzgsNDUyLjMyMDMiIHN0eWxlPSJzdHJva2U6IzMzMzMzMztzdHJva2Utd2lkdGg6MS41OyIvPjxsaW5lIHN0eWxlPSJzdHJva2U6IzMzMzMzMztzdHJva2Utd2lkdGg6MS41OyIgeDE9IjI3OCIgeDI9IjM4OSIgeTE9IjQ3My4zMDQ3IiB5Mj0iNDczLjMwNDciLz48dGV4dCBmaWxsPSIjMDAwMDAwIiBmb250LWZhbWlseT0ic2Fucy1zZXJpZiIgZm9udC1zaXplPSIxNCIgbGVuZ3RoQWRqdXN0PSJzcGFjaW5nIiB0ZXh0TGVuZ3RoPSI5OCIgeD0iMjgyIiB5PSI0NjcuNTU0NyI+SW5mcmFzdHJ1Y3R1cmU8L3RleHQ+PHBhdGggZD0iTTI5OCw0OTcuMzA0NyBMMjk4LDU0OS4wNDY5IEw1NDYuNSw1NDkuMDQ2OSBMNTQ2LjUsNTA3LjMwNDcgTDUzNi41LDQ5Ny4zMDQ3IEwyOTgsNDk3LjMwNDciIGZpbGw9IiNGRkZCRUEiIHN0eWxlPSJzdHJva2U6I0Y2QzQ1MztzdHJva2Utd2lkdGg6MC41OyIvPjxwYXRoIGQ9Ik01MzYuNSw0OTcuMzA0NyBMNTM2LjUsNTA3LjMwNDcgTDU0Ni41LDUwNy4zMDQ3IEw1MzYuNSw0OTcuMzA0NyIgZmlsbD0iI0ZGRkJFQSIgc3R5bGU9InN0cm9rZTojRjZDNDUzO3N0cm9rZS13aWR0aDowLjU7Ii8+PHRleHQgZmlsbD0iIzAwMDAwMCIgZm9udC1mYW1pbHk9InNhbnMtc2VyaWYiIGZvbnQtc2l6ZT0iMTMiIGxlbmd0aEFkanVzdD0ic3BhY2luZyIgdGV4dExlbmd0aD0iMTM2LjUiIHg9IjMwNCIgeT0iNTE0LjU5MzgiPkFkYXB0ZXJzIHRvIHRlY2gvbGliczwvdGV4dD48dGV4dCBmaWxsPSIjMDAwMDAwIiBmb250LWZhbWlseT0ic2Fucy1zZXJpZiIgZm9udC1zaXplPSIxMyIgbGVuZ3RoQWRqdXN0PSJzcGFjaW5nIiB0ZXh0TGVuZ3RoPSIyMjcuNSIgeD0iMzA0IiB5PSI1MjguNTA3OCI+LSBJVHdlZW5TZXJ2aWNlIC0mZ3Q7IExlYW5Ud2VlblNlcnZpY2U8L3RleHQ+PHRleHQgZmlsbD0iIzAwMDAwMCIgZm9udC1mYW1pbHk9InNhbnMtc2VyaWYiIGZvbnQtc2l6ZT0iMTMiIGxlbmd0aEFkanVzdD0ic3BhY2luZyIgdGV4dExlbmd0aD0iMjA4IiB4PSIzMDQiIHk9IjU0Mi40MjE5Ij4tIFBlcnNpc3RlbmNlIC8gQXVkaW8gKG9wdGlvbmFsKTwvdGV4dD48cG9seWdvbiBmaWxsPSIjRTNGOEUwIiBwb2ludHM9IjI3OCw2MTQuMDQ2OSwzNjgsNjE0LjA0NjksMzc1LDYzNS4wMzEzLDU3Myw2MzUuMDMxMyw1NzMsNzQwLjc3MzQsMjc4LDc0MC43NzM0LDI3OCw2MTQuMDQ2OSIgc3R5bGU9InN0cm9rZTojMzMzMzMzO3N0cm9rZS13aWR0aDoxLjU7Ii8+PGxpbmUgc3R5bGU9InN0cm9rZTojMzMzMzMzO3N0cm9rZS13aWR0aDoxLjU7IiB4MT0iMjc4IiB4Mj0iMzc1IiB5MT0iNjM1LjAzMTMiIHkyPSI2MzUuMDMxMyIvPjx0ZXh0IGZpbGw9IiMwMDAwMDAiIGZvbnQtZmFtaWx5PSJzYW5zLXNlcmlmIiBmb250LXNpemU9IjE0IiBsZW5ndGhBZGp1c3Q9InNwYWNpbmciIHRleHRMZW5ndGg9Ijg0IiB4PSIyODIiIHk9IjYyOS4yODEzIj5QcmVzZW50YXRpb248L3RleHQ+PHBhdGggZD0iTTI5OCw2NTkuMDMxMyBMMjk4LDcxMC43NzM0IEw1NTMsNzEwLjc3MzQgTDU1Myw2NjkuMDMxMyBMNTQzLDY1OS4wMzEzIEwyOTgsNjU5LjAzMTMiIGZpbGw9IiNGRkZCRUEiIHN0eWxlPSJzdHJva2U6I0Y2QzQ1MztzdHJva2Utd2lkdGg6MC41OyIvPjxwYXRoIGQ9Ik01NDMsNjU5LjAzMTMgTDU0Myw2NjkuMDMxMyBMNTUzLDY2OS4wMzEzIEw1NDMsNjU5LjAzMTMiIGZpbGw9IiNGRkZCRUEiIHN0eWxlPSJzdHJva2U6I0Y2QzQ1MztzdHJva2Utd2lkdGg6MC41OyIvPjx0ZXh0IGZpbGw9IiMwMDAwMDAiIGZvbnQtZmFtaWx5PSJzYW5zLXNlcmlmIiBmb250LXNpemU9IjEzIiBsZW5ndGhBZGp1c3Q9InNwYWNpbmciIHRleHRMZW5ndGg9IjE2Mi41IiB4PSIzMDQiIHk9IjY3Ni4zMjAzIj5Vbml0eSBNb25vQmVoYXZpb3VycyAmYW1wOyBVSTwvdGV4dD48dGV4dCBmaWxsPSIjMDAwMDAwIiBmb250LWZhbWlseT0ic2Fucy1zZXJpZiIgZm9udC1zaXplPSIxMyIgbGVuZ3RoQWRqdXN0PSJzcGFjaW5nIiB0ZXh0TGVuZ3RoPSIyMzQiIHg9IjMwNCIgeT0iNjkwLjIzNDQiPi0gR2FtZUJvb3RzdHJhcCwgVGlsZVZpZXcsIFBpZWNlVmlldzwvdGV4dD48dGV4dCBmaWxsPSIjMDAwMDAwIiBmb250LWZhbWlseT0ic2Fucy1zZXJpZiIgZm9udC1zaXplPSIxMyIgbGVuZ3RoQWRqdXN0PSJzcGFjaW5nIiB0ZXh0TGVuZ3RoPSIxNTYiIHg9IjMwNCIgeT0iNzA0LjE0ODQiPi0gU3RhcnRTY3JlZW4sIEluR2FtZUhVRDwvdGV4dD48cG9seWdvbiBmaWxsPSIjRkRGMkU5IiBwb2ludHM9IjI3OCw3NzUuNzczNCwzNDcsNzc1Ljc3MzQsMzU0LDc5Ni43NTc4LDU4Niw3OTYuNzU3OCw1ODYsODg4LjU4NTksMjc4LDg4OC41ODU5LDI3OCw3NzUuNzczNCIgc3R5bGU9InN0cm9rZTojMzMzMzMzO3N0cm9rZS13aWR0aDoxLjU7Ii8+PGxpbmUgc3R5bGU9InN0cm9rZTojMzMzMzMzO3N0cm9rZS13aWR0aDoxLjU7IiB4MT0iMjc4IiB4Mj0iMzU0IiB5MT0iNzk2Ljc1NzgiIHkyPSI3OTYuNzU3OCIvPjx0ZXh0IGZpbGw9IiMwMDAwMDAiIGZvbnQtZmFtaWx5PSJzYW5zLXNlcmlmIiBmb250LXNpemU9IjE0IiBsZW5ndGhBZGp1c3Q9InNwYWNpbmciIHRleHRMZW5ndGg9IjYzIiB4PSIyODIiIHk9Ijc5MS4wMDc4Ij5SZXNvdXJjZXM8L3RleHQ+PHBhdGggZD0iTTI5OCw4MjAuNzU3OCBMMjk4LDg1OC41ODU5IEw1NjYsODU4LjU4NTkgTDU2Niw4MzAuNzU3OCBMNTU2LDgyMC43NTc4IEwyOTgsODIwLjc1NzgiIGZpbGw9IiNGRkZCRUEiIHN0eWxlPSJzdHJva2U6I0Y2QzQ1MztzdHJva2Utd2lkdGg6MC41OyIvPjxwYXRoIGQ9Ik01NTYsODIwLjc1NzggTDU1Niw4MzAuNzU3OCBMNTY2LDgzMC43NTc4IEw1NTYsODIwLjc1NzgiIGZpbGw9IiNGRkZCRUEiIHN0eWxlPSJzdHJva2U6I0Y2QzQ1MztzdHJva2Utd2lkdGg6MC41OyIvPjx0ZXh0IGZpbGw9IiMwMDAwMDAiIGZvbnQtZmFtaWx5PSJzYW5zLXNlcmlmIiBmb250LXNpemU9IjEzIiBsZW5ndGhBZGp1c3Q9InNwYWNpbmciIHRleHRMZW5ndGg9IjI0NyIgeD0iMzA0IiB5PSI4MzguMDQ2OSI+UHJlZmFicywgTWF0ZXJpYWxzLCBTY3JpcHRhYmxlT2JqZWN0cyw8L3RleHQ+PHRleHQgZmlsbD0iIzAwMDAwMCIgZm9udC1mYW1pbHk9InNhbnMtc2VyaWYiIGZvbnQtc2l6ZT0iMTMiIGxlbmd0aEFkanVzdD0ic3BhY2luZyIgdGV4dExlbmd0aD0iOTEiIHg9IjMwNCIgeT0iODUxLjk2MDkiPlNwcml0ZXMsIEF1ZGlvPC90ZXh0Pjxwb2x5Z29uIGZpbGw9IiNGOUVCRUEiIHBvaW50cz0iMjc4LDkyMy41ODU5LDMxOSw5MjMuNTg1OSwzMjYsOTQ0LjU3MDMsNTM0LDk0NC41NzAzLDUzNCwxMDIyLjQ4NDQsMjc4LDEwMjIuNDg0NCwyNzgsOTIzLjU4NTkiIHN0eWxlPSJzdHJva2U6IzMzMzMzMztzdHJva2Utd2lkdGg6MS41OyIvPjxsaW5lIHN0eWxlPSJzdHJva2U6IzMzMzMzMztzdHJva2Utd2lkdGg6MS41OyIgeDE9IjI3OCIgeDI9IjMyNiIgeTE9Ijk0NC41NzAzIiB5Mj0iOTQ0LjU3MDMiLz48dGV4dCBmaWxsPSIjMDAwMDAwIiBmb250LWZhbWlseT0ic2Fucy1zZXJpZiIgZm9udC1zaXplPSIxNCIgbGVuZ3RoQWRqdXN0PSJzcGFjaW5nIiB0ZXh0TGVuZ3RoPSIzNSIgeD0iMjgyIiB5PSI5MzguODIwMyI+VGVzdHM8L3RleHQ+PHBhdGggZD0iTTI5OCw5NjguNTcwMyBMMjk4LDk5Mi40ODQ0IEw1MTQsOTkyLjQ4NDQgTDUxNCw5NzguNTcwMyBMNTA0LDk2OC41NzAzIEwyOTgsOTY4LjU3MDMiIGZpbGw9IiNGRkZCRUEiIHN0eWxlPSJzdHJva2U6I0Y2QzQ1MztzdHJva2Utd2lkdGg6MC41OyIvPjxwYXRoIGQ9Ik01MDQsOTY4LjU3MDMgTDUwNCw5NzguNTcwMyBMNTE0LDk3OC41NzAzIEw1MDQsOTY4LjU3MDMiIGZpbGw9IiNGRkZCRUEiIHN0eWxlPSJzdHJva2U6I0Y2QzQ1MztzdHJva2Utd2lkdGg6MC41OyIvPjx0ZXh0IGZpbGw9IiMwMDAwMDAiIGZvbnQtZmFtaWx5PSJzYW5zLXNlcmlmIiBmb250LXNpemU9IjEzIiBsZW5ndGhBZGp1c3Q9InNwYWNpbmciIHRleHRMZW5ndGg9IjE5NSIgeD0iMzA0IiB5PSI5ODUuODU5NCI+UGxheU1vZGUvRWRpdE1vZGUgdGVzdHMsIG1vY2tzPC90ZXh0Pjxwb2x5Z29uIGZpbGw9IiNGRkZGRkYiIHBvaW50cz0iNDAsMTA3Ny40ODQ0LDUyMiwxMDc3LjQ4NDQsNTI5LDEwOTguNDY4OCw1MzYsMTA5OC40Njg4LDUzNiwxMTMyLjQ2ODgsNDAsMTEzMi40Njg4LDQwLDEwNzcuNDg0NCIgc3R5bGU9InN0cm9rZTojMzMzMzMzO3N0cm9rZS13aWR0aDoxLjU7Ii8+PGxpbmUgc3R5bGU9InN0cm9rZTojMzMzMzMzO3N0cm9rZS13aWR0aDoxLjU7IiB4MT0iNDAiIHgyPSI1MjkiIHkxPSIxMDk4LjQ2ODgiIHkyPSIxMDk4LjQ2ODgiLz48dGV4dCBmaWxsPSIjMDAwMDAwIiBmb250LWZhbWlseT0ic2Fucy1zZXJpZiIgZm9udC1zaXplPSIxNCIgbGVuZ3RoQWRqdXN0PSJzcGFjaW5nIiB0ZXh0TGVuZ3RoPSI0NzYiIHg9IjQ0IiB5PSIxMDkyLjcxODgiPiIoT3RoZXIgYXNzZXRzIGFzIG5lZWRlZDogQXJ0LCBGb250cywgU2hhZGVycywgZXRjLikiIGFzIE90aGVyQXNzZXRzPC90ZXh0PjxsaW5lIHN0eWxlPSJzdHJva2U6Izg4ODg4ODtzdHJva2Utd2lkdGg6MTsiIHgxPSIyODgiIHgyPSIyODgiIHkxPSIxODUuODA4NiIgeTI9IjExMTIuNDY4OCIvPjxwb2x5Z29uIGZpbGw9IiM4ODg4ODgiIHBvaW50cz0iMjg0LDExMDIuNDY4OCwyODgsMTExMi40Njg4LDI5MiwxMTAyLjQ2ODgsMjg4LDExMDYuNDY4OCIgc3R5bGU9InN0cm9rZTojODg4ODg4O3N0cm9rZS13aWR0aDoxOyIvPjwhLS1TUkM9W1pMSEhSemVtNDd4ZEx2b0FqNTRmN1RET0F4ZzdJSTRhNnI5SEtPN2pzSlg3dWs3T2FVdDBxQ0hfdHBiR3Y2eEpRMXVJdl9wVC1SbHBUX1NNdmN1bGlNQ3RHak5DaTBmZ25aVWltRE9DMWhiWmdkVzFpMk5Cekt3ZTBqUENzZDBkbnBMaGY1bFdKblRCS1FXQWJHRTlRblRXT2NGcUJqNUk2LVdFWHlFXzN1UFY3TzBIaEdrWjZ2S1ZlVHpCdVQzUmpTZEhkRG03V3E3ZDQwSEdzZnN5R3JIc2J0b3k3Vm1aUFpWQmliNFFLdVpFeXo1TkN3RF9LQ2htZkJNeFFjRVRqczlocVRjWkNKMGQ5VjhENmpoZUZlWVlUMkZQdTBhSmVDUXdPYThIUGRvTm5qZG0zODBaUVVDenB3UFBPbjJJQmFYVDIwdXpmTTZmWERqSlVNanhWS1JUSzloQ3Y3Rjc3NE9tNHlaZkN6TFJVWVVRMlgwMDlxLURIMWoxTkE0SGRBZHN6eG9GQWN6UGQwbzdGeGQ3VEl0OW9tZGo0eVlvejNQOV9mXzBxazhEUG5Pano0NFJOZzlyZmxLRkU0c1B1LUtTcExQbVg5dmhaMkEyZlIxRWN0cTQxUWlHQTFTSnZaajlUNUtuYkhfSkZGcjBab3ZLem10Y2NqSkF5bHFCWm95Szl2NlFSb0FPZjVrSXV3WW5xMUZBZUxhcFphNHZCckxYZWpRNktIdUQ5d3Y4WEtaUnZfLTVZN0RNcXI0TWQwUTdsRW5CaVI4WGx5S0VLSnJOdVVPcEYyMUplSXQwcFlXRWJHU0w4VmlHRHhkR3FERXJCb2tKaHl6WlBqMUk3UHdsQ25yYW1fSnpYVWppckpWTEllLW1QNWtYNnloZTNJbWQwSmpWdzE0clpSX2ZFZUE1YUZYRHVFdWFKQnlDbUFIUHUtUlNLOXZxQnloeFZic0VOdnQyNHJnWUdCVmR2SlpFRmdKdDVfaDlxNW5RYVJuOFN6RzBEQkdZZURENXhUWEF1a0ZBVHhvRHBsMXZSTVpPLTdSbkROdXJnbU1mbDZMcWR6OUtrUzE4aWxyS3Z6WEZTLTd5V2pIMXRYNUs5REtCZE5idUVOendad3Y0MHdvVEpsRzFYUFhaX2VhNmhPaVdxeWc3ZFRGODlsYjRXOHdfa3h4b2lEUmpFREZRSUtYRm5tU19fME8wXS0tPjwvZz48L3N2Zz4=;" vertex="1" parent="1">
            <mxGeometry x="1490" y="-790" width="664" height="1184" as="geometry" />
          </mxCell>
        </UserObject>
        <mxCell id="uP1VX3FrQpWZ977YDJ0q-6" value="&lt;font style=&quot;font-size: 72px;&quot;&gt;תרשים אחריות ותלויות בין חלקי המערכת&lt;/font&gt;" style="text;html=1;whiteSpace=wrap;strokeColor=none;fillColor=none;align=center;verticalAlign=middle;rounded=0;" vertex="1" parent="1">
          <mxGeometry x="10" y="-920" width="710" height="30" as="geometry" />
        </mxCell>
        <mxCell id="uP1VX3FrQpWZ977YDJ0q-8" value="&lt;font style=&quot;font-size: 72px;&quot;&gt;תרשים זרימה בסיסי של מהלך&lt;/font&gt;" style="text;html=1;whiteSpace=wrap;strokeColor=none;fillColor=none;align=center;verticalAlign=middle;rounded=0;" vertex="1" parent="1">
          <mxGeometry x="-1260" y="-930" width="570" height="30" as="geometry" />
        </mxCell>
        <mxCell id="uP1VX3FrQpWZ977YDJ0q-9" value="&lt;font style=&quot;font-size: 72px;&quot;&gt;סדר תקיות כללי&lt;/font&gt;" style="text;html=1;whiteSpace=wrap;strokeColor=none;fillColor=none;align=center;verticalAlign=middle;rounded=0;" vertex="1" parent="1">
          <mxGeometry x="1500" y="-900" width="710" height="30" as="geometry" />
        </mxCell>
        <mxCell id="uP1VX3FrQpWZ977YDJ0q-10" value="&lt;font style=&quot;font-size: 72px;&quot;&gt;מחלקות בפרוייקט&lt;/font&gt;" style="text;html=1;whiteSpace=wrap;strokeColor=none;fillColor=none;align=center;verticalAlign=middle;rounded=0;" vertex="1" parent="1">
          <mxGeometry x="-490" y="170" width="710" height="30" as="geometry" />
        </mxCell>
        <UserObject label="" plantUmlData="{&#xa;  &quot;data&quot;: &quot;@startuml MultiJump-Detailed\n&#39; ===== Style =====\nskinparam backgroundColor white\nskinparam defaultFontColor black\nskinparam shadowing false\nskinparam ArrowColor #666\nskinparam sequence {\n  ArrowColor #666\n  LifeLineBorderColor #999\n  LifeLineBackgroundColor #FFFFFF\n  ParticipantBorderColor #333\n  ParticipantBackgroundColor #FFFFFF\n}\n\nactor Player\nparticipant \&quot;TileView\&quot; as Tile\nparticipant \&quot;GameBootstrap\\n(Presenter)\&quot; as GB\nparticipant \&quot;MatchService\\n(Application)\&quot; as MS\nparticipant \&quot;IRules\\n(Strategy)\&quot; as Rules\nparticipant \&quot;ITweenService\\n(Adapter)\&quot; as Tween\n\n== Select piece and first jump ==\nPlayer -&gt; Tile: Click(from)\nTile -&gt; GB: OnTileClicked(from)\nPlayer -&gt; Tile: Click(firstJump.to)\nTile -&gt; GB: OnTileClicked(to)\n\nGB -&gt; MS: LegalMoves()\nMS -&gt; Rules: LegalMoves(board, sideToMove)\nRules --&gt; MS: list&lt;Move&gt;\nMS --&gt; GB: list&lt;Move&gt;\nGB -&gt; GB: pick firstJump (includes Captured[mid])\n\nGB -&gt; GB: LockInput()\n\n== Chained jumps loop ==\nloop while next jumps exist from current square\n  &#39; Animate current jump\n  GB -&gt; Tween: MovePiece(pieceView, to, 0.2, onComplete)\n  Tween --&gt; GB: onComplete()\n\n  &#39; Simulate to discover next jump options\n  GB -&gt; MS: ProbeNextJumps(currentFrom=to,\\n capturedSoFar=[...])\n  MS -&gt; MS: clone board; apply simulated capture(s)\n  MS -&gt; Rules: LegalMoves(simBoard, sideToMove)\\n// filter to moves continuing from \&quot;to\&quot;\n  Rules --&gt; MS: nextJumpOptions\n  MS --&gt; GB: nextJumpOptions\n\n  alt nextJumpOptions not empty\n    GB -&gt; GB: Highlight choices on board\n    Player -&gt; Tile: Click(next.to)\n    Tile -&gt; GB: OnTileClicked(next.to)\n    GB -&gt; GB: Append to chain; update \&quot;to\&quot;\n  else (no more jumps)\n    break\n  end\nend\n\n== Commit composite move ==\nGB -&gt; MS: Apply(finalMove with full Captured list)\nMS -&gt; GB: OnPosition(board, sideToMove)\n\nalt reached last rank and piece was Man\n  GB -&gt; GB: Request crown visuals (king)\n  &#39; optional tween for crown or swap prefab\n  GB -&gt; Tween: Animate Crown()\nend\n\nGB -&gt; GB: UnlockInput(); Update UI/camera\n@enduml&quot;,&#xa;  &quot;format&quot;: &quot;svg&quot;&#xa;}" id="uP1VX3FrQpWZ977YDJ0q-12">
          <mxCell style="shape=image;noLabel=1;verticalAlign=top;aspect=fixed;imageAspect=0;image=data:image/svg+xml,PHN2ZyB4bWxucz0iaHR0cDovL3d3dy53My5vcmcvMjAwMC9zdmciIHhtbG5zOnhsaW5rPSJodHRwOi8vd3d3LnczLm9yZy8xOTk5L3hsaW5rIiBjb250ZW50U3R5bGVUeXBlPSJ0ZXh0L2NzcyIgZGF0YS1kaWFncmFtLXR5cGU9IlNFUVVFTkNFIiBoZWlnaHQ9IjEyNzZweCIgcHJlc2VydmVBc3BlY3RSYXRpbz0ibm9uZSIgc3R5bGU9IndpZHRoOjExMjRweDtoZWlnaHQ6MTI3NnB4O2JhY2tncm91bmQ6I0ZGRkZGRjsiIHZlcnNpb249IjEuMSIgdmlld0JveD0iMCAwIDExMjQgMTI3NiIgd2lkdGg9IjExMjRweCIgem9vbUFuZFBhbj0ibWFnbmlmeSI+PGRlZnMvPjxnPjxyZWN0IGZpbGw9Im5vbmUiIGhlaWdodD0iMTk3LjI1NzgiIHN0eWxlPSJzdHJva2U6IzAwMDAwMDtzdHJva2Utd2lkdGg6MS41OyIgd2lkdGg9IjU0OS41IiB4PSIyMCIgeT0iNzQ1LjA5MzgiLz48cmVjdCBmaWxsPSJub25lIiBoZWlnaHQ9IjE1LjkxNDEiIHN0eWxlPSJzdHJva2U6IzAwMDAwMDtzdHJva2Utd2lkdGg6MS41OyIgd2lkdGg9IjgyLjUiIHg9IjQwIiB5PSI5MTkuNDM3NSIvPjxyZWN0IGZpbGw9Im5vbmUiIGhlaWdodD0iODQuNzQyMiIgc3R5bGU9InN0cm9rZTojMDAwMDAwO3N0cm9rZS13aWR0aDoxLjU7IiB3aWR0aD0iNzkxIiB4PSIzMDYiIHk9IjEwNTQuMDkzOCIvPjxnPjx0aXRsZT5QbGF5ZXI8L3RpdGxlPjxyZWN0IGZpbGw9IiMwMDAwMDAiIGZpbGwtb3BhY2l0eT0iMC4wMDAwMCIgaGVpZ2h0PSIxMTE2Ljc2NTYiIHdpZHRoPSI4IiB4PSI1MCIgeT0iNzkuOTg0NCIvPjxsaW5lIHN0eWxlPSJzdHJva2U6Izk5OTk5OTtzdHJva2Utd2lkdGg6MC41O3N0cm9rZS1kYXNoYXJyYXk6NS4wLDUuMDsiIHgxPSI1NCIgeDI9IjU0IiB5MT0iNzkuOTg0NCIgeTI9IjExOTYuNzUiLz48L2c+PGc+PHRpdGxlPlRpbGVWaWV3PC90aXRsZT48cmVjdCBmaWxsPSIjMDAwMDAwIiBmaWxsLW9wYWNpdHk9IjAuMDAwMDAiIGhlaWdodD0iMTExNi43NjU2IiB3aWR0aD0iOCIgeD0iMTk3LjUiIHk9Ijc5Ljk4NDQiLz48bGluZSBzdHlsZT0ic3Ryb2tlOiM5OTk5OTk7c3Ryb2tlLXdpZHRoOjAuNTtzdHJva2UtZGFzaGFycmF5OjUuMCw1LjA7IiB4MT0iMjAxLjUiIHgyPSIyMDEuNSIgeTE9Ijc5Ljk4NDQiIHkyPSIxMTk2Ljc1Ii8+PC9nPjxnPjx0aXRsZT5HYW1lQm9vdHN0cmFwPC90aXRsZT48cmVjdCBmaWxsPSIjMDAwMDAwIiBmaWxsLW9wYWNpdHk9IjAuMDAwMDAiIGhlaWdodD0iMTExNi43NjU2IiB3aWR0aD0iOCIgeD0iMzY0LjUiIHk9Ijc5Ljk4NDQiLz48bGluZSBzdHlsZT0ic3Ryb2tlOiM5OTk5OTk7c3Ryb2tlLXdpZHRoOjAuNTtzdHJva2UtZGFzaGFycmF5OjUuMCw1LjA7IiB4MT0iMzY4IiB4Mj0iMzY4IiB5MT0iNzkuOTg0NCIgeTI9IjExOTYuNzUiLz48L2c+PGc+PHRpdGxlPk1hdGNoU2VydmljZTwvdGl0bGU+PHJlY3QgZmlsbD0iIzAwMDAwMCIgZmlsbC1vcGFjaXR5PSIwLjAwMDAwIiBoZWlnaHQ9IjExMTYuNzY1NiIgd2lkdGg9IjgiIHg9IjY0OC41IiB5PSI3OS45ODQ0Ii8+PGxpbmUgc3R5bGU9InN0cm9rZTojOTk5OTk5O3N0cm9rZS13aWR0aDowLjU7c3Ryb2tlLWRhc2hhcnJheTo1LjAsNS4wOyIgeDE9IjY1MiIgeDI9IjY1MiIgeTE9Ijc5Ljk4NDQiIHkyPSIxMTk2Ljc1Ii8+PC9nPjxnPjx0aXRsZT5JUnVsZXM8L3RpdGxlPjxyZWN0IGZpbGw9IiMwMDAwMDAiIGZpbGwtb3BhY2l0eT0iMC4wMDAwMCIgaGVpZ2h0PSIxMTE2Ljc2NTYiIHdpZHRoPSI4IiB4PSI5MjYiIHk9Ijc5Ljk4NDQiLz48bGluZSBzdHlsZT0ic3Ryb2tlOiM5OTk5OTk7c3Ryb2tlLXdpZHRoOjAuNTtzdHJva2UtZGFzaGFycmF5OjUuMCw1LjA7IiB4MT0iOTMwIiB4Mj0iOTMwIiB5MT0iNzkuOTg0NCIgeTI9IjExOTYuNzUiLz48L2c+PGc+PHRpdGxlPklUd2VlblNlcnZpY2U8L3RpdGxlPjxyZWN0IGZpbGw9IiMwMDAwMDAiIGZpbGwtb3BhY2l0eT0iMC4wMDAwMCIgaGVpZ2h0PSIxMTE2Ljc2NTYiIHdpZHRoPSI4IiB4PSIxMDMwLjUiIHk9Ijc5Ljk4NDQiLz48bGluZSBzdHlsZT0ic3Ryb2tlOiM5OTk5OTk7c3Ryb2tlLXdpZHRoOjAuNTtzdHJva2UtZGFzaGFycmF5OjUuMCw1LjA7IiB4MT0iMTAzNCIgeDI9IjEwMzQiIHkxPSI3OS45ODQ0IiB5Mj0iMTE5Ni43NSIvPjwvZz48ZyBjbGFzcz0icGFydGljaXBhbnQgcGFydGljaXBhbnQtaGVhZCIgZGF0YS1wYXJ0aWNpcGFudD0iUGxheWVyIj48dGV4dCBmaWxsPSIjMDAwMDAwIiBmb250LWZhbWlseT0ic2Fucy1zZXJpZiIgZm9udC1zaXplPSIxNCIgbGVuZ3RoQWRqdXN0PSJzcGFjaW5nIiB0ZXh0TGVuZ3RoPSI0MiIgeD0iMzAiIHk9Ijc4LjIzNDQiPlBsYXllcjwvdGV4dD48ZWxsaXBzZSBjeD0iNTQiIGN5PSIxMy41IiBmaWxsPSIjRTJFMkYwIiByeD0iOCIgcnk9IjgiIHN0eWxlPSJzdHJva2U6IzE4MTgxODtzdHJva2Utd2lkdGg6MC41OyIvPjxwYXRoIGQ9Ik01NCwyMS41IEw1NCw0OC41IE00MSwyOS41IEw2NywyOS41IE01NCw0OC41IEw0MSw2My41IE01NCw0OC41IEw2Nyw2My41IiBmaWxsPSJub25lIiBzdHlsZT0ic3Ryb2tlOiMxODE4MTg7c3Ryb2tlLXdpZHRoOjAuNTsiLz48L2c+PGcgY2xhc3M9InBhcnRpY2lwYW50IHBhcnRpY2lwYW50LXRhaWwiIGRhdGEtcGFydGljaXBhbnQ9IlBsYXllciI+PHRleHQgZmlsbD0iIzAwMDAwMCIgZm9udC1mYW1pbHk9InNhbnMtc2VyaWYiIGZvbnQtc2l6ZT0iMTQiIGxlbmd0aEFkanVzdD0ic3BhY2luZyIgdGV4dExlbmd0aD0iNDIiIHg9IjMwIiB5PSIxMjA4Ljk4NDQiPlBsYXllcjwvdGV4dD48ZWxsaXBzZSBjeD0iNTQiIGN5PSIxMjE5LjIzNDQiIGZpbGw9IiNFMkUyRjAiIHJ4PSI4IiByeT0iOCIgc3R5bGU9InN0cm9rZTojMTgxODE4O3N0cm9rZS13aWR0aDowLjU7Ii8+PHBhdGggZD0iTTU0LDEyMjcuMjM0NCBMNTQsMTI1NC4yMzQ0IE00MSwxMjM1LjIzNDQgTDY3LDEyMzUuMjM0NCBNNTQsMTI1NC4yMzQ0IEw0MSwxMjY5LjIzNDQgTTU0LDEyNTQuMjM0NCBMNjcsMTI2OS4yMzQ0IiBmaWxsPSJub25lIiBzdHlsZT0ic3Ryb2tlOiMxODE4MTg7c3Ryb2tlLXdpZHRoOjAuNTsiLz48L2c+PGcgY2xhc3M9InBhcnRpY2lwYW50IHBhcnRpY2lwYW50LWhlYWQiIGRhdGEtcGFydGljaXBhbnQ9IlRpbGUiPjxyZWN0IGZpbGw9IiNGRkZGRkYiIGhlaWdodD0iMjguOTg0NCIgcng9IjIuNSIgcnk9IjIuNSIgc3R5bGU9InN0cm9rZTojMzMzMzMzO3N0cm9rZS13aWR0aDowLjU7IiB3aWR0aD0iNzAiIHg9IjE2Ni41IiB5PSI1MCIvPjx0ZXh0IGZpbGw9IiMwMDAwMDAiIGZvbnQtZmFtaWx5PSJzYW5zLXNlcmlmIiBmb250LXNpemU9IjE0IiBsZW5ndGhBZGp1c3Q9InNwYWNpbmciIHRleHRMZW5ndGg9IjU2IiB4PSIxNzMuNSIgeT0iNzAuMjM0NCI+VGlsZVZpZXc8L3RleHQ+PC9nPjxnIGNsYXNzPSJwYXJ0aWNpcGFudCBwYXJ0aWNpcGFudC10YWlsIiBkYXRhLXBhcnRpY2lwYW50PSJUaWxlIj48cmVjdCBmaWxsPSIjRkZGRkZGIiBoZWlnaHQ9IjI4Ljk4NDQiIHJ4PSIyLjUiIHJ5PSIyLjUiIHN0eWxlPSJzdHJva2U6IzMzMzMzMztzdHJva2Utd2lkdGg6MC41OyIgd2lkdGg9IjcwIiB4PSIxNjYuNSIgeT0iMTE5NS43NSIvPjx0ZXh0IGZpbGw9IiMwMDAwMDAiIGZvbnQtZmFtaWx5PSJzYW5zLXNlcmlmIiBmb250LXNpemU9IjE0IiBsZW5ndGhBZGp1c3Q9InNwYWNpbmciIHRleHRMZW5ndGg9IjU2IiB4PSIxNzMuNSIgeT0iMTIxNS45ODQ0Ij5UaWxlVmlldzwvdGV4dD48L2c+PGcgY2xhc3M9InBhcnRpY2lwYW50IHBhcnRpY2lwYW50LWhlYWQiIGRhdGEtcGFydGljaXBhbnQ9IkdCIj48cmVjdCBmaWxsPSIjRkZGRkZGIiBoZWlnaHQ9IjQzLjk2ODgiIHJ4PSIyLjUiIHJ5PSIyLjUiIHN0eWxlPSJzdHJva2U6IzMzMzMzMztzdHJva2Utd2lkdGg6MC41OyIgd2lkdGg9IjEwNSIgeD0iMzE2IiB5PSIzNS4wMTU2Ii8+PHRleHQgZmlsbD0iIzAwMDAwMCIgZm9udC1mYW1pbHk9InNhbnMtc2VyaWYiIGZvbnQtc2l6ZT0iMTQiIGxlbmd0aEFkanVzdD0ic3BhY2luZyIgdGV4dExlbmd0aD0iOTEiIHg9IjMyMyIgeT0iNTUuMjUiPkdhbWVCb290c3RyYXA8L3RleHQ+PHRleHQgZmlsbD0iIzAwMDAwMCIgZm9udC1mYW1pbHk9InNhbnMtc2VyaWYiIGZvbnQtc2l6ZT0iMTQiIGxlbmd0aEFkanVzdD0ic3BhY2luZyIgdGV4dExlbmd0aD0iNzciIHg9IjMzMCIgeT0iNzAuMjM0NCI+KFByZXNlbnRlcik8L3RleHQ+PC9nPjxnIGNsYXNzPSJwYXJ0aWNpcGFudCBwYXJ0aWNpcGFudC10YWlsIiBkYXRhLXBhcnRpY2lwYW50PSJHQiI+PHJlY3QgZmlsbD0iI0ZGRkZGRiIgaGVpZ2h0PSI0My45Njg4IiByeD0iMi41IiByeT0iMi41IiBzdHlsZT0ic3Ryb2tlOiMzMzMzMzM7c3Ryb2tlLXdpZHRoOjAuNTsiIHdpZHRoPSIxMDUiIHg9IjMxNiIgeT0iMTE5NS43NSIvPjx0ZXh0IGZpbGw9IiMwMDAwMDAiIGZvbnQtZmFtaWx5PSJzYW5zLXNlcmlmIiBmb250LXNpemU9IjE0IiBsZW5ndGhBZGp1c3Q9InNwYWNpbmciIHRleHRMZW5ndGg9IjkxIiB4PSIzMjMiIHk9IjEyMTUuOTg0NCI+R2FtZUJvb3RzdHJhcDwvdGV4dD48dGV4dCBmaWxsPSIjMDAwMDAwIiBmb250LWZhbWlseT0ic2Fucy1zZXJpZiIgZm9udC1zaXplPSIxNCIgbGVuZ3RoQWRqdXN0PSJzcGFjaW5nIiB0ZXh0TGVuZ3RoPSI3NyIgeD0iMzMwIiB5PSIxMjMwLjk2ODgiPihQcmVzZW50ZXIpPC90ZXh0PjwvZz48ZyBjbGFzcz0icGFydGljaXBhbnQgcGFydGljaXBhbnQtaGVhZCIgZGF0YS1wYXJ0aWNpcGFudD0iTVMiPjxyZWN0IGZpbGw9IiNGRkZGRkYiIGhlaWdodD0iNDMuOTY4OCIgcng9IjIuNSIgcnk9IjIuNSIgc3R5bGU9InN0cm9rZTojMzMzMzMzO3N0cm9rZS13aWR0aDowLjU7IiB3aWR0aD0iMTA1IiB4PSI2MDAiIHk9IjM1LjAxNTYiLz48dGV4dCBmaWxsPSIjMDAwMDAwIiBmb250LWZhbWlseT0ic2Fucy1zZXJpZiIgZm9udC1zaXplPSIxNCIgbGVuZ3RoQWRqdXN0PSJzcGFjaW5nIiB0ZXh0TGVuZ3RoPSI4NCIgeD0iNjEwLjUiIHk9IjU1LjI1Ij5NYXRjaFNlcnZpY2U8L3RleHQ+PHRleHQgZmlsbD0iIzAwMDAwMCIgZm9udC1mYW1pbHk9InNhbnMtc2VyaWYiIGZvbnQtc2l6ZT0iMTQiIGxlbmd0aEFkanVzdD0ic3BhY2luZyIgdGV4dExlbmd0aD0iOTEiIHg9IjYwNyIgeT0iNzAuMjM0NCI+KEFwcGxpY2F0aW9uKTwvdGV4dD48L2c+PGcgY2xhc3M9InBhcnRpY2lwYW50IHBhcnRpY2lwYW50LXRhaWwiIGRhdGEtcGFydGljaXBhbnQ9Ik1TIj48cmVjdCBmaWxsPSIjRkZGRkZGIiBoZWlnaHQ9IjQzLjk2ODgiIHJ4PSIyLjUiIHJ5PSIyLjUiIHN0eWxlPSJzdHJva2U6IzMzMzMzMztzdHJva2Utd2lkdGg6MC41OyIgd2lkdGg9IjEwNSIgeD0iNjAwIiB5PSIxMTk1Ljc1Ii8+PHRleHQgZmlsbD0iIzAwMDAwMCIgZm9udC1mYW1pbHk9InNhbnMtc2VyaWYiIGZvbnQtc2l6ZT0iMTQiIGxlbmd0aEFkanVzdD0ic3BhY2luZyIgdGV4dExlbmd0aD0iODQiIHg9IjYxMC41IiB5PSIxMjE1Ljk4NDQiPk1hdGNoU2VydmljZTwvdGV4dD48dGV4dCBmaWxsPSIjMDAwMDAwIiBmb250LWZhbWlseT0ic2Fucy1zZXJpZiIgZm9udC1zaXplPSIxNCIgbGVuZ3RoQWRqdXN0PSJzcGFjaW5nIiB0ZXh0TGVuZ3RoPSI5MSIgeD0iNjA3IiB5PSIxMjMwLjk2ODgiPihBcHBsaWNhdGlvbik8L3RleHQ+PC9nPjxnIGNsYXNzPSJwYXJ0aWNpcGFudCBwYXJ0aWNpcGFudC1oZWFkIiBkYXRhLXBhcnRpY2lwYW50PSJSdWxlcyI+PHJlY3QgZmlsbD0iI0ZGRkZGRiIgaGVpZ2h0PSI0My45Njg4IiByeD0iMi41IiByeT0iMi41IiBzdHlsZT0ic3Ryb2tlOiMzMzMzMzM7c3Ryb2tlLXdpZHRoOjAuNTsiIHdpZHRoPSI4NCIgeD0iODg4IiB5PSIzNS4wMTU2Ii8+PHRleHQgZmlsbD0iIzAwMDAwMCIgZm9udC1mYW1pbHk9InNhbnMtc2VyaWYiIGZvbnQtc2l6ZT0iMTQiIGxlbmd0aEFkanVzdD0ic3BhY2luZyIgdGV4dExlbmd0aD0iNDIiIHg9IjkwOSIgeT0iNTUuMjUiPklSdWxlczwvdGV4dD48dGV4dCBmaWxsPSIjMDAwMDAwIiBmb250LWZhbWlseT0ic2Fucy1zZXJpZiIgZm9udC1zaXplPSIxNCIgbGVuZ3RoQWRqdXN0PSJzcGFjaW5nIiB0ZXh0TGVuZ3RoPSI3MCIgeD0iODk1IiB5PSI3MC4yMzQ0Ij4oU3RyYXRlZ3kpPC90ZXh0PjwvZz48ZyBjbGFzcz0icGFydGljaXBhbnQgcGFydGljaXBhbnQtdGFpbCIgZGF0YS1wYXJ0aWNpcGFudD0iUnVsZXMiPjxyZWN0IGZpbGw9IiNGRkZGRkYiIGhlaWdodD0iNDMuOTY4OCIgcng9IjIuNSIgcnk9IjIuNSIgc3R5bGU9InN0cm9rZTojMzMzMzMzO3N0cm9rZS13aWR0aDowLjU7IiB3aWR0aD0iODQiIHg9Ijg4OCIgeT0iMTE5NS43NSIvPjx0ZXh0IGZpbGw9IiMwMDAwMDAiIGZvbnQtZmFtaWx5PSJzYW5zLXNlcmlmIiBmb250LXNpemU9IjE0IiBsZW5ndGhBZGp1c3Q9InNwYWNpbmciIHRleHRMZW5ndGg9IjQyIiB4PSI5MDkiIHk9IjEyMTUuOTg0NCI+SVJ1bGVzPC90ZXh0Pjx0ZXh0IGZpbGw9IiMwMDAwMDAiIGZvbnQtZmFtaWx5PSJzYW5zLXNlcmlmIiBmb250LXNpemU9IjE0IiBsZW5ndGhBZGp1c3Q9InNwYWNpbmciIHRleHRMZW5ndGg9IjcwIiB4PSI4OTUiIHk9IjEyMzAuOTY4OCI+KFN0cmF0ZWd5KTwvdGV4dD48L2c+PGcgY2xhc3M9InBhcnRpY2lwYW50IHBhcnRpY2lwYW50LWhlYWQiIGRhdGEtcGFydGljaXBhbnQ9IlR3ZWVuIj48cmVjdCBmaWxsPSIjRkZGRkZGIiBoZWlnaHQ9IjQzLjk2ODgiIHJ4PSIyLjUiIHJ5PSIyLjUiIHN0eWxlPSJzdHJva2U6IzMzMzMzMztzdHJva2Utd2lkdGg6MC41OyIgd2lkdGg9IjEwNSIgeD0iOTgyIiB5PSIzNS4wMTU2Ii8+PHRleHQgZmlsbD0iIzAwMDAwMCIgZm9udC1mYW1pbHk9InNhbnMtc2VyaWYiIGZvbnQtc2l6ZT0iMTQiIGxlbmd0aEFkanVzdD0ic3BhY2luZyIgdGV4dExlbmd0aD0iOTEiIHg9Ijk4OSIgeT0iNTUuMjUiPklUd2VlblNlcnZpY2U8L3RleHQ+PHRleHQgZmlsbD0iIzAwMDAwMCIgZm9udC1mYW1pbHk9InNhbnMtc2VyaWYiIGZvbnQtc2l6ZT0iMTQiIGxlbmd0aEFkanVzdD0ic3BhY2luZyIgdGV4dExlbmd0aD0iNjMiIHg9IjEwMDMiIHk9IjcwLjIzNDQiPihBZGFwdGVyKTwvdGV4dD48L2c+PGcgY2xhc3M9InBhcnRpY2lwYW50IHBhcnRpY2lwYW50LXRhaWwiIGRhdGEtcGFydGljaXBhbnQ9IlR3ZWVuIj48cmVjdCBmaWxsPSIjRkZGRkZGIiBoZWlnaHQ9IjQzLjk2ODgiIHJ4PSIyLjUiIHJ5PSIyLjUiIHN0eWxlPSJzdHJva2U6IzMzMzMzMztzdHJva2Utd2lkdGg6MC41OyIgd2lkdGg9IjEwNSIgeD0iOTgyIiB5PSIxMTk1Ljc1Ii8+PHRleHQgZmlsbD0iIzAwMDAwMCIgZm9udC1mYW1pbHk9InNhbnMtc2VyaWYiIGZvbnQtc2l6ZT0iMTQiIGxlbmd0aEFkanVzdD0ic3BhY2luZyIgdGV4dExlbmd0aD0iOTEiIHg9Ijk4OSIgeT0iMTIxNS45ODQ0Ij5JVHdlZW5TZXJ2aWNlPC90ZXh0Pjx0ZXh0IGZpbGw9IiMwMDAwMDAiIGZvbnQtZmFtaWx5PSJzYW5zLXNlcmlmIiBmb250LXNpemU9IjE0IiBsZW5ndGhBZGp1c3Q9InNwYWNpbmciIHRleHRMZW5ndGg9IjYzIiB4PSIxMDAzIiB5PSIxMjMwLjk2ODgiPihBZGFwdGVyKTwvdGV4dD48L2c+PHJlY3QgZmlsbD0iI0VFRUVFRSIgaGVpZ2h0PSIzIiBzdHlsZT0ic3Ryb2tlOiNFRUVFRUU7c3Ryb2tlLXdpZHRoOjE7IiB3aWR0aD0iMTExNyIgeD0iMCIgeT0iMTA5Ljk0MTQiLz48bGluZSBzdHlsZT0ic3Ryb2tlOiMwMDAwMDA7c3Ryb2tlLXdpZHRoOjE7IiB4MT0iMCIgeDI9IjExMTciIHkxPSIxMDkuOTQxNCIgeTI9IjEwOS45NDE0Ii8+PGxpbmUgc3R5bGU9InN0cm9rZTojMDAwMDAwO3N0cm9rZS13aWR0aDoxOyIgeDE9IjAiIHgyPSIxMTE3IiB5MT0iMTEyLjk0MTQiIHkyPSIxMTIuOTQxNCIvPjxyZWN0IGZpbGw9IiNFRUVFRUUiIGhlaWdodD0iMjEuOTE0MSIgc3R5bGU9InN0cm9rZTojMDAwMDAwO3N0cm9rZS13aWR0aDoyOyIgd2lkdGg9IjE5NiIgeD0iNDYwLjUiIHk9Ijk5Ljk4NDQiLz48dGV4dCBmaWxsPSIjMDAwMDAwIiBmb250LWZhbWlseT0ic2Fucy1zZXJpZiIgZm9udC1zaXplPSIxMyIgZm9udC13ZWlnaHQ9ImJvbGQiIGxlbmd0aEFkanVzdD0ic3BhY2luZyIgdGV4dExlbmd0aD0iMTc1LjUiIHg9IjQ2Ni41IiB5PSIxMTYuMjczNCI+U2VsZWN0IHBpZWNlIGFuZCBmaXJzdCBqdW1wPC90ZXh0PjxnIGNsYXNzPSJtZXNzYWdlIiBkYXRhLXBhcnRpY2lwYW50LTE9IlBsYXllciIgZGF0YS1wYXJ0aWNpcGFudC0yPSJUaWxlIj48cG9seWdvbiBmaWxsPSIjNjY2NjY2IiBwb2ludHM9IjE4OS41LDE0Ny44MTI1LDE5OS41LDE1MS44MTI1LDE4OS41LDE1NS44MTI1LDE5My41LDE1MS44MTI1IiBzdHlsZT0ic3Ryb2tlOiM2NjY2NjY7c3Ryb2tlLXdpZHRoOjE7Ii8+PGxpbmUgc3R5bGU9InN0cm9rZTojNjY2NjY2O3N0cm9rZS13aWR0aDoxOyIgeDE9IjU0IiB4Mj0iMTk1LjUiIHkxPSIxNTEuODEyNSIgeTI9IjE1MS44MTI1Ii8+PHRleHQgZmlsbD0iIzAwMDAwMCIgZm9udC1mYW1pbHk9InNhbnMtc2VyaWYiIGZvbnQtc2l6ZT0iMTMiIGxlbmd0aEFkanVzdD0ic3BhY2luZyIgdGV4dExlbmd0aD0iNzEuNSIgeD0iNjEiIHk9IjE0OC4xODc1Ij5DbGljayhmcm9tKTwvdGV4dD48L2c+PGcgY2xhc3M9Im1lc3NhZ2UiIGRhdGEtcGFydGljaXBhbnQtMT0iVGlsZSIgZGF0YS1wYXJ0aWNpcGFudC0yPSJHQiI+PHBvbHlnb24gZmlsbD0iIzY2NjY2NiIgcG9pbnRzPSIzNTYuNSwxNzUuNzI2NiwzNjYuNSwxNzkuNzI2NiwzNTYuNSwxODMuNzI2NiwzNjAuNSwxNzkuNzI2NiIgc3R5bGU9InN0cm9rZTojNjY2NjY2O3N0cm9rZS13aWR0aDoxOyIvPjxsaW5lIHN0eWxlPSJzdHJva2U6IzY2NjY2NjtzdHJva2Utd2lkdGg6MTsiIHgxPSIyMDEuNSIgeDI9IjM2Mi41IiB5MT0iMTc5LjcyNjYiIHkyPSIxNzkuNzI2NiIvPjx0ZXh0IGZpbGw9IiMwMDAwMDAiIGZvbnQtZmFtaWx5PSJzYW5zLXNlcmlmIiBmb250LXNpemU9IjEzIiBsZW5ndGhBZGp1c3Q9InNwYWNpbmciIHRleHRMZW5ndGg9IjEyMy41IiB4PSIyMDguNSIgeT0iMTc2LjEwMTYiPk9uVGlsZUNsaWNrZWQoZnJvbSk8L3RleHQ+PC9nPjxnIGNsYXNzPSJtZXNzYWdlIiBkYXRhLXBhcnRpY2lwYW50LTE9IlBsYXllciIgZGF0YS1wYXJ0aWNpcGFudC0yPSJUaWxlIj48cG9seWdvbiBmaWxsPSIjNjY2NjY2IiBwb2ludHM9IjE4OS41LDIwMy42NDA2LDE5OS41LDIwNy42NDA2LDE4OS41LDIxMS42NDA2LDE5My41LDIwNy42NDA2IiBzdHlsZT0ic3Ryb2tlOiM2NjY2NjY7c3Ryb2tlLXdpZHRoOjE7Ii8+PGxpbmUgc3R5bGU9InN0cm9rZTojNjY2NjY2O3N0cm9rZS13aWR0aDoxOyIgeDE9IjU0IiB4Mj0iMTk1LjUiIHkxPSIyMDcuNjQwNiIgeTI9IjIwNy42NDA2Ii8+PHRleHQgZmlsbD0iIzAwMDAwMCIgZm9udC1mYW1pbHk9InNhbnMtc2VyaWYiIGZvbnQtc2l6ZT0iMTMiIGxlbmd0aEFkanVzdD0ic3BhY2luZyIgdGV4dExlbmd0aD0iMTIzLjUiIHg9IjYxIiB5PSIyMDQuMDE1NiI+Q2xpY2soZmlyc3RKdW1wLnRvKTwvdGV4dD48L2c+PGcgY2xhc3M9Im1lc3NhZ2UiIGRhdGEtcGFydGljaXBhbnQtMT0iVGlsZSIgZGF0YS1wYXJ0aWNpcGFudC0yPSJHQiI+PHBvbHlnb24gZmlsbD0iIzY2NjY2NiIgcG9pbnRzPSIzNTYuNSwyMzEuNTU0NywzNjYuNSwyMzUuNTU0NywzNTYuNSwyMzkuNTU0NywzNjAuNSwyMzUuNTU0NyIgc3R5bGU9InN0cm9rZTojNjY2NjY2O3N0cm9rZS13aWR0aDoxOyIvPjxsaW5lIHN0eWxlPSJzdHJva2U6IzY2NjY2NjtzdHJva2Utd2lkdGg6MTsiIHgxPSIyMDEuNSIgeDI9IjM2Mi41IiB5MT0iMjM1LjU1NDciIHkyPSIyMzUuNTU0NyIvPjx0ZXh0IGZpbGw9IiMwMDAwMDAiIGZvbnQtZmFtaWx5PSJzYW5zLXNlcmlmIiBmb250LXNpemU9IjEzIiBsZW5ndGhBZGp1c3Q9InNwYWNpbmciIHRleHRMZW5ndGg9IjExMC41IiB4PSIyMDguNSIgeT0iMjMxLjkyOTciPk9uVGlsZUNsaWNrZWQodG8pPC90ZXh0PjwvZz48ZyBjbGFzcz0ibWVzc2FnZSIgZGF0YS1wYXJ0aWNpcGFudC0xPSJHQiIgZGF0YS1wYXJ0aWNpcGFudC0yPSJNUyI+PHBvbHlnb24gZmlsbD0iIzY2NjY2NiIgcG9pbnRzPSI2NDAuNSwyNTkuNDY4OCw2NTAuNSwyNjMuNDY4OCw2NDAuNSwyNjcuNDY4OCw2NDQuNSwyNjMuNDY4OCIgc3R5bGU9InN0cm9rZTojNjY2NjY2O3N0cm9rZS13aWR0aDoxOyIvPjxsaW5lIHN0eWxlPSJzdHJva2U6IzY2NjY2NjtzdHJva2Utd2lkdGg6MTsiIHgxPSIzNjguNSIgeDI9IjY0Ni41IiB5MT0iMjYzLjQ2ODgiIHkyPSIyNjMuNDY4OCIvPjx0ZXh0IGZpbGw9IiMwMDAwMDAiIGZvbnQtZmFtaWx5PSJzYW5zLXNlcmlmIiBmb250LXNpemU9IjEzIiBsZW5ndGhBZGp1c3Q9InNwYWNpbmciIHRleHRMZW5ndGg9Ijc4IiB4PSIzNzUuNSIgeT0iMjU5Ljg0MzgiPkxlZ2FsTW92ZXMoKTwvdGV4dD48L2c+PGcgY2xhc3M9Im1lc3NhZ2UiIGRhdGEtcGFydGljaXBhbnQtMT0iTVMiIGRhdGEtcGFydGljaXBhbnQtMj0iUnVsZXMiPjxwb2x5Z29uIGZpbGw9IiM2NjY2NjYiIHBvaW50cz0iOTE4LDI4Ny4zODI4LDkyOCwyOTEuMzgyOCw5MTgsMjk1LjM4MjgsOTIyLDI5MS4zODI4IiBzdHlsZT0ic3Ryb2tlOiM2NjY2NjY7c3Ryb2tlLXdpZHRoOjE7Ii8+PGxpbmUgc3R5bGU9InN0cm9rZTojNjY2NjY2O3N0cm9rZS13aWR0aDoxOyIgeDE9IjY1Mi41IiB4Mj0iOTI0IiB5MT0iMjkxLjM4MjgiIHkyPSIyOTEuMzgyOCIvPjx0ZXh0IGZpbGw9IiMwMDAwMDAiIGZvbnQtZmFtaWx5PSJzYW5zLXNlcmlmIiBmb250LXNpemU9IjEzIiBsZW5ndGhBZGp1c3Q9InNwYWNpbmciIHRleHRMZW5ndGg9IjE4OC41IiB4PSI2NTkuNSIgeT0iMjg3Ljc1NzgiPkxlZ2FsTW92ZXMoYm9hcmQsIHNpZGVUb01vdmUpPC90ZXh0PjwvZz48ZyBjbGFzcz0ibWVzc2FnZSIgZGF0YS1wYXJ0aWNpcGFudC0xPSJSdWxlcyIgZGF0YS1wYXJ0aWNpcGFudC0yPSJNUyI+PHBvbHlnb24gZmlsbD0iIzY2NjY2NiIgcG9pbnRzPSI2NjMuNSwzMTUuMjk2OSw2NTMuNSwzMTkuMjk2OSw2NjMuNSwzMjMuMjk2OSw2NTkuNSwzMTkuMjk2OSIgc3R5bGU9InN0cm9rZTojNjY2NjY2O3N0cm9rZS13aWR0aDoxOyIvPjxsaW5lIHN0eWxlPSJzdHJva2U6IzY2NjY2NjtzdHJva2Utd2lkdGg6MTtzdHJva2UtZGFzaGFycmF5OjIuMCwyLjA7IiB4MT0iNjU3LjUiIHgyPSI5MjkiIHkxPSIzMTkuMjk2OSIgeTI9IjMxOS4yOTY5Ii8+PHRleHQgZmlsbD0iIzAwMDAwMCIgZm9udC1mYW1pbHk9InNhbnMtc2VyaWYiIGZvbnQtc2l6ZT0iMTMiIGxlbmd0aEFkanVzdD0ic3BhY2luZyIgdGV4dExlbmd0aD0iNjUiIHg9IjY2OS41IiB5PSIzMTUuNjcxOSI+bGlzdCZsdDtNb3ZlJmd0OzwvdGV4dD48L2c+PGcgY2xhc3M9Im1lc3NhZ2UiIGRhdGEtcGFydGljaXBhbnQtMT0iTVMiIGRhdGEtcGFydGljaXBhbnQtMj0iR0IiPjxwb2x5Z29uIGZpbGw9IiM2NjY2NjYiIHBvaW50cz0iMzc5LjUsMzQzLjIxMDksMzY5LjUsMzQ3LjIxMDksMzc5LjUsMzUxLjIxMDksMzc1LjUsMzQ3LjIxMDkiIHN0eWxlPSJzdHJva2U6IzY2NjY2NjtzdHJva2Utd2lkdGg6MTsiLz48bGluZSBzdHlsZT0ic3Ryb2tlOiM2NjY2NjY7c3Ryb2tlLXdpZHRoOjE7c3Ryb2tlLWRhc2hhcnJheToyLjAsMi4wOyIgeDE9IjM3My41IiB4Mj0iNjUxLjUiIHkxPSIzNDcuMjEwOSIgeTI9IjM0Ny4yMTA5Ii8+PHRleHQgZmlsbD0iIzAwMDAwMCIgZm9udC1mYW1pbHk9InNhbnMtc2VyaWYiIGZvbnQtc2l6ZT0iMTMiIGxlbmd0aEFkanVzdD0ic3BhY2luZyIgdGV4dExlbmd0aD0iNjUiIHg9IjM4NS41IiB5PSIzNDMuNTg1OSI+bGlzdCZsdDtNb3ZlJmd0OzwvdGV4dD48L2c+PGcgY2xhc3M9Im1lc3NhZ2UiIGRhdGEtcGFydGljaXBhbnQtMT0iR0IiIGRhdGEtcGFydGljaXBhbnQtMj0iR0IiPjxsaW5lIHN0eWxlPSJzdHJva2U6IzY2NjY2NjtzdHJva2Utd2lkdGg6MTsiIHgxPSIzNjguNSIgeDI9IjQxMC41IiB5MT0iMzc1LjEyNSIgeTI9IjM3NS4xMjUiLz48bGluZSBzdHlsZT0ic3Ryb2tlOiM2NjY2NjY7c3Ryb2tlLXdpZHRoOjE7IiB4MT0iNDEwLjUiIHgyPSI0MTAuNSIgeTE9IjM3NS4xMjUiIHkyPSIzODguMTI1Ii8+PGxpbmUgc3R5bGU9InN0cm9rZTojNjY2NjY2O3N0cm9rZS13aWR0aDoxOyIgeDE9IjM2OS41IiB4Mj0iNDEwLjUiIHkxPSIzODguMTI1IiB5Mj0iMzg4LjEyNSIvPjxwb2x5Z29uIGZpbGw9IiM2NjY2NjYiIHBvaW50cz0iMzc5LjUsMzg0LjEyNSwzNjkuNSwzODguMTI1LDM3OS41LDM5Mi4xMjUsMzc1LjUsMzg4LjEyNSIgc3R5bGU9InN0cm9rZTojNjY2NjY2O3N0cm9rZS13aWR0aDoxOyIvPjx0ZXh0IGZpbGw9IiMwMDAwMDAiIGZvbnQtZmFtaWx5PSJzYW5zLXNlcmlmIiBmb250LXNpemU9IjEzIiBsZW5ndGhBZGp1c3Q9InNwYWNpbmciIHRleHRMZW5ndGg9IjI1My41IiB4PSIzNzUuNSIgeT0iMzcxLjUiPnBpY2sgZmlyc3RKdW1wIChpbmNsdWRlcyBDYXB0dXJlZFttaWRdKTwvdGV4dD48L2c+PGcgY2xhc3M9Im1lc3NhZ2UiIGRhdGEtcGFydGljaXBhbnQtMT0iR0IiIGRhdGEtcGFydGljaXBhbnQtMj0iR0IiPjxsaW5lIHN0eWxlPSJzdHJva2U6IzY2NjY2NjtzdHJva2Utd2lkdGg6MTsiIHgxPSIzNjguNSIgeDI9IjQxMC41IiB5MT0iNDE2LjAzOTEiIHkyPSI0MTYuMDM5MSIvPjxsaW5lIHN0eWxlPSJzdHJva2U6IzY2NjY2NjtzdHJva2Utd2lkdGg6MTsiIHgxPSI0MTAuNSIgeDI9IjQxMC41IiB5MT0iNDE2LjAzOTEiIHkyPSI0MjkuMDM5MSIvPjxsaW5lIHN0eWxlPSJzdHJva2U6IzY2NjY2NjtzdHJva2Utd2lkdGg6MTsiIHgxPSIzNjkuNSIgeDI9IjQxMC41IiB5MT0iNDI5LjAzOTEiIHkyPSI0MjkuMDM5MSIvPjxwb2x5Z29uIGZpbGw9IiM2NjY2NjYiIHBvaW50cz0iMzc5LjUsNDI1LjAzOTEsMzY5LjUsNDI5LjAzOTEsMzc5LjUsNDMzLjAzOTEsMzc1LjUsNDI5LjAzOTEiIHN0eWxlPSJzdHJva2U6IzY2NjY2NjtzdHJva2Utd2lkdGg6MTsiLz48dGV4dCBmaWxsPSIjMDAwMDAwIiBmb250LWZhbWlseT0ic2Fucy1zZXJpZiIgZm9udC1zaXplPSIxMyIgbGVuZ3RoQWRqdXN0PSJzcGFjaW5nIiB0ZXh0TGVuZ3RoPSI3MS41IiB4PSIzNzUuNSIgeT0iNDEyLjQxNDEiPkxvY2tJbnB1dCgpPC90ZXh0PjwvZz48cmVjdCBmaWxsPSIjRUVFRUVFIiBoZWlnaHQ9IjMiIHN0eWxlPSJzdHJva2U6I0VFRUVFRTtzdHJva2Utd2lkdGg6MTsiIHdpZHRoPSIxMTE3IiB4PSIwIiB5PSI0NTYuOTk2MSIvPjxsaW5lIHN0eWxlPSJzdHJva2U6IzAwMDAwMDtzdHJva2Utd2lkdGg6MTsiIHgxPSIwIiB4Mj0iMTExNyIgeTE9IjQ1Ni45OTYxIiB5Mj0iNDU2Ljk5NjEiLz48bGluZSBzdHlsZT0ic3Ryb2tlOiMwMDAwMDA7c3Ryb2tlLXdpZHRoOjE7IiB4MT0iMCIgeDI9IjExMTciIHkxPSI0NTkuOTk2MSIgeTI9IjQ1OS45OTYxIi8+PHJlY3QgZmlsbD0iI0VFRUVFRSIgaGVpZ2h0PSIyMS45MTQxIiBzdHlsZT0ic3Ryb2tlOiMwMDAwMDA7c3Ryb2tlLXdpZHRoOjI7IiB3aWR0aD0iMTM3LjUiIHg9IjQ4OS43NSIgeT0iNDQ3LjAzOTEiLz48dGV4dCBmaWxsPSIjMDAwMDAwIiBmb250LWZhbWlseT0ic2Fucy1zZXJpZiIgZm9udC1zaXplPSIxMyIgZm9udC13ZWlnaHQ9ImJvbGQiIGxlbmd0aEFkanVzdD0ic3BhY2luZyIgdGV4dExlbmd0aD0iMTE3IiB4PSI0OTUuNzUiIHk9IjQ2My4zMjgxIj5DaGFpbmVkIGp1bXBzIGxvb3A8L3RleHQ+PGcgY2xhc3M9Im1lc3NhZ2UiIGRhdGEtcGFydGljaXBhbnQtMT0iR0IiIGRhdGEtcGFydGljaXBhbnQtMj0iVHdlZW4iPjxwb2x5Z29uIGZpbGw9IiM2NjY2NjYiIHBvaW50cz0iMTAyMi41LDUxNy43ODEzLDEwMzIuNSw1MjEuNzgxMywxMDIyLjUsNTI1Ljc4MTMsMTAyNi41LDUyMS43ODEzIiBzdHlsZT0ic3Ryb2tlOiM2NjY2NjY7c3Ryb2tlLXdpZHRoOjE7Ii8+PGxpbmUgc3R5bGU9InN0cm9rZTojNjY2NjY2O3N0cm9rZS13aWR0aDoxOyIgeDE9IjM2OC41IiB4Mj0iMTAyOC41IiB5MT0iNTIxLjc4MTMiIHkyPSI1MjEuNzgxMyIvPjx0ZXh0IGZpbGw9IiMwMDAwMDAiIGZvbnQtZmFtaWx5PSJzYW5zLXNlcmlmIiBmb250LXNpemU9IjEzIiBsZW5ndGhBZGp1c3Q9InNwYWNpbmciIHRleHRMZW5ndGg9IjI2Ni41IiB4PSIzNzUuNSIgeT0iNTE4LjE1NjMiPk1vdmVQaWVjZShwaWVjZVZpZXcsIHRvLCAwLjIsIG9uQ29tcGxldGUpPC90ZXh0PjwvZz48ZyBjbGFzcz0ibWVzc2FnZSIgZGF0YS1wYXJ0aWNpcGFudC0xPSJUd2VlbiIgZGF0YS1wYXJ0aWNpcGFudC0yPSJHQiI+PHBvbHlnb24gZmlsbD0iIzY2NjY2NiIgcG9pbnRzPSIzNzkuNSw1NDUuNjk1MywzNjkuNSw1NDkuNjk1MywzNzkuNSw1NTMuNjk1MywzNzUuNSw1NDkuNjk1MyIgc3R5bGU9InN0cm9rZTojNjY2NjY2O3N0cm9rZS13aWR0aDoxOyIvPjxsaW5lIHN0eWxlPSJzdHJva2U6IzY2NjY2NjtzdHJva2Utd2lkdGg6MTtzdHJva2UtZGFzaGFycmF5OjIuMCwyLjA7IiB4MT0iMzczLjUiIHgyPSIxMDMzLjUiIHkxPSI1NDkuNjk1MyIgeTI9IjU0OS42OTUzIi8+PHRleHQgZmlsbD0iIzAwMDAwMCIgZm9udC1mYW1pbHk9InNhbnMtc2VyaWYiIGZvbnQtc2l6ZT0iMTMiIGxlbmd0aEFkanVzdD0ic3BhY2luZyIgdGV4dExlbmd0aD0iNzgiIHg9IjM4NS41IiB5PSI1NDYuMDcwMyI+b25Db21wbGV0ZSgpPC90ZXh0PjwvZz48ZyBjbGFzcz0ibWVzc2FnZSIgZGF0YS1wYXJ0aWNpcGFudC0xPSJHQiIgZGF0YS1wYXJ0aWNpcGFudC0yPSJNUyI+PHBvbHlnb24gZmlsbD0iIzY2NjY2NiIgcG9pbnRzPSI2NDAuNSw1ODcuNTIzNCw2NTAuNSw1OTEuNTIzNCw2NDAuNSw1OTUuNTIzNCw2NDQuNSw1OTEuNTIzNCIgc3R5bGU9InN0cm9rZTojNjY2NjY2O3N0cm9rZS13aWR0aDoxOyIvPjxsaW5lIHN0eWxlPSJzdHJva2U6IzY2NjY2NjtzdHJva2Utd2lkdGg6MTsiIHgxPSIzNjguNSIgeDI9IjY0Ni41IiB5MT0iNTkxLjUyMzQiIHkyPSI1OTEuNTIzNCIvPjx0ZXh0IGZpbGw9IiMwMDAwMDAiIGZvbnQtZmFtaWx5PSJzYW5zLXNlcmlmIiBmb250LXNpemU9IjEzIiBsZW5ndGhBZGp1c3Q9InNwYWNpbmciIHRleHRMZW5ndGg9IjE5NSIgeD0iMzc1LjUiIHk9IjU3My45ODQ0Ij5Qcm9iZU5leHRKdW1wcyhjdXJyZW50RnJvbT10byw8L3RleHQ+PHRleHQgZmlsbD0iIzAwMDAwMCIgZm9udC1mYW1pbHk9InNhbnMtc2VyaWYiIGZvbnQtc2l6ZT0iMTMiIGxlbmd0aEFkanVzdD0ic3BhY2luZyIgdGV4dExlbmd0aD0iMTMwIiB4PSIzODIiIHk9IjU4Ny44OTg0Ij5jYXB0dXJlZFNvRmFyPVsuLi5dKTwvdGV4dD48L2c+PGcgY2xhc3M9Im1lc3NhZ2UiIGRhdGEtcGFydGljaXBhbnQtMT0iTVMiIGRhdGEtcGFydGljaXBhbnQtMj0iTVMiPjxsaW5lIHN0eWxlPSJzdHJva2U6IzY2NjY2NjtzdHJva2Utd2lkdGg6MTsiIHgxPSI2NTIuNSIgeDI9IjY5NC41IiB5MT0iNjE5LjQzNzUiIHkyPSI2MTkuNDM3NSIvPjxsaW5lIHN0eWxlPSJzdHJva2U6IzY2NjY2NjtzdHJva2Utd2lkdGg6MTsiIHgxPSI2OTQuNSIgeDI9IjY5NC41IiB5MT0iNjE5LjQzNzUiIHkyPSI2MzIuNDM3NSIvPjxsaW5lIHN0eWxlPSJzdHJva2U6IzY2NjY2NjtzdHJva2Utd2lkdGg6MTsiIHgxPSI2NTMuNSIgeDI9IjY5NC41IiB5MT0iNjMyLjQzNzUiIHkyPSI2MzIuNDM3NSIvPjxwb2x5Z29uIGZpbGw9IiM2NjY2NjYiIHBvaW50cz0iNjYzLjUsNjI4LjQzNzUsNjUzLjUsNjMyLjQzNzUsNjYzLjUsNjM2LjQzNzUsNjU5LjUsNjMyLjQzNzUiIHN0eWxlPSJzdHJva2U6IzY2NjY2NjtzdHJva2Utd2lkdGg6MTsiLz48dGV4dCBmaWxsPSIjMDAwMDAwIiBmb250LWZhbWlseT0ic2Fucy1zZXJpZiIgZm9udC1zaXplPSIxMyIgbGVuZ3RoQWRqdXN0PSJzcGFjaW5nIiB0ZXh0TGVuZ3RoPSIyNTMuNSIgeD0iNjU5LjUiIHk9IjYxNS44MTI1Ij5jbG9uZSBib2FyZDsgYXBwbHkgc2ltdWxhdGVkIGNhcHR1cmUocyk8L3RleHQ+PC9nPjxnIGNsYXNzPSJtZXNzYWdlIiBkYXRhLXBhcnRpY2lwYW50LTE9Ik1TIiBkYXRhLXBhcnRpY2lwYW50LTI9IlJ1bGVzIj48cG9seWdvbiBmaWxsPSIjNjY2NjY2IiBwb2ludHM9IjkxOCw2NzAuMjY1Niw5MjgsNjc0LjI2NTYsOTE4LDY3OC4yNjU2LDkyMiw2NzQuMjY1NiIgc3R5bGU9InN0cm9rZTojNjY2NjY2O3N0cm9rZS13aWR0aDoxOyIvPjxsaW5lIHN0eWxlPSJzdHJva2U6IzY2NjY2NjtzdHJva2Utd2lkdGg6MTsiIHgxPSI2NTIuNSIgeDI9IjkyNCIgeTE9IjY3NC4yNjU2IiB5Mj0iNjc0LjI2NTYiLz48dGV4dCBmaWxsPSIjMDAwMDAwIiBmb250LWZhbWlseT0ic2Fucy1zZXJpZiIgZm9udC1zaXplPSIxMyIgbGVuZ3RoQWRqdXN0PSJzcGFjaW5nIiB0ZXh0TGVuZ3RoPSIyMDgiIHg9IjY1OS41IiB5PSI2NTYuNzI2NiI+TGVnYWxNb3ZlcyhzaW1Cb2FyZCwgc2lkZVRvTW92ZSk8L3RleHQ+PHRleHQgZmlsbD0iIzAwMDAwMCIgZm9udC1mYW1pbHk9InNhbnMtc2VyaWYiIGZvbnQtc2l6ZT0iMTMiIGxlbmd0aEFkanVzdD0ic3BhY2luZyIgdGV4dExlbmd0aD0iMjUzLjUiIHg9IjY1OS41IiB5PSI2NzAuNjQwNiI+Ly8gZmlsdGVyIHRvIG1vdmVzIGNvbnRpbnVpbmcgZnJvbSAidG8iPC90ZXh0PjwvZz48ZyBjbGFzcz0ibWVzc2FnZSIgZGF0YS1wYXJ0aWNpcGFudC0xPSJSdWxlcyIgZGF0YS1wYXJ0aWNpcGFudC0yPSJNUyI+PHBvbHlnb24gZmlsbD0iIzY2NjY2NiIgcG9pbnRzPSI2NjMuNSw2OTguMTc5Nyw2NTMuNSw3MDIuMTc5Nyw2NjMuNSw3MDYuMTc5Nyw2NTkuNSw3MDIuMTc5NyIgc3R5bGU9InN0cm9rZTojNjY2NjY2O3N0cm9rZS13aWR0aDoxOyIvPjxsaW5lIHN0eWxlPSJzdHJva2U6IzY2NjY2NjtzdHJva2Utd2lkdGg6MTtzdHJva2UtZGFzaGFycmF5OjIuMCwyLjA7IiB4MT0iNjU3LjUiIHgyPSI5MjkiIHkxPSI3MDIuMTc5NyIgeTI9IjcwMi4xNzk3Ii8+PHRleHQgZmlsbD0iIzAwMDAwMCIgZm9udC1mYW1pbHk9InNhbnMtc2VyaWYiIGZvbnQtc2l6ZT0iMTMiIGxlbmd0aEFkanVzdD0ic3BhY2luZyIgdGV4dExlbmd0aD0iOTcuNSIgeD0iNjY5LjUiIHk9IjY5OC41NTQ3Ij5uZXh0SnVtcE9wdGlvbnM8L3RleHQ+PC9nPjxnIGNsYXNzPSJtZXNzYWdlIiBkYXRhLXBhcnRpY2lwYW50LTE9Ik1TIiBkYXRhLXBhcnRpY2lwYW50LTI9IkdCIj48cG9seWdvbiBmaWxsPSIjNjY2NjY2IiBwb2ludHM9IjM3OS41LDcyNi4wOTM4LDM2OS41LDczMC4wOTM4LDM3OS41LDczNC4wOTM4LDM3NS41LDczMC4wOTM4IiBzdHlsZT0ic3Ryb2tlOiM2NjY2NjY7c3Ryb2tlLXdpZHRoOjE7Ii8+PGxpbmUgc3R5bGU9InN0cm9rZTojNjY2NjY2O3N0cm9rZS13aWR0aDoxO3N0cm9rZS1kYXNoYXJyYXk6Mi4wLDIuMDsiIHgxPSIzNzMuNSIgeDI9IjY1MS41IiB5MT0iNzMwLjA5MzgiIHkyPSI3MzAuMDkzOCIvPjx0ZXh0IGZpbGw9IiMwMDAwMDAiIGZvbnQtZmFtaWx5PSJzYW5zLXNlcmlmIiBmb250LXNpemU9IjEzIiBsZW5ndGhBZGp1c3Q9InNwYWNpbmciIHRleHRMZW5ndGg9Ijk3LjUiIHg9IjM4NS41IiB5PSI3MjYuNDY4OCI+bmV4dEp1bXBPcHRpb25zPC90ZXh0PjwvZz48cGF0aCBkPSJNMjAsNzQ1LjA5MzggTDg0LjUsNzQ1LjA5MzggTDg0LjUsNzUxLjAwNzggTDc0LjUsNzYxLjAwNzggTDIwLDc2MS4wMDc4IEwyMCw3NDUuMDkzOCIgZmlsbD0iI0VFRUVFRSIgc3R5bGU9InN0cm9rZTojMDAwMDAwO3N0cm9rZS13aWR0aDoxLjU7Ii8+PHJlY3QgZmlsbD0ibm9uZSIgaGVpZ2h0PSIxOTcuMjU3OCIgc3R5bGU9InN0cm9rZTojMDAwMDAwO3N0cm9rZS13aWR0aDoxLjU7IiB3aWR0aD0iNTQ5LjUiIHg9IjIwIiB5PSI3NDUuMDkzOCIvPjx0ZXh0IGZpbGw9IiMwMDAwMDAiIGZvbnQtZmFtaWx5PSJzYW5zLXNlcmlmIiBmb250LXNpemU9IjEzIiBmb250LXdlaWdodD0iYm9sZCIgbGVuZ3RoQWRqdXN0PSJzcGFjaW5nIiB0ZXh0TGVuZ3RoPSIxOS41IiB4PSIzNSIgeT0iNzU4LjM4MjgiPmFsdDwvdGV4dD48dGV4dCBmaWxsPSIjMDAwMDAwIiBmb250LWZhbWlseT0ic2Fucy1zZXJpZiIgZm9udC1zaXplPSIxMSIgZm9udC13ZWlnaHQ9ImJvbGQiIGxlbmd0aEFkanVzdD0ic3BhY2luZyIgdGV4dExlbmd0aD0iMTQ4LjUiIHg9Ijk5LjUiIHk9Ijc1Ny40OTIyIj5bbmV4dEp1bXBPcHRpb25zIG5vdCBlbXB0eV08L3RleHQ+PGcgY2xhc3M9Im1lc3NhZ2UiIGRhdGEtcGFydGljaXBhbnQtMT0iR0IiIGRhdGEtcGFydGljaXBhbnQtMj0iR0IiPjxsaW5lIHN0eWxlPSJzdHJva2U6IzY2NjY2NjtzdHJva2Utd2lkdGg6MTsiIHgxPSIzNjguNSIgeDI9IjQxMC41IiB5MT0iNzgwLjkyMTkiIHkyPSI3ODAuOTIxOSIvPjxsaW5lIHN0eWxlPSJzdHJva2U6IzY2NjY2NjtzdHJva2Utd2lkdGg6MTsiIHgxPSI0MTAuNSIgeDI9IjQxMC41IiB5MT0iNzgwLjkyMTkiIHkyPSI3OTMuOTIxOSIvPjxsaW5lIHN0eWxlPSJzdHJva2U6IzY2NjY2NjtzdHJva2Utd2lkdGg6MTsiIHgxPSIzNjkuNSIgeDI9IjQxMC41IiB5MT0iNzkzLjkyMTkiIHkyPSI3OTMuOTIxOSIvPjxwb2x5Z29uIGZpbGw9IiM2NjY2NjYiIHBvaW50cz0iMzc5LjUsNzg5LjkyMTksMzY5LjUsNzkzLjkyMTksMzc5LjUsNzk3LjkyMTksMzc1LjUsNzkzLjkyMTkiIHN0eWxlPSJzdHJva2U6IzY2NjY2NjtzdHJva2Utd2lkdGg6MTsiLz48dGV4dCBmaWxsPSIjMDAwMDAwIiBmb250LWZhbWlseT0ic2Fucy1zZXJpZiIgZm9udC1zaXplPSIxMyIgbGVuZ3RoQWRqdXN0PSJzcGFjaW5nIiB0ZXh0TGVuZ3RoPSIxNjkiIHg9IjM3NS41IiB5PSI3NzcuMjk2OSI+SGlnaGxpZ2h0IGNob2ljZXMgb24gYm9hcmQ8L3RleHQ+PC9nPjxnIGNsYXNzPSJtZXNzYWdlIiBkYXRhLXBhcnRpY2lwYW50LTE9IlBsYXllciIgZGF0YS1wYXJ0aWNpcGFudC0yPSJUaWxlIj48cG9seWdvbiBmaWxsPSIjNjY2NjY2IiBwb2ludHM9IjE4OS41LDgxNy44MzU5LDE5OS41LDgyMS44MzU5LDE4OS41LDgyNS44MzU5LDE5My41LDgyMS44MzU5IiBzdHlsZT0ic3Ryb2tlOiM2NjY2NjY7c3Ryb2tlLXdpZHRoOjE7Ii8+PGxpbmUgc3R5bGU9InN0cm9rZTojNjY2NjY2O3N0cm9rZS13aWR0aDoxOyIgeDE9IjU0IiB4Mj0iMTk1LjUiIHkxPSI4MjEuODM1OSIgeTI9IjgyMS44MzU5Ii8+PHRleHQgZmlsbD0iIzAwMDAwMCIgZm9udC1mYW1pbHk9InNhbnMtc2VyaWYiIGZvbnQtc2l6ZT0iMTMiIGxlbmd0aEFkanVzdD0ic3BhY2luZyIgdGV4dExlbmd0aD0iOTEiIHg9IjYxIiB5PSI4MTguMjEwOSI+Q2xpY2sobmV4dC50byk8L3RleHQ+PC9nPjxnIGNsYXNzPSJtZXNzYWdlIiBkYXRhLXBhcnRpY2lwYW50LTE9IlRpbGUiIGRhdGEtcGFydGljaXBhbnQtMj0iR0IiPjxwb2x5Z29uIGZpbGw9IiM2NjY2NjYiIHBvaW50cz0iMzU2LjUsODQ1Ljc1LDM2Ni41LDg0OS43NSwzNTYuNSw4NTMuNzUsMzYwLjUsODQ5Ljc1IiBzdHlsZT0ic3Ryb2tlOiM2NjY2NjY7c3Ryb2tlLXdpZHRoOjE7Ii8+PGxpbmUgc3R5bGU9InN0cm9rZTojNjY2NjY2O3N0cm9rZS13aWR0aDoxOyIgeDE9IjIwMS41IiB4Mj0iMzYyLjUiIHkxPSI4NDkuNzUiIHkyPSI4NDkuNzUiLz48dGV4dCBmaWxsPSIjMDAwMDAwIiBmb250LWZhbWlseT0ic2Fucy1zZXJpZiIgZm9udC1zaXplPSIxMyIgbGVuZ3RoQWRqdXN0PSJzcGFjaW5nIiB0ZXh0TGVuZ3RoPSIxNDMiIHg9IjIwOC41IiB5PSI4NDYuMTI1Ij5PblRpbGVDbGlja2VkKG5leHQudG8pPC90ZXh0PjwvZz48ZyBjbGFzcz0ibWVzc2FnZSIgZGF0YS1wYXJ0aWNpcGFudC0xPSJHQiIgZGF0YS1wYXJ0aWNpcGFudC0yPSJHQiI+PGxpbmUgc3R5bGU9InN0cm9rZTojNjY2NjY2O3N0cm9rZS13aWR0aDoxOyIgeDE9IjM2OC41IiB4Mj0iNDEwLjUiIHkxPSI4NzcuNjY0MSIgeTI9Ijg3Ny42NjQxIi8+PGxpbmUgc3R5bGU9InN0cm9rZTojNjY2NjY2O3N0cm9rZS13aWR0aDoxOyIgeDE9IjQxMC41IiB4Mj0iNDEwLjUiIHkxPSI4NzcuNjY0MSIgeTI9Ijg5MC42NjQxIi8+PGxpbmUgc3R5bGU9InN0cm9rZTojNjY2NjY2O3N0cm9rZS13aWR0aDoxOyIgeDE9IjM2OS41IiB4Mj0iNDEwLjUiIHkxPSI4OTAuNjY0MSIgeTI9Ijg5MC42NjQxIi8+PHBvbHlnb24gZmlsbD0iIzY2NjY2NiIgcG9pbnRzPSIzNzkuNSw4ODYuNjY0MSwzNjkuNSw4OTAuNjY0MSwzNzkuNSw4OTQuNjY0MSwzNzUuNSw4OTAuNjY0MSIgc3R5bGU9InN0cm9rZTojNjY2NjY2O3N0cm9rZS13aWR0aDoxOyIvPjx0ZXh0IGZpbGw9IiMwMDAwMDAiIGZvbnQtZmFtaWx5PSJzYW5zLXNlcmlmIiBmb250LXNpemU9IjEzIiBsZW5ndGhBZGp1c3Q9InNwYWNpbmciIHRleHRMZW5ndGg9IjE4MiIgeD0iMzc1LjUiIHk9Ijg3NC4wMzkxIj5BcHBlbmQgdG8gY2hhaW47IHVwZGF0ZSAidG8iPC90ZXh0PjwvZz48bGluZSBzdHlsZT0ic3Ryb2tlOiMwMDAwMDA7c3Ryb2tlLXdpZHRoOjE7c3Ryb2tlLWRhc2hhcnJheToyLjAsMi4wOyIgeDE9IjIwIiB4Mj0iNTY5LjUiIHkxPSI4OTkuNjY0MSIgeTI9Ijg5OS42NjQxIi8+PHRleHQgZmlsbD0iIzAwMDAwMCIgZm9udC1mYW1pbHk9InNhbnMtc2VyaWYiIGZvbnQtc2l6ZT0iMTEiIGZvbnQtd2VpZ2h0PSJib2xkIiBsZW5ndGhBZGp1c3Q9InNwYWNpbmciIHRleHRMZW5ndGg9IjkzLjUiIHg9IjI1IiB5PSI5MTAuMDYyNSI+WyhubyBtb3JlIGp1bXBzKV08L3RleHQ+PHBhdGggZD0iTTQwLDkxOS40Mzc1IEwxMTcuNSw5MTkuNDM3NSBMMTE3LjUsOTI1LjM1MTYgTDEwNy41LDkzNS4zNTE2IEw0MCw5MzUuMzUxNiBMNDAsOTE5LjQzNzUiIGZpbGw9IiNFRUVFRUUiIHN0eWxlPSJzdHJva2U6IzAwMDAwMDtzdHJva2Utd2lkdGg6MS41OyIvPjxyZWN0IGZpbGw9Im5vbmUiIGhlaWdodD0iMTUuOTE0MSIgc3R5bGU9InN0cm9rZTojMDAwMDAwO3N0cm9rZS13aWR0aDoxLjU7IiB3aWR0aD0iODIuNSIgeD0iNDAiIHk9IjkxOS40Mzc1Ii8+PHRleHQgZmlsbD0iIzAwMDAwMCIgZm9udC1mYW1pbHk9InNhbnMtc2VyaWYiIGZvbnQtc2l6ZT0iMTMiIGZvbnQtd2VpZ2h0PSJib2xkIiBsZW5ndGhBZGp1c3Q9InNwYWNpbmciIHRleHRMZW5ndGg9IjMyLjUiIHg9IjU1IiB5PSI5MzIuNzI2NiI+YnJlYWs8L3RleHQ+PHJlY3QgZmlsbD0iI0VFRUVFRSIgaGVpZ2h0PSIzIiBzdHlsZT0ic3Ryb2tlOiNFRUVFRUU7c3Ryb2tlLXdpZHRoOjE7IiB3aWR0aD0iMTExNyIgeD0iMCIgeT0iOTY5LjMwODYiLz48bGluZSBzdHlsZT0ic3Ryb2tlOiMwMDAwMDA7c3Ryb2tlLXdpZHRoOjE7IiB4MT0iMCIgeDI9IjExMTciIHkxPSI5NjkuMzA4NiIgeTI9Ijk2OS4zMDg2Ii8+PGxpbmUgc3R5bGU9InN0cm9rZTojMDAwMDAwO3N0cm9rZS13aWR0aDoxOyIgeDE9IjAiIHgyPSIxMTE3IiB5MT0iOTcyLjMwODYiIHkyPSI5NzIuMzA4NiIvPjxyZWN0IGZpbGw9IiNFRUVFRUUiIGhlaWdodD0iMjEuOTE0MSIgc3R5bGU9InN0cm9rZTojMDAwMDAwO3N0cm9rZS13aWR0aDoyOyIgd2lkdGg9IjE1NyIgeD0iNDgwIiB5PSI5NTkuMzUxNiIvPjx0ZXh0IGZpbGw9IiMwMDAwMDAiIGZvbnQtZmFtaWx5PSJzYW5zLXNlcmlmIiBmb250LXNpemU9IjEzIiBmb250LXdlaWdodD0iYm9sZCIgbGVuZ3RoQWRqdXN0PSJzcGFjaW5nIiB0ZXh0TGVuZ3RoPSIxMzYuNSIgeD0iNDg2IiB5PSI5NzUuNjQwNiI+Q29tbWl0IGNvbXBvc2l0ZSBtb3ZlPC90ZXh0PjxnIGNsYXNzPSJtZXNzYWdlIiBkYXRhLXBhcnRpY2lwYW50LTE9IkdCIiBkYXRhLXBhcnRpY2lwYW50LTI9Ik1TIj48cG9seWdvbiBmaWxsPSIjNjY2NjY2IiBwb2ludHM9IjY0MC41LDEwMDcuMTc5Nyw2NTAuNSwxMDExLjE3OTcsNjQwLjUsMTAxNS4xNzk3LDY0NC41LDEwMTEuMTc5NyIgc3R5bGU9InN0cm9rZTojNjY2NjY2O3N0cm9rZS13aWR0aDoxOyIvPjxsaW5lIHN0eWxlPSJzdHJva2U6IzY2NjY2NjtzdHJva2Utd2lkdGg6MTsiIHgxPSIzNjguNSIgeDI9IjY0Ni41IiB5MT0iMTAxMS4xNzk3IiB5Mj0iMTAxMS4xNzk3Ii8+PHRleHQgZmlsbD0iIzAwMDAwMCIgZm9udC1mYW1pbHk9InNhbnMtc2VyaWYiIGZvbnQtc2l6ZT0iMTMiIGxlbmd0aEFkanVzdD0ic3BhY2luZyIgdGV4dExlbmd0aD0iMjYwIiB4PSIzNzUuNSIgeT0iMTAwNy41NTQ3Ij5BcHBseShmaW5hbE1vdmUgd2l0aCBmdWxsIENhcHR1cmVkIGxpc3QpPC90ZXh0PjwvZz48ZyBjbGFzcz0ibWVzc2FnZSIgZGF0YS1wYXJ0aWNpcGFudC0xPSJNUyIgZGF0YS1wYXJ0aWNpcGFudC0yPSJHQiI+PHBvbHlnb24gZmlsbD0iIzY2NjY2NiIgcG9pbnRzPSIzNzkuNSwxMDM1LjA5MzgsMzY5LjUsMTAzOS4wOTM4LDM3OS41LDEwNDMuMDkzOCwzNzUuNSwxMDM5LjA5MzgiIHN0eWxlPSJzdHJva2U6IzY2NjY2NjtzdHJva2Utd2lkdGg6MTsiLz48bGluZSBzdHlsZT0ic3Ryb2tlOiM2NjY2NjY7c3Ryb2tlLXdpZHRoOjE7IiB4MT0iMzczLjUiIHgyPSI2NTEuNSIgeTE9IjEwMzkuMDkzOCIgeTI9IjEwMzkuMDkzOCIvPjx0ZXh0IGZpbGw9IiMwMDAwMDAiIGZvbnQtZmFtaWx5PSJzYW5zLXNlcmlmIiBmb250LXNpemU9IjEzIiBsZW5ndGhBZGp1c3Q9InNwYWNpbmciIHRleHRMZW5ndGg9IjE4OC41IiB4PSIzODUuNSIgeT0iMTAzNS40Njg4Ij5PblBvc2l0aW9uKGJvYXJkLCBzaWRlVG9Nb3ZlKTwvdGV4dD48L2c+PHBhdGggZD0iTTMwNiwxMDU0LjA5MzggTDM3MC41LDEwNTQuMDkzOCBMMzcwLjUsMTA2MC4wMDc4IEwzNjAuNSwxMDcwLjAwNzggTDMwNiwxMDcwLjAwNzggTDMwNiwxMDU0LjA5MzgiIGZpbGw9IiNFRUVFRUUiIHN0eWxlPSJzdHJva2U6IzAwMDAwMDtzdHJva2Utd2lkdGg6MS41OyIvPjxyZWN0IGZpbGw9Im5vbmUiIGhlaWdodD0iODQuNzQyMiIgc3R5bGU9InN0cm9rZTojMDAwMDAwO3N0cm9rZS13aWR0aDoxLjU7IiB3aWR0aD0iNzkxIiB4PSIzMDYiIHk9IjEwNTQuMDkzOCIvPjx0ZXh0IGZpbGw9IiMwMDAwMDAiIGZvbnQtZmFtaWx5PSJzYW5zLXNlcmlmIiBmb250LXNpemU9IjEzIiBmb250LXdlaWdodD0iYm9sZCIgbGVuZ3RoQWRqdXN0PSJzcGFjaW5nIiB0ZXh0TGVuZ3RoPSIxOS41IiB4PSIzMjEiIHk9IjEwNjcuMzgyOCI+YWx0PC90ZXh0Pjx0ZXh0IGZpbGw9IiMwMDAwMDAiIGZvbnQtZmFtaWx5PSJzYW5zLXNlcmlmIiBmb250LXNpemU9IjExIiBmb250LXdlaWdodD0iYm9sZCIgbGVuZ3RoQWRqdXN0PSJzcGFjaW5nIiB0ZXh0TGVuZ3RoPSIyMDMuNSIgeD0iMzg1LjUiIHk9IjEwNjYuNDkyMiI+W3JlYWNoZWQgbGFzdCByYW5rIGFuZCBwaWVjZSB3YXMgTWFuXTwvdGV4dD48ZyBjbGFzcz0ibWVzc2FnZSIgZGF0YS1wYXJ0aWNpcGFudC0xPSJHQiIgZGF0YS1wYXJ0aWNpcGFudC0yPSJHQiI+PGxpbmUgc3R5bGU9InN0cm9rZTojNjY2NjY2O3N0cm9rZS13aWR0aDoxOyIgeDE9IjM2OC41IiB4Mj0iNDEwLjUiIHkxPSIxMDg5LjkyMTkiIHkyPSIxMDg5LjkyMTkiLz48bGluZSBzdHlsZT0ic3Ryb2tlOiM2NjY2NjY7c3Ryb2tlLXdpZHRoOjE7IiB4MT0iNDEwLjUiIHgyPSI0MTAuNSIgeTE9IjEwODkuOTIxOSIgeTI9IjExMDIuOTIxOSIvPjxsaW5lIHN0eWxlPSJzdHJva2U6IzY2NjY2NjtzdHJva2Utd2lkdGg6MTsiIHgxPSIzNjkuNSIgeDI9IjQxMC41IiB5MT0iMTEwMi45MjE5IiB5Mj0iMTEwMi45MjE5Ii8+PHBvbHlnb24gZmlsbD0iIzY2NjY2NiIgcG9pbnRzPSIzNzkuNSwxMDk4LjkyMTksMzY5LjUsMTEwMi45MjE5LDM3OS41LDExMDYuOTIxOSwzNzUuNSwxMTAyLjkyMTkiIHN0eWxlPSJzdHJva2U6IzY2NjY2NjtzdHJva2Utd2lkdGg6MTsiLz48dGV4dCBmaWxsPSIjMDAwMDAwIiBmb250LWZhbWlseT0ic2Fucy1zZXJpZiIgZm9udC1zaXplPSIxMyIgbGVuZ3RoQWRqdXN0PSJzcGFjaW5nIiB0ZXh0TGVuZ3RoPSIxODIiIHg9IjM3NS41IiB5PSIxMDg2LjI5NjkiPlJlcXVlc3QgY3Jvd24gdmlzdWFscyAoa2luZyk8L3RleHQ+PC9nPjxnIGNsYXNzPSJtZXNzYWdlIiBkYXRhLXBhcnRpY2lwYW50LTE9IkdCIiBkYXRhLXBhcnRpY2lwYW50LTI9IlR3ZWVuIj48cG9seWdvbiBmaWxsPSIjNjY2NjY2IiBwb2ludHM9IjEwMjIuNSwxMTI2LjgzNTksMTAzMi41LDExMzAuODM1OSwxMDIyLjUsMTEzNC44MzU5LDEwMjYuNSwxMTMwLjgzNTkiIHN0eWxlPSJzdHJva2U6IzY2NjY2NjtzdHJva2Utd2lkdGg6MTsiLz48bGluZSBzdHlsZT0ic3Ryb2tlOiM2NjY2NjY7c3Ryb2tlLXdpZHRoOjE7IiB4MT0iMzY4LjUiIHgyPSIxMDI4LjUiIHkxPSIxMTMwLjgzNTkiIHkyPSIxMTMwLjgzNTkiLz48dGV4dCBmaWxsPSIjMDAwMDAwIiBmb250LWZhbWlseT0ic2Fucy1zZXJpZiIgZm9udC1zaXplPSIxMyIgbGVuZ3RoQWRqdXN0PSJzcGFjaW5nIiB0ZXh0TGVuZ3RoPSI5Ny41IiB4PSIzNzUuNSIgeT0iMTEyNy4yMTA5Ij5BbmltYXRlIENyb3duKCk8L3RleHQ+PC9nPjxnIGNsYXNzPSJtZXNzYWdlIiBkYXRhLXBhcnRpY2lwYW50LTE9IkdCIiBkYXRhLXBhcnRpY2lwYW50LTI9IkdCIj48bGluZSBzdHlsZT0ic3Ryb2tlOiM2NjY2NjY7c3Ryb2tlLXdpZHRoOjE7IiB4MT0iMzY4LjUiIHgyPSI0MTAuNSIgeTE9IjExNjUuNzUiIHkyPSIxMTY1Ljc1Ii8+PGxpbmUgc3R5bGU9InN0cm9rZTojNjY2NjY2O3N0cm9rZS13aWR0aDoxOyIgeDE9IjQxMC41IiB4Mj0iNDEwLjUiIHkxPSIxMTY1Ljc1IiB5Mj0iMTE3OC43NSIvPjxsaW5lIHN0eWxlPSJzdHJva2U6IzY2NjY2NjtzdHJva2Utd2lkdGg6MTsiIHgxPSIzNjkuNSIgeDI9IjQxMC41IiB5MT0iMTE3OC43NSIgeTI9IjExNzguNzUiLz48cG9seWdvbiBmaWxsPSIjNjY2NjY2IiBwb2ludHM9IjM3OS41LDExNzQuNzUsMzY5LjUsMTE3OC43NSwzNzkuNSwxMTgyLjc1LDM3NS41LDExNzguNzUiIHN0eWxlPSJzdHJva2U6IzY2NjY2NjtzdHJva2Utd2lkdGg6MTsiLz48dGV4dCBmaWxsPSIjMDAwMDAwIiBmb250LWZhbWlseT0ic2Fucy1zZXJpZiIgZm9udC1zaXplPSIxMyIgbGVuZ3RoQWRqdXN0PSJzcGFjaW5nIiB0ZXh0TGVuZ3RoPSIyMDEuNSIgeD0iMzc1LjUiIHk9IjExNjIuMTI1Ij5VbmxvY2tJbnB1dCgpOyBVcGRhdGUgVUkvY2FtZXJhPC90ZXh0PjwvZz48IS0tU1JDPVtWTExUSm5peDQ3dFZOcDZZM3pyOEQ1bUwyR2FlYktXYUExTXZIMEp3S2xoV1UyVTk2d19qc2J4SXdFaC16cGpaQnlhY2I4aUthVllTNlMtUy1WMXhrRTBfY0NJcm5sb3oyNGpiZEYyWVhnY0dveGN0WlFjNkxiaUZndU1Bc0M0aGQ4YjZub2poT1lQQ0RMYnEyNjRYQWhqSVBXdXBlS0ZOekQ5eGt5ZjZ4cXZFSmhlcy1BajE4bjctQVUwTDNVMU1wVjFNNkhuT053NWxlVEZKcW93cTVfUXhnX0g3WkI3bUtLZGJYOGF4emlWN250bGU2b3gtQkdlWDhuc0NqTFlaQnpwTTEwdVViQ1BsMmJTNzgwQm1acnR1TWpHS2pPcVhVazZVSjNkczZEMTR6QnJhUzN0T2ZPejRiOGk5LWNTYmFUWU5wY2FiSExKTVBGdmVpaWtfa015cTFjOUVvN180LUpoSnFrYVV5czY1UTNna0EtNHNPSUlpQUJXZEtBRUN1MUhJQ09JZk9BUHlZRjJwZ0hycklmNExXMC1WS3dmZENBSm1ia05Dc3hmTnkwYVpydUNwazNGeUF3NU9qVldSamtwX0F4ZGxIX2pfRlhXamhXU0NaWVBkUzhqcGVLVnM2S0ZQQXFPSkZhdjl4bzFKQXRucjI0NUwtNjN2ZzVTYTRkbmVsTVdMdVlTNkZZU1Z4U01UcXRtWDdwZUEwcFIxR2djQ3I0cjVsZVFhTy1Fbi1id2h3aVNjSFpRdmpOOXZPcm1KQUtKTVRoV0dyQVhMNFpFMGpaUDljbHhKYTU3WTFkXzc1aU5WNTBJbVMyMFJ4d2JiOEZuZ1g0VGdzVlRtUUxIRHZUdjBSNEQwbFplTHltbXVXSjZOaUtwNXYxdXpYNldGdVFfLW5xRW1QY1hoZnA2STlmMUREbGJsQ0d3U3h2a2VrajV5T1JIR2dJMzlqVHo2MnpQblh1UEQxMnBqc0RpZl9hcUtiWWtLUlFITmJEMDUxVjVhR0JRd0pVb0x5MVZWLV90LTNtdWJydjh6STZxREdnaFhFR1lRWDNMTENpVEhsTFlOT01scGtsdjQ3eG5nV0lUcFQ0STVyREp5ZDR4REo5MnFwUEhmcWo5WXBHLVlGSTM3a3pyWXNjcGtEa2JzY2NPVjk1SmVrN3lDbmFSMHNpS3J1SXpvaVZhTkRMemUtYUlHMnFpSjZnV0FFVlQ0X0ZGaWlGQ3FEYW52VXRIc1FEaWhRUmFXM0pYZjhCYW5wdzVuNVRVdXBIcmZUcURmTTI2RmtJa3BYd2I3aU1JMmdHaC1mRFFzVFFxZVRrZVI2LVl6SUI5b1RzeVJXZFZQY2lSVHZFaDBJaUs1cDFnakRuRUsxa3piY2RDUU9fUDZtbHJmYjBsTWJzQUgycE9MRDJ2VWM2TFFNZGJ6aE5YWDJiRHFheHhkWHVRZWFmdU8weXlnREZINkdLYUZxUm9OTVp0dGlqMEdxcXBDUUVyZEJkcTlBLTcwVU5lMGZfbEp6WkFIRy1SSXMySFhqalMtNmhyVDFrVm1jOUwtbDNjSXozdnV5SHkwXS0tPjwvZz48L3N2Zz4=;" vertex="1" parent="1">
            <mxGeometry x="470" y="207" width="1124" height="1276" as="geometry" />
          </mxCell>
        </UserObject>
      </root>
    </mxGraphModel>
  </diagram>
  <diagram name="High-Level" id="8Gatx8_stpgpAMfWBcPa">
    <mxGraphModel dx="1186" dy="860" grid="1" gridSize="10" guides="1" tooltips="1" connect="1" arrows="1" fold="1" page="1" pageScale="1" pageWidth="1169" pageHeight="827" math="0" shadow="0">
      <root>
        <mxCell id="0" />
        <mxCell id="1" parent="0" />
        <mxCell id="D" value="Domain" style="swimlane;rounded=1;html=1;whiteSpace=wrap;collapsible=0;horizontal=0;startSize=28;" parent="1" vertex="1">
          <mxGeometry x="20" y="20" width="520" height="300" as="geometry" />
        </mxCell>
        <mxCell id="n1" value="BoardState" style="rounded=0;whiteSpace=wrap;html=1;spacing=6;" parent="D" vertex="1">
          <mxGeometry x="30" y="40" width="140" height="44" as="geometry" />
        </mxCell>
        <mxCell id="n2" value="Piece" style="rounded=0;whiteSpace=wrap;html=1;spacing=6;" parent="D" vertex="1">
          <mxGeometry x="190" y="40" width="120" height="44" as="geometry" />
        </mxCell>
        <mxCell id="n3" value="Move" style="rounded=0;whiteSpace=wrap;html=1;spacing=6;" parent="D" vertex="1">
          <mxGeometry x="320" y="40" width="120" height="44" as="geometry" />
        </mxCell>
        <mxCell id="n4" value="Coord" style="rounded=0;whiteSpace=wrap;html=1;spacing=6;" parent="D" vertex="1">
          <mxGeometry x="40" y="110" width="120" height="44" as="geometry" />
        </mxCell>
        <mxCell id="n5" value="&lt;&lt;interface&gt;&gt; IRules" style="rounded=0;whiteSpace=wrap;html=1;spacing=6;" parent="D" vertex="1">
          <mxGeometry x="180" y="100" width="180" height="44" as="geometry" />
        </mxCell>
        <mxCell id="n6" value="AmericanRules" style="rounded=0;whiteSpace=wrap;html=1;spacing=6;" parent="D" vertex="1">
          <mxGeometry x="110" y="210" width="180" height="44" as="geometry" />
        </mxCell>
        <mxCell id="A" value="Application" style="swimlane;rounded=1;html=1;whiteSpace=wrap;collapsible=0;horizontal=0;startSize=28;" parent="1" vertex="1">
          <mxGeometry x="560" y="20" width="400" height="300" as="geometry" />
        </mxCell>
        <mxCell id="n7" value="MatchService" style="rounded=0;whiteSpace=wrap;html=1;spacing=6;" parent="A" vertex="1">
          <mxGeometry x="60" y="30" width="160" height="44" as="geometry" />
        </mxCell>
        <mxCell id="n8" value="&lt;&lt;interface&gt;&gt; ICommand" style="rounded=0;whiteSpace=wrap;html=1;spacing=6;" parent="A" vertex="1">
          <mxGeometry x="120" y="100" width="200" height="44" as="geometry" />
        </mxCell>
        <mxCell id="n9" value="MoveCommand" style="rounded=0;whiteSpace=wrap;html=1;spacing=6;" parent="A" vertex="1">
          <mxGeometry x="250" y="30" width="140" height="44" as="geometry" />
        </mxCell>
        <mxCell id="n10" value="&lt;&lt;interface&gt;&gt; IGameClock" style="rounded=0;whiteSpace=wrap;html=1;spacing=6;" parent="A" vertex="1">
          <mxGeometry x="120" y="170" width="220" height="44" as="geometry" />
        </mxCell>
        <mxCell id="n11" value="&lt;&lt;interface&gt;&gt; IEventBus" style="rounded=0;whiteSpace=wrap;html=1;spacing=6;" parent="A" vertex="1">
          <mxGeometry x="160" y="230" width="200" height="44" as="geometry" />
        </mxCell>
        <mxCell id="I" value="Infrastructure" style="swimlane;rounded=1;html=1;whiteSpace=wrap;collapsible=0;horizontal=0;startSize=28;" parent="1" vertex="1">
          <mxGeometry x="20" y="340" width="520" height="220" as="geometry" />
        </mxCell>
        <mxCell id="n12" value="&lt;&lt;interface&gt;&gt; ITweenService" style="rounded=0;whiteSpace=wrap;html=1;spacing=6;" parent="I" vertex="1">
          <mxGeometry x="50" y="120" width="240" height="44" as="geometry" />
        </mxCell>
        <mxCell id="n13" value="LeanTweenService" style="rounded=0;whiteSpace=wrap;html=1;spacing=6;" parent="I" vertex="1">
          <mxGeometry x="190" y="40" width="200" height="44" as="geometry" />
        </mxCell>
        <mxCell id="P" value="Presentation" style="swimlane;rounded=1;html=1;whiteSpace=wrap;collapsible=0;horizontal=0;startSize=28;" parent="1" vertex="1">
          <mxGeometry x="560" y="340" width="400" height="220" as="geometry" />
        </mxCell>
        <mxCell id="n14" value="GameBootstrap (MB)" style="rounded=0;whiteSpace=wrap;html=1;spacing=6;" parent="P" vertex="1">
          <mxGeometry x="30" y="20" width="200" height="44" as="geometry" />
        </mxCell>
        <mxCell id="n15" value="TileView (MB)" style="rounded=0;whiteSpace=wrap;html=1;spacing=6;" parent="P" vertex="1">
          <mxGeometry x="240" y="30" width="160" height="44" as="geometry" />
        </mxCell>
        <mxCell id="n16" value="PieceView (MB)" style="rounded=0;whiteSpace=wrap;html=1;spacing=6;" parent="P" vertex="1">
          <mxGeometry x="240" y="100" width="160" height="44" as="geometry" />
        </mxCell>
        <mxCell id="n17" value="StartScreen (MB)" style="rounded=0;whiteSpace=wrap;html=1;spacing=6;" parent="P" vertex="1">
          <mxGeometry x="30" y="100" width="200" height="44" as="geometry" />
        </mxCell>
        <mxCell id="n18" value="InGameHUD (MB)" style="rounded=0;whiteSpace=wrap;html=1;spacing=6;" parent="P" vertex="1">
          <mxGeometry x="30" y="170" width="200" height="44" as="geometry" />
        </mxCell>
        <mxCell id="Aaiz8NQarv_zfi8_6bOD-1" style="edgeStyle=none;curved=1;rounded=0;orthogonalLoop=1;jettySize=auto;html=1;exitX=0;exitY=0.5;exitDx=0;exitDy=0;fontSize=12;startSize=8;endSize=8;" edge="1" parent="P" source="n15" target="n15">
          <mxGeometry relative="1" as="geometry" />
        </mxCell>
        <mxCell id="e1" style="endArrow=block;html=1;" parent="1" source="n6" target="n1" edge="1">
          <mxGeometry relative="1" as="geometry">
            <Array as="points" />
          </mxGeometry>
        </mxCell>
        <mxCell id="e2" style="endArrow=block;html=1;" parent="1" source="n7" target="n1" edge="1">
          <mxGeometry relative="1" as="geometry" />
        </mxCell>
        <mxCell id="e3" style="endArrow=block;html=1;" parent="1" source="n7" target="n5" edge="1">
          <mxGeometry relative="1" as="geometry" />
        </mxCell>
        <mxCell id="e4" style="endArrow=block;html=1;" parent="1" source="n9" target="n7" edge="1">
          <mxGeometry relative="1" as="geometry" />
        </mxCell>
        <mxCell id="e5" style="endArrow=block;html=1;" parent="1" source="n14" target="n7" edge="1">
          <mxGeometry relative="1" as="geometry" />
        </mxCell>
        <mxCell id="e6" style="endArrow=block;html=1;" parent="1" source="n14" target="n12" edge="1">
          <mxGeometry relative="1" as="geometry" />
        </mxCell>
        <mxCell id="e7" style="endArrow=block;html=1;" parent="1" source="n14" target="n15" edge="1">
          <mxGeometry relative="1" as="geometry" />
        </mxCell>
        <mxCell id="e8" style="endArrow=block;html=1;" parent="1" source="n14" target="n16" edge="1">
          <mxGeometry relative="1" as="geometry" />
        </mxCell>
        <mxCell id="e9" style="endArrow=block;html=1;" parent="1" source="n18" target="n7" edge="1">
          <mxGeometry relative="1" as="geometry" />
        </mxCell>
        <mxCell id="e10" style="endArrow=block;html=1;" parent="1" source="n17" target="n7" edge="1">
          <mxGeometry relative="1" as="geometry" />
        </mxCell>
        <mxCell id="e11" style="endArrow=block;dashed=1;html=1;" parent="1" source="n13" target="n12" edge="1">
          <mxGeometry relative="1" as="geometry" />
        </mxCell>
        <mxCell id="e12" style="endArrow=block;dashed=1;html=1;" parent="1" source="n6" target="n5" edge="1">
          <mxGeometry relative="1" as="geometry" />
        </mxCell>
      </root>
    </mxGraphModel>
  </diagram>
  <diagram name="Domain Class Diagram" id="oPwdkb-ecOa7neUA3fJg">
    <mxGraphModel dx="818" dy="593" grid="1" gridSize="10" guides="1" tooltips="1" connect="1" arrows="1" fold="1" page="1" pageScale="1" pageWidth="1169" pageHeight="827" math="0" shadow="0">
      <root>
        <mxCell id="0" />
        <mxCell id="1" parent="0" />
        <mxCell id="c1" value="BoardState" style="shape=swimlane;rounded=1;html=1;whiteSpace=wrap;horizontal=0;startSize=28;collapsible=0;fillColor=#0050ef;fontColor=#ffffff;strokeColor=#001DBC;" parent="1" vertex="1">
          <mxGeometry x="40" y="60" width="260" height="180" as="geometry" />
        </mxCell>
        <mxCell id="c1f" value="- grid: Piece?[8,8] - Size: int = 8" style="text;html=1;verticalAlign=top;align=left;whiteSpace=wrap;" parent="c1" vertex="1">
          <mxGeometry x="50" y="28" width="260" height="76" as="geometry" />
        </mxCell>
        <mxCell id="c1m" value="+ Place(c: Coord, p: Piece) + Remove(c: Coord): Piece? + Move(from: Coord, to: Coord) + InBounds(c: Coord): bool + Clone(): BoardState" style="text;html=1;verticalAlign=top;align=left;whiteSpace=wrap;" parent="c1" vertex="1">
          <mxGeometry x="50" y="70" width="200" height="76" as="geometry" />
        </mxCell>
        <mxCell id="c2" value="Piece" style="shape=swimlane;rounded=1;html=1;whiteSpace=wrap;horizontal=0;startSize=28;collapsible=0;fillColor=#f0a30a;fontColor=#000000;strokeColor=#BD7000;" parent="1" vertex="1">
          <mxGeometry x="360" y="60" width="220" height="120" as="geometry" />
        </mxCell>
        <mxCell id="c2f" value="+ Owner: PlayerColor + Kind: PieceKind" style="text;html=1;verticalAlign=top;align=left;whiteSpace=wrap;" parent="c2" vertex="1">
          <mxGeometry x="50" y="28" width="170" height="46" as="geometry" />
        </mxCell>
        <mxCell id="c2m" value="+ Crown(): void" style="text;html=1;verticalAlign=top;align=left;whiteSpace=wrap;" parent="c2" vertex="1">
          <mxGeometry x="50" y="74" width="220" height="46" as="geometry" />
        </mxCell>
        <mxCell id="c3" value="Move (record)" style="shape=swimlane;rounded=1;html=1;whiteSpace=wrap;horizontal=0;startSize=28;collapsible=0;" parent="1" vertex="1">
          <mxGeometry x="620" y="60" width="260" height="120" as="geometry" />
        </mxCell>
        <mxCell id="c3f" value="+ From: Coord + To: Coord + Captured: IReadOnlyList&lt;Coord&gt;" style="text;html=1;verticalAlign=top;align=left;whiteSpace=wrap;" parent="c3" vertex="1">
          <mxGeometry x="40" y="40" width="260" height="92" as="geometry" />
        </mxCell>
        <mxCell id="c4" value="Coord (struct)" style="shape=swimlane;rounded=1;html=1;whiteSpace=wrap;horizontal=0;startSize=28;collapsible=0;" parent="1" vertex="1">
          <mxGeometry x="620" y="200" width="220" height="100" as="geometry" />
        </mxCell>
        <mxCell id="c4f" value="+ Row: int + Col: int + IsDarkSquare: bool" style="text;html=1;verticalAlign=top;align=left;whiteSpace=wrap;" parent="c4" vertex="1">
          <mxGeometry x="30" y="28" width="180" height="72" as="geometry" />
        </mxCell>
        <mxCell id="c5" value="&lt;&lt;interface&gt;&gt; IRules" style="shape=swimlane;rounded=1;html=1;whiteSpace=wrap;horizontal=0;startSize=28;collapsible=0;" parent="1" vertex="1">
          <mxGeometry x="40" y="270" width="420" height="140" as="geometry" />
        </mxCell>
        <mxCell id="c5m" value="+ LegalMoves(b: BoardState, side: PlayerColor): IReadOnlyList&lt;Move&gt; + IsTerminal(b: BoardState, side: PlayerColor, out winner: PlayerColor?): bool" style="text;html=1;verticalAlign=top;align=left;whiteSpace=wrap;" parent="c5" vertex="1">
          <mxGeometry x="50" y="28" width="370" height="112" as="geometry" />
        </mxCell>
        <mxCell id="c6" value="AmericanRules : IRules" style="shape=swimlane;rounded=1;html=1;whiteSpace=wrap;horizontal=0;startSize=28;collapsible=0;" parent="1" vertex="1">
          <mxGeometry x="500" y="320" width="260" height="120" as="geometry" />
        </mxCell>
        <mxCell id="c6m" value="+ LegalMoves(...) + IsTerminal(...)" style="text;html=1;verticalAlign=top;align=left;whiteSpace=wrap;" parent="c6" vertex="1">
          <mxGeometry x="40" y="38" width="260" height="92" as="geometry" />
        </mxCell>
        <mxCell id="c7" value="MatchService" style="shape=swimlane;rounded=1;html=1;whiteSpace=wrap;horizontal=0;startSize=28;collapsible=0;" parent="1" vertex="1">
          <mxGeometry x="40" y="440" width="460" height="180" as="geometry" />
        </mxCell>
        <mxCell id="c7f" value="- _board: BoardState - _turn: PlayerColor - _history: Stack&lt;Move&gt;" style="text;html=1;verticalAlign=top;align=left;whiteSpace=wrap;" parent="c7" vertex="1">
          <mxGeometry x="60" y="28" width="460" height="72" as="geometry" />
        </mxCell>
        <mxCell id="c7m" value="+ LegalMoves(): IReadOnlyList&lt;Move&gt; + Apply(m: Move): void + OnPosition(b: BoardState, side: PlayerColor) + OnMoveCommitted(side: PlayerColor, m: Move) + OnGameOver(winner: PlayerColor?)" style="text;html=1;verticalAlign=top;align=left;whiteSpace=wrap;" parent="c7" vertex="1">
          <mxGeometry x="50" y="100" width="410" height="80" as="geometry" />
        </mxCell>
        <mxCell id="c8" value="&lt;&lt;interface&gt;&gt; ICommand" style="shape=swimlane;rounded=1;html=1;whiteSpace=wrap;horizontal=0;startSize=28;collapsible=0;" parent="1" vertex="1">
          <mxGeometry x="550" y="460" width="200" height="120" as="geometry" />
        </mxCell>
        <mxCell id="c8m" value="+ Execute(): void + Undo(): void" style="text;html=1;verticalAlign=top;align=left;whiteSpace=wrap;" parent="c8" vertex="1">
          <mxGeometry x="40" y="8" width="160" height="92" as="geometry" />
        </mxCell>
        <mxCell id="c9" value="MoveCommand : ICommand" style="shape=swimlane;rounded=1;html=1;whiteSpace=wrap;horizontal=0;startSize=28;collapsible=0;" parent="1" vertex="1">
          <mxGeometry x="760" y="450" width="280" height="160" as="geometry" />
        </mxCell>
        <mxCell id="c9f" value="- _match: MatchService - _move: Move - _before: BoardState - _prevSide: PlayerColor" style="text;html=1;verticalAlign=top;align=left;whiteSpace=wrap;" parent="c9" vertex="1">
          <mxGeometry x="40" y="28" width="240" height="80" as="geometry" />
        </mxCell>
        <mxCell id="c9m" value="+ Execute(): void + Undo(): void" style="text;html=1;verticalAlign=top;align=left;whiteSpace=wrap;" parent="c9" vertex="1">
          <mxGeometry x="40" y="108" width="240" height="52" as="geometry" />
        </mxCell>
        <mxCell id="c10" value="&lt;&lt;interface&gt;&gt; IGameClock" style="shape=swimlane;rounded=1;html=1;whiteSpace=wrap;horizontal=0;startSize=28;collapsible=0;" parent="1" vertex="1">
          <mxGeometry x="40" y="640" width="360" height="140" as="geometry" />
        </mxCell>
        <mxCell id="c10m" value="+ StartTurn(side: PlayerColor, timeLeft: TimeSpan) + Stop(): void + OnTick(side: PlayerColor, left: TimeSpan) + OnFlag(side: PlayerColor)" style="text;html=1;verticalAlign=top;align=left;whiteSpace=wrap;" parent="c10" vertex="1">
          <mxGeometry x="40" y="28" width="290" height="112" as="geometry" />
        </mxCell>
        <mxCell id="c11" value="&lt;&lt;interface&gt;&gt; ITweenService" style="shape=swimlane;rounded=1;html=1;whiteSpace=wrap;horizontal=0;startSize=28;collapsible=0;" parent="1" vertex="1">
          <mxGeometry x="430" y="640" width="420" height="140" as="geometry" />
        </mxCell>
        <mxCell id="c11m" value="+ MovePiece(view: object, to: Vector3, time: float, onComplete?): int + MoveCamera(t: Transform, to: Vector3, time: float): int" style="text;html=1;verticalAlign=top;align=left;whiteSpace=wrap;" parent="c11" vertex="1">
          <mxGeometry x="40" y="28" width="380" height="112" as="geometry" />
        </mxCell>
        <mxCell id="e1" style="endArrow=block;dashed=1;html=1;" parent="1" source="c6" target="c5" edge="1">
          <mxGeometry relative="1" as="geometry" />
        </mxCell>
        <mxCell id="e2" style="endArrow=block;html=1;" parent="1" source="c7" target="c5" edge="1">
          <mxGeometry relative="1" as="geometry" />
        </mxCell>
        <mxCell id="e3" style="endArrow=block;html=1;" parent="1" source="c7" target="c1" edge="1">
          <mxGeometry relative="1" as="geometry" />
        </mxCell>
        <mxCell id="e4" style="endArrow=block;html=1;" parent="1" source="c9" target="c7" edge="1">
          <mxGeometry relative="1" as="geometry" />
        </mxCell>
      </root>
    </mxGraphModel>
  </diagram>
</mxfile>
